<?xml version="1.0" encoding="UTF-8" standalone="no"?>
<!-- Created with Inkscape (http://www.inkscape.org/) -->

<svg
   xmlns:svg="http://www.w3.org/2000/svg"
   xmlns="http://www.w3.org/2000/svg"
   version="1.2"
   width="377.746"
   height="761.54102"
   viewBox="0 0 377.746 761.541"
   id="Layer_4"
   xml:space="preserve"
   style="overflow:inherit"><defs
   id="defs7" />
<path
   d="m 201.92,9.767 c 0.416,-0.26 0.866,-0.568 1.351,-0.925 0.593,-0.447 1.118,-0.822 1.575,-1.125 0.22,-2.477 1.379,-3.685 3.475,-3.625 0.053,0.002 0.103,0.002 0.15,0 -1.068,0.07 -1.802,0.504 -2.2,1.3 -0.233,0.466 -0.434,1.066 -0.601,1.8 0.018,-0.007 0.034,-0.016 0.051,-0.025 0.122,-0.067 0.239,-0.125 0.35,-0.175 0.369,-0.803 0.586,-1.236 0.65,-1.3 0.466,-0.567 1.316,-1.017 2.55,-1.35 l -0.4,-0.2 c 0.637,0.088 1.253,0.288 1.851,0.6 0.147,0.081 0.28,0.164 0.399,0.25 0.254,-0.146 0.537,-0.279 0.851,-0.4 1.882,-0.741 2.891,-0.224 3.024,1.55 0.447,-0.261 0.855,-0.562 1.226,-0.9 0.037,-0.051 0.07,-0.101 0.1,-0.15 1.218,-1.647 2.118,-2.697 2.7,-3.15 1.033,-1.2 1.6,-1.067 1.7,0.4 0.166,2.233 0.333,3.45 0.5,3.65 0.481,-0.321 1.14,-0.696 1.975,-1.125 0.022,-0.234 0.048,-0.493 0.075,-0.775 0.066,-1.1 0.583,-1.9 1.55,-2.4 1.366,-0.533 2.316,-0.85 2.85,-0.95 0.834,-0.133 1.284,0.317 1.351,1.35 0.003,0.076 0.003,0.151 0,0.225 0.314,-0.083 0.547,-0.125 0.7,-0.125 h 2.05 c 0.161,-0.402 0.378,-0.852 0.649,-1.35 0.667,-1.2 1.051,-1.117 1.15,0.25 0.233,-0.233 0.417,-0.383 0.55,-0.45 0.167,-0.133 0.7,-0.2 1.601,-0.2 1.533,0 2.3,1.333 2.3,4 0,0.394 -0.009,0.71 -0.025,0.95 0.266,0.3 0.407,0.45 0.425,0.45 0.334,-0.367 0.75,-0.717 1.25,-1.05 0.967,-0.733 2.4,-1.1 4.301,-1.1 0.471,0 0.938,0.058 1.399,0.175 0.146,-0.154 0.279,-0.296 0.4,-0.425 l -2.8,0.15 -0.15,-0.1 2.65,-0.25 c 2.5,-1.8 4.05,-2.65 4.649,-2.55 0.3,0.033 0.45,0.7 0.45,2 l -0.175,0.425 c 0.299,0.437 0.532,1.228 0.7,2.375 0.505,-0.521 0.88,-0.872 1.125,-1.05 0.653,-0.523 1.095,0.218 1.324,2.225 0.479,-0.204 0.988,-0.229 1.525,-0.075 0.4,-2.066 1.233,-3.35 2.5,-3.85 1.366,-0.533 2.283,0.534 2.75,3.2 0.733,-0.233 1.384,-0.3 1.95,-0.2 v 1.475 c 0.377,-0.059 0.76,-0.1 1.149,-0.125 1.562,-0.676 2.47,0.107 2.726,2.35 0.263,0 0.537,0 0.825,0 1.267,0 2.366,0.55 3.3,1.65 0.866,0.967 1.3,1.95 1.3,2.95 0,0.759 -0.033,1.284 -0.1,1.575 0.219,-0.015 0.444,-0.023 0.675,-0.025 0.252,-1.695 1.293,-2.528 3.125,-2.5 2.133,0.033 3.2,1 3.2,2.9 0,0.735 -0.134,1.293 -0.4,1.675 0.092,0.106 0.176,0.215 0.25,0.325 0.398,-0.667 0.948,-1 1.65,-1 0.233,0 0.383,0.034 0.449,0.1 l 0.051,1.15 c 0,0.233 -0.267,0.633 -0.801,1.2 -0.229,0.229 -0.453,0.42 -0.675,0.575 0.016,0.139 0.023,0.281 0.025,0.425 1.1,0.3 2.283,0.783 3.55,1.45 1.333,0.7 2.316,1.383 2.95,2.05 0.371,0.404 0.996,0.854 1.875,1.35 1.071,0.323 2.079,0.807 3.024,1.45 0.191,0.08 0.392,0.164 0.601,0.25 2.333,0.934 3.5,1.934 3.5,3 0,0.262 -0.158,0.829 -0.476,1.7 2.017,2.026 3.025,3.776 3.025,5.25 0,1.667 -0.017,2.6 -0.05,2.8 -0.3,1.534 -1.134,2.467 -2.5,2.8 1.333,-0.8 2,-1.917 2,-3.35 0,-1.333 -0.233,-2.3 -0.7,-2.9 0,0.433 0.116,1.033 0.35,1.8 -0.031,0.572 -0.757,1.005 -2.175,1.3 -0.062,0.395 -0.188,0.861 -0.375,1.4 -0.051,0.162 -0.101,0.312 -0.149,0.45 0.033,0.313 0.05,0.646 0.05,1 l -0.75,2.8 c -0.032,0.092 -0.065,0.184 -0.101,0.275 1.088,0.072 1.788,0.364 2.101,0.875 0.166,0.267 0.25,1.017 0.25,2.25 0,0.478 -0.025,0.903 -0.075,1.275 0.257,0.402 0.531,0.844 0.825,1.325 1.533,2.6 2.3,4.167 2.3,4.7 0,1.1 -0.05,1.85 -0.15,2.25 -0.333,1.267 -1.05,2 -2.149,2.2 -0.167,-0.1 -0.25,-0.233 -0.25,-0.4 l 0.05,-1.5 h 0.45 c 0,0.767 0.1,1.15 0.3,1.15 0.366,-0.633 0.7,-1.383 1,-2.25 v -2.65 h -0.05 c -1.124,2.344 -2.324,3.594 -3.601,3.75 -0.148,0.253 -0.307,0.495 -0.475,0.725 0.212,0.508 0.337,1.066 0.375,1.675 0.062,0 0.129,0 0.2,0 0.3,0 1.1,-0.067 2.399,-0.2 1.067,-0.133 1.7,-0.15 1.9,-0.05 0.333,0.967 0.167,1.85 -0.5,2.65 -0.176,0.21 -0.376,0.401 -0.6,0.575 0.199,0.262 0.3,0.687 0.3,1.275 0,1.485 -0.084,2.877 -0.25,4.175 -0.034,0.964 -0.117,1.605 -0.25,1.925 l -0.075,-0.075 c -0.385,1.749 -0.951,3.308 -1.7,4.675 0.042,0.108 0.084,0.225 0.125,0.35 0.634,0.871 0.95,1.387 0.95,1.55 0,0.51 -0.033,1.019 -0.1,1.525 0.066,0.311 0.1,0.569 0.1,0.775 0,1.133 -0.684,2.934 -2.05,5.4 -1.533,2.7 -2.867,3.967 -4,3.8 1.1,-0.434 1.833,-0.883 2.2,-1.35 0.199,-0.267 0.383,-0.733 0.55,-1.4 -0.116,0.116 -0.241,0.208 -0.375,0.275 -0.819,0.713 -1.761,1.205 -2.825,1.475 0.736,-0.274 1.429,-0.708 2.075,-1.3 -0.104,-0.006 -0.212,-0.023 -0.325,-0.05 -0.033,0 -0.533,-0.167 -1.5,-0.5 0,-0.3 0.25,-0.95 0.75,-1.95 0.5,-0.966 0.75,-1.633 0.75,-2 0,-0.027 0,-0.053 0,-0.075 -0.827,1.159 -1.677,2.034 -2.55,2.625 l -0.25,-0.25 c -0.101,-0.2 -0.167,-0.3 -0.2,-0.3 0,-0.1 0,-0.433 0,-1 0,-0.25 0.017,-0.5 0.05,-0.75 -0.02,0.07 -0.036,0.137 -0.05,0.2 -0.102,0.448 -0.202,0.881 -0.3,1.3 v 3.95 c -0.101,0.333 -0.351,1.433 -0.75,3.3 -0.351,0.993 -0.784,1.692 -1.3,2.101 -0.009,0.033 -0.018,0.066 -0.025,0.1 0.111,-0.096 0.212,-0.204 0.3,-0.325 -0.312,0.769 -0.637,1.294 -0.975,1.575 -0.062,-0.041 -0.129,-0.1 -0.2,-0.175 -0.72,0.584 -1.745,0.893 -3.075,0.925 -0.083,0.442 -0.274,0.859 -0.575,1.25 -0.492,0.548 -1.176,0.872 -2.05,0.975 0.064,0.346 0.198,0.754 0.4,1.226 0.333,0.7 0.5,1.25 0.5,1.649 l -0.45,3.4 c -0.6,2.233 -1.684,3.35 -3.25,3.35 -0.866,0 -1.616,-0.616 -2.25,-1.85 -0.336,-0.648 -0.561,-1.198 -0.675,-1.65 -0.286,0.635 -0.562,0.969 -0.825,1 -0.02,0.069 -0.036,0.136 -0.05,0.2 -0.241,1.138 -0.683,2.071 -1.325,2.8 -0.421,2.281 -0.979,4.023 -1.675,5.226 0.143,-0.353 0.226,-0.744 0.25,-1.175 0.1,-1.467 0.184,-2.267 0.25,-2.4 h -0.25 c 0,0.167 -0.351,0.25 -1.05,0.25 0.111,0.475 0.245,0.991 0.399,1.55 0.101,1.8 -1.033,2.9 -3.399,3.3 0.733,-0.466 1.316,-1.05 1.75,-1.75 0.399,-0.6 0.6,-1.1 0.6,-1.5 -0.566,0.934 -1.6,1.483 -3.1,1.65 -0.48,0 -0.771,-0.092 -0.875,-0.275 -0.983,0.851 -1.941,1.275 -2.875,1.275 -0.545,0 -1.004,-0.691 -1.375,-2.075 -0.129,0.141 -0.254,0.249 -0.375,0.325 -0.241,-0.138 -0.458,-0.305 -0.65,-0.5 0.021,0.284 0.046,0.576 0.075,0.875 0.09,0.929 0.257,1.903 0.5,2.925 h -0.025 c 4.367,4.733 9.55,10.483 15.55,17.25 4.52,5.099 8.094,11.015 10.726,17.75 6.149,29.101 1.908,56.533 -12.726,82.3 -0.899,1.601 -1.808,3.184 -2.725,4.75 -0.11,0.666 -0.202,1.333 -0.275,2 -0.125,0.418 -0.25,0.834 -0.375,1.25 0.596,3.284 1.521,10.251 2.775,20.9 1.267,11 1.9,17.533 1.9,19.6 0,0.267 -0.834,2.4 -2.5,6.4 -0.673,1.605 -1.348,3.172 -2.025,4.7 0.169,0.484 0.344,0.967 0.525,1.45 l 1.6,3.699 c 0.329,0.719 0.929,2.086 1.8,4.101 0.875,2.014 3.392,5.547 7.55,10.6 4.162,5.059 8.879,11.575 14.15,19.55 6.866,10.4 11.917,22.617 15.15,36.65 1.199,5.3 1.5,10.667 0.899,16.1 -1.366,12.233 -5.233,22.7 -11.6,31.4 -0.9,1.267 -1.834,2.517 -2.8,3.75 v -0.025 c -0.914,0.836 -1.839,1.661 -2.775,2.476 0.433,4.488 1.374,9.655 2.825,15.5 3.333,13.5 5.066,20.684 5.2,21.55 2.066,12.167 4.199,22.85 6.399,32.05 1.233,5.101 2.783,11 4.65,17.7 3.602,14.207 5.118,24.324 4.55,30.35 -0.567,6.028 -0.775,10.37 -0.625,13.025 0.129,0.11 0.263,0.219 0.4,0.325 13.338,10.036 23.638,25.67 30.899,46.899 7.337,21.449 12.104,55.149 14.3,101.101 2.041,7.082 4.541,11.799 7.5,14.149 0.327,0.501 0.652,1.001 0.976,1.5 1.133,1.801 2.633,3.167 4.5,4.101 3.7,10.133 1.45,18.6 -6.75,25.399 -6.467,5.301 -13.8,8.45 -22,9.45 -9.733,1.233 -19.55,1.9 -29.45,2 -7.934,0.601 -15.767,1.483 -23.5,2.65 -7.409,1.079 -14.751,1.046 -22.025,-0.101 -2.05,1.167 -4.074,1.75 -6.074,1.75 -1.767,0 -3.284,-0.333 -4.551,-1 -1.633,-0.899 -2.449,-2.267 -2.449,-4.1 0,-0.396 0.091,-0.787 0.274,-1.175 -0.284,-0.337 -0.542,-0.694 -0.774,-1.075 7.066,-5.366 14.75,-9.783 23.05,-13.25 12.6,-5.333 23.467,-13 32.6,-23 5.533,-6.1 7.983,-13.2 7.351,-21.3 -0.101,-1.467 -0.4,-2.9 -0.9,-4.3 -5.8,-15.467 -12,-30.75 -18.6,-45.851 -11.067,-25.2 -23.9,-49.583 -38.5,-73.149 -4.733,-1.134 -7.867,-4.267 -9.4,-9.4 -0.661,-2.202 -1.354,-4.395 -2.075,-6.575 -0.851,-0.753 -1.709,-1.578 -2.575,-2.475 -5.033,-5.233 -9.866,-12.267 -14.5,-21.101 -4.38,-8.364 -7.93,-17.039 -10.649,-26.024 -3.077,5.853 -6.177,11.611 -9.3,17.274 -11.467,17.434 -21.034,31.084 -28.7,40.95 -0.986,1.271 -1.97,2.521 -2.95,3.75 -0.19,1.521 -0.374,3.222 -0.55,5.101 -0.532,1.403 -0.882,3.471 -1.05,6.199 0,5.5 -1,11.25 -3,17.25 -1.134,3.233 -3.117,8.934 -5.95,17.101 -2.733,7.333 -5.417,13.133 -8.05,17.399 -4.634,7.5 -10.084,15.101 -16.351,22.801 -3.566,4.333 -8.5,10.083 -14.8,17.25 -5.066,5.899 -8.634,10.699 -10.7,14.399 -0.871,1.533 -1.604,3.05 -2.2,4.55 -2.814,3.986 -5.698,7.952 -8.649,11.9 -5.267,6.967 -8.55,14.767 -9.851,23.4 -1.199,7.8 -4.683,14.366 -10.449,19.699 -5.046,0.533 -9.887,0.066 -14.525,-1.399 -0.373,0.1 -0.781,0.149 -1.225,0.149 -9.188,-2.479 -16.363,-4.646 -21.525,-6.5 -1.952,0 -4.11,0 -6.475,0 -4.2,0 -8.767,-0.466 -13.7,-1.399 -2.327,-0.431 -5.211,-0.998 -8.65,-1.7 -3.212,-2.214 -6.229,-4.697 -9.05,-7.45 -2.634,-2.566 -5.717,-4.35 -9.25,-5.35 -3.866,-1.167 -6.217,-3.55 -7.05,-7.15 -0.867,-3.733 -0.65,-7.383 0.649,-10.95 0.139,-0.37 0.289,-0.712 0.45,-1.024 -0.267,-0.874 -0.399,-1.815 -0.399,-2.825 0,-5 2.533,-5.884 7.6,-2.65 1.667,1.067 3.417,2.467 5.25,4.2 0.449,0.412 0.833,0.778 1.15,1.101 6.152,1.035 12.419,1.035 18.8,0 10.267,-1.801 20.583,-3.067 30.95,-3.801 28.5,-30.633 47.199,-66.25 56.1,-106.85 2.033,-9.333 3.533,-18.733 4.5,-28.2 0.2,-2 0.3,-4 0.3,-6 0,-2.267 0.2,-4.517 0.601,-6.75 1.133,-6.467 2.449,-12.95 3.949,-19.45 0.367,-1.566 1.017,-3.017 1.95,-4.35 1.497,-2.185 2.805,-4.501 3.925,-6.95 -0.05,-1.149 -0.074,-2.383 -0.074,-3.7 0,-3.699 1.399,-13.116 4.199,-28.25 2.767,-14.833 4.617,-23.199 5.551,-25.1 4.366,-9.267 9.616,-18.017 15.75,-26.25 0.399,-0.711 0.949,-1.52 1.649,-2.425 -0.633,-2.972 -0.95,-5.997 -0.95,-9.075 0,-0.289 0.034,-0.589 0.101,-0.9 -0.134,-1.294 -0.2,-2.661 -0.2,-4.1 0,-5.228 4,-17.286 12,-36.175 -1.988,2.107 -3.771,3.966 -5.35,5.575 -3.683,3.747 -6.916,6.889 -9.7,9.425 -2.439,5.049 -3.423,10.457 -2.95,16.225 0.167,2.134 -0.167,4.15 -1,6.05 -3.634,8.467 -9.684,13.517 -18.15,15.15 -1.366,0.134 -2.55,-0.283 -3.55,-1.25 -4,-3.767 -6.066,-8.517 -6.2,-14.25 -0.166,-7.066 1.65,-13.517 5.45,-19.35 1.533,-2.301 3.3,-4.4 5.3,-6.301 2.233,-2.133 4.067,-4.583 5.5,-7.35 3.9,-7.566 7.534,-15.25 10.9,-23.05 1.066,-2.434 2.616,-4.617 4.65,-6.55 7.566,-7.134 13.583,-15.267 18.05,-24.4 0.934,-1.866 1.316,-3.884 1.149,-6.05 -0.399,-5.9 -0.8,-11.816 -1.199,-17.75 -0.4,-5.934 -0.134,-11.834 0.8,-17.7 1.666,-10.7 3.399,-21.366 5.2,-32 0.333,-1.866 0.35,-3.717 0.05,-5.55 -0.215,-1.285 0.269,-5.569 1.45,-12.851 -4.411,-4.477 -7.928,-8.568 -10.551,-12.274 -0.6,-0.851 -1.183,-1.709 -1.75,-2.575 -1.966,-2.967 -3.283,-6.217 -3.949,-9.75 l -0.5,-0.3 c -0.134,-0.367 -0.167,-0.684 -0.101,-0.95 1.233,-4.634 3.334,-9.033 6.3,-13.2 0.729,-1.074 1.278,-1.691 1.65,-1.85 10.887,-14.873 19.178,-26.981 24.875,-36.325 5.69,-9.337 9.266,-17.262 10.725,-23.775 -0.173,-1.017 -0.348,-2.034 -0.524,-3.05 l -1.425,-14.899 c 0,-0.934 -0.051,-1.867 -0.15,-2.801 -0.566,-5.733 -2.483,-8.816 -5.75,-9.25 -7.806,-0.644 -13.456,-1.818 -16.95,-3.524 -3.493,-1.708 -5.56,-3.033 -6.2,-3.976 -0.641,-0.944 -1.099,-1.694 -1.375,-2.25 -0.278,-0.556 -0.445,-1.239 -0.5,-2.05 -0.047,-0.81 -1.188,-1.593 -3.425,-2.35 -0.533,-0.948 -0.8,-1.715 -0.8,-2.3 0,-1.301 0.283,-2.233 0.85,-2.801 0.116,-0.103 0.233,-0.211 0.351,-0.324 -0.492,-0.337 -1.309,-0.961 -2.45,-1.875 0.016,-0.995 0.232,-1.803 0.65,-2.425 0.155,-1.347 0.405,-3.088 0.75,-5.225 0.009,-0.057 0.018,-0.115 0.024,-0.175 -1.495,-0.781 -2.762,-1.548 -3.8,-2.3 -0.008,-0.086 -0.016,-0.178 -0.025,-0.275 -0.084,-0.044 -0.167,-0.094 -0.25,-0.15 -0.899,-0.6 -1.35,-1.3 -1.35,-2.1 0,-0.823 0.358,-1.715 1.075,-2.675 0.004,-0.035 0.004,-0.068 0,-0.1 0.22,-0.427 0.444,-0.869 0.675,-1.325 2.967,-6.7 4.45,-10.066 4.45,-10.1 0,-0.158 -0.009,-0.299 -0.025,-0.425 0.121,-0.171 0.237,-0.347 0.351,-0.525 h -0.575 c -0.012,-0.019 -0.028,-0.036 -0.05,-0.05 -0.195,-0.167 -0.579,-0.268 -1.15,-0.3 0.066,-0.1 0.417,-0.183 1.05,-0.25 l 0.726,-0.125 c -0.017,-0.109 -0.025,-0.218 -0.025,-0.325 0,-0.739 0.05,-1.456 0.15,-2.15 -0.15,-0.296 -0.35,-0.646 -0.601,-1.05 -0.633,-0.967 -1.066,-1.45 -1.3,-1.45 -0.171,0.005 -0.338,0.005 -0.5,0 -0.408,-0.362 -0.758,-0.829 -1.05,-1.4 -0.467,-0.933 -0.7,-1.8 -0.7,-2.6 0,-2.271 0.7,-4.013 2.1,-5.225 0.498,-1.036 1.165,-2.044 2,-3.025 0.171,-0.2 0.338,-0.4 0.5,-0.6 1.211,-1.271 2.361,-2.53 3.45,-3.775 -0.1,-0.604 -0.149,-1.312 -0.149,-2.125 -0.233,-0.9 -0.233,-1.767 0,-2.6 0.17,-0.696 0.503,-1.246 1,-1.65 -0.053,-0.036 -0.103,-0.086 -0.15,-0.15 0.076,-0.716 0.519,-1.666 1.325,-2.85 -0.255,-0.06 -0.563,-0.193 -0.925,-0.4 -0.167,-0.1 -0.25,-0.233 -0.25,-0.4 v -0.45 c 0,-1.967 0.566,-3.633 1.699,-5 0.873,-1.036 2.114,-1.969 3.726,-2.8 0.223,-0.535 0.515,-1.052 0.875,-1.55 -0.053,-0.035 -0.103,-0.069 -0.15,-0.1 -1.434,-0.967 -2.149,-1.767 -2.149,-2.4 0.238,-0.637 0.521,-1.271 0.85,-1.9 0.071,-1.111 0.472,-1.745 1.2,-1.9 1.211,-1.667 2.394,-2.5 3.55,-2.5 0.226,0 0.417,0.067 0.575,0.2 0.174,-0.283 0.382,-0.533 0.625,-0.75 0.471,-0.43 1.054,-0.747 1.75,-0.95 0,-0.467 0.35,-1.033 1.05,-1.7 0.767,-0.7 1.583,-1.117 2.45,-1.25 0.566,-0.066 1.217,0.233 1.95,0.9 0.8,0.7 1.333,1.05 1.6,1.05 0.7,-0.067 1.217,-0.067 1.55,0 0.106,0.016 0.206,0.042 0.296,0.075 z m 6.4,-2.926 c 0.061,0 0.145,0.042 0.25,0.125 l 0.75,0.025 c 0,-0.1 0.033,-0.15 0.1,-0.15 v -0.85 c 0,0.034 -0.183,0.15 -0.55,0.35 -0.298,0.189 -0.506,0.356 -0.625,0.5 0.024,0 0.049,0 0.075,0 z m -0.9,-0.65 c 0,0.4 0.051,0.583 0.15,0.55 0.5,-0.267 1.033,-0.617 1.6,-1.05 l -0.25,-0.2 c -0.533,0 -0.933,0.1 -1.199,0.3 -0.2,0.134 -0.301,0.267 -0.301,0.4 z m -1.024,1.851 c -0.027,-0.037 -0.052,-0.07 -0.075,-0.1 -0.176,0 -0.393,0.092 -0.65,0.275 0.161,0.17 0.361,0.295 0.601,0.375 0.066,-0.167 0.116,-0.25 0.149,-0.25 l -0.025,-0.3 z m 1.825,-0.351 0.149,0.1 c -0.026,-0.023 -0.052,-0.048 -0.075,-0.075 l -0.05,-0.025 h -0.024 z m -0.7,0.8 c -0.014,0.042 -0.03,0.083 -0.05,0.125 v 0.05 c 0.196,0.015 0.43,0.023 0.699,0.025 -0.232,-0.068 -0.448,-0.134 -0.649,-0.2 z m -1.026,0.75 c -0.239,-0.157 -0.622,-0.399 -1.149,-0.725 l -0.025,0.025 c 0.016,0.187 0.132,0.42 0.35,0.7 0.22,0.283 0.47,0.433 0.75,0.45 0.02,-0.151 0.046,-0.301 0.074,-0.45 z M 204.92,9.066 v 0.025 c 0,0.31 0.059,0.635 0.176,0.975 0.146,-0.035 0.306,-0.077 0.475,-0.125 -0.317,-0.295 -0.534,-0.587 -0.651,-0.875 z m -0.5,0.875 -0.05,0.025 h 0.05 V 9.941 z m -0.375,0.726 c -0.007,0.062 -0.016,0.12 -0.024,0.175 h 0.274 l 0.025,-0.025 c -0.077,-0.09 -0.169,-0.14 -0.275,-0.15 z m 3.375,0.174 c 0.334,0.467 0.5,0.883 0.5,1.25 h 0.15 v -0.45 c 0,-0.434 -0.1,-0.75 -0.3,-0.95 -0.166,0.034 -0.283,0.084 -0.35,0.15 z m -0.225,1.6 c 0.083,-0.324 0.125,-0.574 0.125,-0.75 -0.088,0.056 -0.188,0.123 -0.3,0.2 0.016,0.183 0.032,0.283 0.05,0.3 0.02,0.068 0.062,0.152 0.125,0.25 z m -0.65,-0.125 c -0.063,0.065 -0.13,0.132 -0.199,0.2 0.182,0.183 0.381,0.417 0.6,0.7 0.006,-0.017 0.015,-0.033 0.025,-0.05 -0.02,-0.025 -0.036,-0.05 -0.051,-0.075 -0.15,-0.279 -0.275,-0.537 -0.375,-0.775 z m 0.051,2 c -0.218,-0.245 -0.468,-0.678 -0.75,-1.3 -0.029,0.028 -0.055,0.053 -0.075,0.075 -0.086,0.086 -0.17,0.169 -0.25,0.25 -0.016,0.655 0.002,1.206 0.05,1.65 0.297,-0.119 0.613,-0.252 0.95,-0.4 0.023,-0.083 0.047,-0.174 0.075,-0.275 z m -2.825,-0.25 c -0.057,0.271 -0.123,0.579 -0.2,0.925 0.159,0.003 0.317,0.012 0.475,0.025 -0.031,-0.127 -0.072,-0.269 -0.125,-0.425 -0.073,-0.216 -0.123,-0.391 -0.15,-0.525 z m 0.049,1.675 c -0.129,-0.034 -0.262,-0.059 -0.4,-0.075 -0.014,0.093 -0.03,0.185 -0.05,0.275 0.14,-0.069 0.29,-0.136 0.45,-0.2 z m -6.5,-7.25 c 0.066,0 0.1,0.25 0.1,0.75 h 0.851 l -0.2,-0.15 c -0.066,-0.167 -0.233,-0.367 -0.5,-0.6 -0.1,-0.033 -0.184,-0.033 -0.251,0 z m -2.4,0.7 c -0.648,0.472 -1.007,0.913 -1.074,1.325 0.401,-0.05 0.834,-0.067 1.3,-0.05 1.144,-1.226 1.852,-1.934 2.125,-2.125 -0.8,0 -1.584,0.284 -2.351,0.85 z m -1.199,3.3 c -0.194,0.088 -0.411,0.188 -0.65,0.3 -0.552,0.227 -0.91,0.436 -1.075,0.625 0.404,-0.048 1.046,-0.24 1.925,-0.575 -0.067,-0.117 -0.134,-0.234 -0.2,-0.35 z m -0.426,-0.875 c -0.112,0.032 -0.237,0.074 -0.375,0.125 -0.533,0.2 -0.899,0.383 -1.1,0.55 0.455,0 0.972,-0.158 1.55,-0.475 -0.024,-0.071 -0.05,-0.138 -0.075,-0.2 z m 3.051,-1.074 c 0.067,-0.084 0.126,-0.151 0.175,-0.2 l 0.05,-0.1 c -0.128,0.073 -0.27,0.165 -0.425,0.275 0.069,0.009 0.136,0.017 0.2,0.025 z m -0.526,1.5 c -0.139,0.066 -0.306,0.167 -0.5,0.3 0.304,-0.082 0.521,-0.098 0.65,-0.05 0.002,0.026 0.002,0.051 0,0.075 0.057,-0.099 0.106,-0.208 0.149,-0.325 h -0.299 z m 1.475,1.875 c -0.078,-0.002 -0.153,-0.002 -0.225,0 -0.019,0.025 -0.035,0.05 -0.05,0.075 l 0.175,0.025 c 0.034,-0.034 0.067,-0.067 0.1,-0.1 z m -3.574,-0.375 c 0.141,-0.142 0.291,-0.241 0.449,-0.3 l -0.024,-0.025 c -0.059,0.026 -0.117,0.051 -0.175,0.075 -0.186,0.072 -0.353,0.147 -0.5,0.225 l 0.25,0.025 z m 1.25,1.024 c -0.219,-0.339 -0.418,-0.665 -0.601,-0.975 -0.344,0.447 -0.835,0.748 -1.475,0.9 0.116,0.254 0.175,0.521 0.175,0.8 h 1.475 c 0.145,-0.251 0.287,-0.493 0.426,-0.725 z m -4.901,-0.85 c 0.09,-0.314 0.198,-0.606 0.325,-0.875 -0.215,0.161 -0.657,0.561 -1.325,1.2 0.326,-0.126 0.659,-0.235 1,-0.325 z m 3.151,3.15 v -0.075 c -0.023,0.022 -0.048,0.048 -0.075,0.075 h 0.075 z m -2.401,6.575 c 0,0.02 0.033,0.095 0.1,0.225 0.059,0.042 0.108,0.083 0.15,0.125 l 0.125,-0.4 c -0.139,0.006 -0.264,0.023 -0.375,0.05 z m 7.5,-5.424 c 0.007,0.036 0.016,0.069 0.025,0.1 0.032,-0.041 0.066,-0.083 0.1,-0.125 -0.041,0.008 -0.082,0.016 -0.125,0.025 z m -12.275,-0.475 c -0.161,-0.128 -0.328,-0.262 -0.5,-0.4 -0.383,0.54 -0.574,1.023 -0.574,1.45 0,0.533 0.066,0.867 0.199,1 0.233,0.067 0.417,0.133 0.551,0.2 l 0.25,-0.1 c -0.167,-0.533 -0.15,-1.217 0.05,-2.05 0.004,-0.022 0.013,-0.056 0.024,-0.1 z m -0.699,7.225 c 0.061,-0.674 0.21,-1.324 0.449,-1.95 -0.493,0.237 -1.068,0.646 -1.725,1.225 -0.6,0.5 -1.267,1.133 -2,1.9 0.552,-0.083 0.984,-0.15 1.3,-0.2 -0.033,-0.058 -0.05,-0.125 -0.05,-0.2 0.599,-0.068 1.157,-0.185 1.675,-0.35 0.117,-0.147 0.234,-0.289 0.351,-0.425 z m -1.375,1.4 c 0,0.086 0,0.178 0,0.275 0.058,-0.073 0.116,-0.147 0.175,-0.225 -0.063,-0.013 -0.122,-0.03 -0.175,-0.05 z m 0.899,0.225 c -0.027,-0.004 -0.052,-0.013 -0.075,-0.025 -0.23,0.248 -0.506,0.548 -0.824,0.9 0,0.088 0,0.18 0,0.275 -0.023,0.11 -0.049,0.219 -0.075,0.325 0.198,-0.264 0.456,-0.547 0.774,-0.85 0.058,-0.194 0.125,-0.403 0.2,-0.625 z m -0.399,1.349 c -0.219,0.164 -0.344,0.439 -0.375,0.825 0.119,-0.135 0.244,-0.269 0.375,-0.4 0.002,-0.133 0.019,-0.283 0.05,-0.45 -0.019,0.007 -0.036,0.015 -0.05,0.025 z m -1,-1.3 c -0.767,0.2 -1.4,0.867 -1.9,2 l 0.8,0.075 c 0.294,-0.394 0.577,-0.769 0.851,-1.125 0.097,-0.296 0.181,-0.613 0.249,-0.95 z m -2.551,3.101 c -0.033,0.133 -0.017,0.433 0.051,0.9 0.296,0.066 0.688,0.032 1.175,-0.1 -0.392,-0.228 -0.616,-0.444 -0.675,-0.65 0.126,-0.17 0.251,-0.337 0.375,-0.5 -0.04,0 -0.082,0 -0.125,0 -0.534,-0.001 -0.801,0.116 -0.801,0.35 z m 1.15,-0.101 c 0.277,0.238 0.494,0.463 0.65,0.675 0.202,-0.248 0.411,-0.49 0.625,-0.725 l -0.025,-0.35 c 0,-0.124 0.025,-0.257 0.075,-0.4 -0.269,0.256 -0.627,0.423 -1.075,0.5 -0.08,0.099 -0.163,0.199 -0.25,0.3 z m 0.401,1 h -0.075 c 0.01,0.027 0.018,0.052 0.024,0.075 0.018,-0.028 0.034,-0.053 0.051,-0.075 z m 3.474,2.025 c -0.451,0.234 -0.993,0.434 -1.625,0.6 -0.552,0.3 -0.835,0.533 -0.85,0.7 0.338,-0.042 1.104,-0.2 2.3,-0.475 0.026,-0.036 0.051,-0.069 0.075,-0.1 0.034,-0.252 0.067,-0.494 0.1,-0.725 z m -3.875,4.975 c 0.066,-0.267 0.033,-0.4 -0.1,-0.4 -0.867,0.867 -1.434,1.55 -1.7,2.05 -0.2,0.333 -0.3,0.717 -0.3,1.15 0,0.111 0,0.22 0,0.325 0.71,-0.814 1.394,-1.623 2.05,-2.425 -0.255,-0.072 -0.321,-0.188 -0.2,-0.35 0.134,0.001 0.217,-0.116 0.25,-0.35 z m 0.875,-1.899 c 0.259,-0.249 0.592,-0.507 1,-0.775 -0.689,0.033 -1.432,0.275 -2.225,0.725 -0.733,0.434 -1.317,0.917 -1.75,1.45 l 0.6,0.1 c 0.3,-0.467 0.533,-0.817 0.7,-1.05 0.3,-0.433 0.783,-0.7 1.45,-0.8 0.063,0.031 0.138,0.147 0.225,0.35 z m 109.35,-7.226 c 0.076,0.072 0.151,0.147 0.226,0.225 -0.211,0.129 -0.461,0.32 -0.75,0.575 0.348,0.309 0.605,0.709 0.774,1.2 0.269,0.212 0.544,0.454 0.825,0.725 0.111,0.104 0.22,0.204 0.325,0.3 0.217,-0.486 0.325,-0.953 0.325,-1.4 0,-0.7 -0.316,-1.183 -0.95,-1.45 -0.238,-0.1 -0.497,-0.158 -0.775,-0.175 z m -0.574,2.576 c 0.194,0.42 0.353,0.753 0.475,1 0.05,-0.116 0.075,-0.216 0.075,-0.3 0,-0.106 0,-0.198 0,-0.275 -0.088,-0.2 -0.195,-0.408 -0.325,-0.625 h -0.325 c 0.033,0.064 0.067,0.131 0.1,0.2 z m -1.75,0.125 c 0.317,0.197 0.617,0.472 0.899,0.825 0.367,0.5 0.584,0.783 0.65,0.85 v -0.25 c -0.338,-0.562 -0.854,-1.046 -1.55,-1.45 v 0.025 z m 4.8,4.674 c -0.634,-0.1 -0.967,-0.1 -1,0 v 0.8 c 0.119,0.49 0.194,1.048 0.225,1.675 0.088,0.058 0.196,0.099 0.325,0.125 l 0.25,-0.1 c 0.133,-0.433 0.2,-1.266 0.2,-2.5 z m -5.05,0.9 c -0.074,0.113 -0.149,0.247 -0.226,0.4 0.017,0.086 0.025,0.17 0.025,0.25 0,0.07 0,0.136 0,0.2 0.124,0.087 0.232,0.196 0.325,0.325 0.136,-0.163 0.228,-0.321 0.274,-0.475 -0.154,-0.103 -0.254,-0.336 -0.3,-0.7 -0.036,0.003 -0.069,0.003 -0.098,0 z m 0.8,1.176 c 0.068,-0.081 0.135,-0.164 0.2,-0.25 -0.067,-0.029 -0.134,-0.054 -0.2,-0.075 v 0.325 z m 1.599,3.025 c 0,0.433 0.066,0.767 0.2,1 v -1.85 c -0.133,0.133 -0.2,0.416 -0.2,0.85 z m 1.401,-1.576 c -0.649,-0.521 -1.258,-0.938 -1.825,-1.25 -0.05,0.09 -0.107,0.182 -0.175,0.275 -0.008,0.083 -0.016,0.184 -0.025,0.3 0.861,0.281 1.453,0.881 1.775,1.8 0.133,-0.431 0.217,-0.806 0.25,-1.125 z m -4.05,-1.174 h -0.2 c -0.029,-0.047 -0.062,-0.097 -0.101,-0.15 -0.04,0.163 -0.09,0.337 -0.149,0.525 h 0.05 c 0.204,-0.145 0.38,-0.287 0.525,-0.425 -0.026,-0.05 -0.06,-0.1 -0.101,-0.15 -10e-4,0.117 -0.01,0.184 -0.024,0.2 z m 1.175,4.225 c 0.06,0.017 0.101,0.025 0.125,0.025 0.033,-0.133 0.083,-0.233 0.149,-0.3 l 0.101,-0.05 0.024,-0.525 c -0.121,0.329 -0.255,0.612 -0.399,0.85 z m 1.099,1.4 c -0.22,-0.086 -0.52,-0.094 -0.899,-0.025 -0.097,0.154 -0.196,0.304 -0.301,0.45 l -0.024,0.5 c 0.068,0.123 0.135,0.239 0.2,0.35 0.417,-0.375 0.75,-0.775 1,-1.2 0.011,-0.022 0.02,-0.047 0.024,-0.075 z m -0.399,-0.875 c 0.241,0.126 0.449,0.268 0.625,0.425 0.024,-0.061 0.05,-0.119 0.074,-0.175 h -0.024 l 0.024,-0.025 c 0.017,-0.079 0.025,-0.154 0.025,-0.225 0,-0.533 -0.05,-0.817 -0.15,-0.85 -0.066,0 -0.116,0.033 -0.149,0.1 l -0.425,0.75 z m 1.099,4.174 c -0.135,-0.09 -0.285,-0.173 -0.45,-0.25 -0.129,0.209 -0.263,0.392 -0.399,0.55 v 0.05 c 0.4,-0.25 0.625,-0.375 0.675,-0.375 0.054,0 0.112,0.009 0.174,0.025 z m -2.474,0.451 -0.025,0.025 c 0.055,-0.011 0.104,-0.02 0.15,-0.025 v -0.025 c -0.044,0.007 -0.086,0.015 -0.125,0.025 z m 0.599,-0.15 c -0.032,0.006 -0.065,0.014 -0.1,0.025 l -0.025,0.075 c 0.04,-0.012 0.082,-0.029 0.125,-0.05 v -0.05 z m 3.675,4.949 c -0.364,0.153 -0.673,0.562 -0.925,1.225 0.344,-0.203 0.635,-0.403 0.875,-0.6 0.016,-0.197 0.033,-0.405 0.05,-0.625 z m -1.625,-1.525 0.2,-0.625 c -0.136,0.147 -0.285,0.331 -0.45,0.55 0.015,0.042 0.031,0.084 0.05,0.125 0.07,-0.019 0.137,-0.036 0.2,-0.05 z m -2.45,0.076 0.301,0.025 0.05,-0.35 c -0.08,0.018 -0.155,0.034 -0.226,0.05 -0.043,0.085 -0.085,0.177 -0.125,0.275 z m -0.6,2.275 c -0.357,0.204 -0.683,0.504 -0.975,0.9 0.024,0.032 0.049,0.065 0.074,0.1 0.07,0.093 0.137,0.201 0.2,0.325 0.202,-0.469 0.436,-0.86 0.7,-1.175 v -0.15 z m 1.25,0.899 c -0.047,0.106 -0.097,0.223 -0.15,0.35 -0.102,0.264 -0.193,0.514 -0.274,0.75 0.244,0.169 0.527,0.386 0.85,0.65 0.021,-0.41 0.037,-0.827 0.05,-1.25 -0.154,-0.173 -0.313,-0.339 -0.476,-0.5 z m -0.549,1.75 -0.05,-0.025 c -0.012,0.027 -0.02,0.052 -0.025,0.075 0.032,-0.022 0.057,-0.039 0.075,-0.05 z m 1.7,0.576 c 0.633,0.562 0.949,0.971 0.949,1.225 0,0.299 -0.017,0.583 -0.05,0.85 0.02,0.032 0.036,0.065 0.05,0.1 0.127,-0.268 0.244,-0.542 0.351,-0.825 -0.346,-0.836 -0.771,-1.604 -1.275,-2.3 -0.009,0.325 -0.017,0.641 -0.025,0.95 z m -0.051,0.924 c 0.016,0.016 0.032,0.032 0.051,0.05 l 0.024,0.025 c -0.015,-0.082 -0.039,-0.14 -0.075,-0.175 -0.002,0.033 -0.002,0.066 0,0.1 z m 2.601,-1.049 0.3,-0.1 c 0.333,-0.733 0.566,-1.233 0.7,-1.5 v -0.1 c -0.134,0.067 -0.334,0.283 -0.601,0.65 -0.086,0.13 -0.17,0.255 -0.25,0.375 -0.041,0.232 -0.092,0.457 -0.149,0.675 z m 2.799,4.9 -2,-0.1 c -0.5,0 -0.816,0.067 -0.95,0.2 -0.057,0.042 -0.106,0.076 -0.149,0.1 0.081,0.092 0.147,0.208 0.199,0.35 0.101,0.233 0.15,0.733 0.15,1.5 0,0.288 -0.009,0.555 -0.025,0.8 0.021,0.034 0.046,0.067 0.075,0.1 0.045,-0.034 0.096,-0.067 0.15,-0.1 0.681,-0.422 1.223,-0.614 1.625,-0.575 0.75,-0.59 1.125,-1.098 1.125,-1.525 0,-0.533 -0.033,-0.817 -0.101,-0.85 -0.032,-10e-4 -0.065,0.033 -0.099,0.1 z m -2.5,4.399 v -0.05 c -0.011,0.022 -0.019,0.047 -0.025,0.075 l 0.025,-0.025 z m -3.674,-3.174 c 0.271,-0.245 0.496,-0.47 0.675,-0.675 v -0.05 c -0.214,0.085 -0.414,0.21 -0.6,0.375 -0.045,0.067 -0.087,0.134 -0.125,0.2 0.015,0.047 0.032,0.097 0.05,0.15 z m 1.049,-1.85 c 0.041,0.019 0.083,0.036 0.125,0.05 -0.002,-0.073 -0.002,-0.148 0,-0.225 -0.041,0.059 -0.083,0.118 -0.125,0.175 z m 0.55,4.699 c 0.006,0.062 0.014,0.12 0.025,0.175 l 0.25,-0.1 c 0.06,-0.148 0.109,-0.332 0.149,-0.55 -0.148,0.141 -0.29,0.299 -0.424,0.475 z m -1.425,-1.525 c 0,0.025 0.009,0.067 0.025,0.125 0.108,-0.262 0.2,-0.52 0.274,-0.775 -0.09,0.042 -0.19,0.134 -0.3,0.275 10e-4,0.121 10e-4,0.246 10e-4,0.375 z m -1.75,2.1 0.2,-0.15 c -0.127,0.051 -0.252,0.101 -0.375,0.15 0.044,-0.001 0.086,-0.001 0.125,0 l 0.024,0.025 0.026,-0.025 z m 1.375,0.675 c -0.068,-0.214 -0.11,-0.439 -0.125,-0.675 l -0.05,0.6 c 0.011,0.034 0.07,0.059 0.175,0.075 z m -0.325,1.426 c 0.064,0.127 0.123,0.269 0.175,0.425 0.191,-0.075 0.357,-0.142 0.5,-0.2 0.059,-0.163 0.117,-0.321 0.176,-0.475 -0.257,0.007 -0.541,0.09 -0.851,0.25 z m -1,0.875 c -0.036,-0.036 -0.069,-0.069 -0.1,-0.1 -0.028,0.061 -0.062,0.12 -0.101,0.175 0.067,-0.022 0.134,-0.047 0.201,-0.075 z m 2.651,-2.375 c -0.049,-0.02 -0.099,-0.044 -0.15,-0.075 -0.01,0.031 -0.018,0.064 -0.024,0.1 0.054,-0.011 0.113,-0.019 0.174,-0.025 z m 0.049,0 c 0.048,0.117 0.099,0.242 0.15,0.375 0.05,-0.166 0.107,-0.324 0.175,-0.475 -0.106,0.033 -0.214,0.066 -0.325,0.1 z m 0.076,3.274 c -0.211,0.055 -0.52,0.197 -0.925,0.425 -0.118,0.056 -0.234,0.106 -0.351,0.15 -0.013,0.068 -0.029,0.135 -0.05,0.2 -0.004,0.123 -0.013,0.24 -0.025,0.35 h 0.025 c 0.648,-0.378 1.099,-0.704 1.35,-0.975 -0.007,-0.048 -0.016,-0.097 -0.024,-0.15 z m 1.25,0.175 c 0.377,-0.146 0.752,-0.579 1.125,-1.3 0.399,-1.1 0.666,-1.733 0.8,-1.9 v -0.1 l -2.025,2.975 c 0.03,0.107 0.063,0.216 0.1,0.325 z m -0.776,1.276 c -0.184,0.062 -0.416,0.153 -0.7,0.275 -0.506,0.22 -0.948,0.37 -1.324,0.45 l -0.025,0.05 c 0.765,-0.065 1.489,-0.032 2.175,0.1 0.104,-0.179 0.188,-0.379 0.25,-0.6 -0.074,0 -0.148,0 -0.225,0 -0.056,-0.089 -0.106,-0.18 -0.151,-0.275 z m -2.8,-0.326 h 0.2 c 0.013,-0.066 0.021,-0.132 0.024,-0.2 -0.076,0.041 -0.15,0.074 -0.225,0.1 10e-4,0.036 10e-4,0.07 10e-4,0.1 z m -0.349,0.851 c -0.178,0.244 -0.411,0.51 -0.7,0.8 -0.124,0.124 -0.24,0.241 -0.351,0.35 0.098,0.237 0.265,0.454 0.5,0.65 l 0.025,0.025 c 0.14,-0.2 0.281,-0.409 0.425,-0.625 0.195,-0.293 0.346,-0.626 0.45,-1 -0.109,-0.039 -0.225,-0.106 -0.349,-0.2 z m 6.349,-3.601 c -0.134,0.2 -0.45,0.833 -0.95,1.9 -0.316,0.54 -0.675,0.932 -1.075,1.175 0.351,1.228 0.525,2.236 0.525,3.025 0,0.108 0.075,0.408 0.225,0.9 0.588,-1.945 0.896,-2.962 0.926,-3.05 0.399,-1.5 0.6,-2.817 0.6,-3.95 h -0.251 z m -1.424,9.601 h -0.875 c -0.109,0.327 -0.234,0.661 -0.375,1 0.453,-0.274 0.912,-0.558 1.375,-0.85 -0.031,-0.05 -0.073,-0.101 -0.125,-0.15 z m -3.625,-4.5 c 0.44,-0.066 0.815,-0.183 1.125,-0.35 -0.098,-0.083 -0.206,-0.167 -0.325,-0.25 -0.369,0.103 -0.686,0.312 -0.95,0.625 0.045,-0.01 0.096,-0.018 0.15,-0.025 z m -0.851,1.35 c -0.034,0.109 -0.068,0.226 -0.1,0.35 -0.027,0.128 -0.061,0.253 -0.1,0.375 0.447,-0.138 0.864,-0.414 1.25,-0.825 l 0.6,-0.75 0.2,-0.1 c -0.233,0.033 -0.684,0.25 -1.351,0.65 -0.18,0.104 -0.347,0.204 -0.499,0.3 z m 3.101,-0.701 c -0.246,0.259 -0.68,0.709 -1.3,1.35 -0.767,0.833 -1.483,1.25 -2.15,1.25 -0.084,0 -0.168,0 -0.25,0 -0.071,0.503 -0.171,1.086 -0.3,1.75 1.669,-0.976 2.811,-1.667 3.425,-2.075 0.417,-0.706 0.625,-1.414 0.625,-2.125 -0.001,-0.041 -0.017,-0.091 -0.05,-0.15 z m -1.951,7.125 c 0.048,-0.092 0.098,-0.183 0.15,-0.275 0.152,-0.253 0.294,-0.494 0.425,-0.725 -0.277,0.255 -0.552,0.58 -0.825,0.975 l 0.25,0.025 z m -1.549,-2.375 c -0.281,-0.094 -0.448,-0.219 -0.5,-0.375 -0.162,0.913 -0.371,1.972 -0.625,3.175 0.326,-0.996 0.918,-1.913 1.774,-2.75 -0.201,-0.007 -0.418,-0.024 -0.649,-0.05 z m 0.349,1.15 c -0.7,1.233 -1.05,2.383 -1.05,3.45 0,0.833 0.066,1.05 0.2,0.65 0.538,-0.609 1.063,-1.309 1.575,-2.1 h -0.025 c -0.333,0 -0.5,-0.217 -0.5,-0.65 0,-0.467 0.267,-0.85 0.8,-1.15 0.357,-0.184 0.716,-0.375 1.075,-0.575 0.196,-0.395 0.346,-0.753 0.45,-1.075 -0.311,0.262 -0.895,0.387 -1.75,0.375 -0.264,0.294 -0.523,0.651 -0.775,1.075 z m 2.651,1.35 c 0.666,-0.667 1.083,-1.133 1.25,-1.4 -0.362,-0.13 -0.696,-0.189 -1,-0.175 -0.252,0.504 -0.535,1.012 -0.851,1.525 l 0.601,0.05 z m 1.25,1 c -1.2,-0.1 -1.834,0.033 -1.9,0.4 -0.133,0.667 -0.25,1.033 -0.35,1.1 0.033,0.233 0.283,0.4 0.75,0.5 0.333,-0.167 0.916,-0.667 1.75,-1.5 l -0.25,-0.5 z m 1.049,-2.399 v -0.1 c -0.167,0.167 -0.583,0.617 -1.25,1.35 l 1,0.5 c 0.066,-0.067 0.217,-0.467 0.45,-1.2 l -0.2,-0.55 z m -4.25,6.75 c 0.667,-0.1 1.167,-0.383 1.5,-0.85 0.467,-0.533 0.384,-0.683 -0.25,-0.45 -0.6,0.233 -1.1,0.583 -1.5,1.05 l 0.25,0.25 z M 226.07,2.491 c -0.333,0.333 -0.533,0.733 -0.6,1.2 l 1.1,-0.75 c -0.033,-0.1 -0.2,-0.25 -0.5,-0.45 z m 1.55,-1.55 c -0.733,-0.133 -1.116,0.2 -1.149,1 l 0.75,0.55 h 1.1 v -0.15 c 0.233,-0.799 -0.001,-1.266 -0.701,-1.4 z m -7.599,0.9 v -0.1 c -0.101,0.067 -0.217,0.133 -0.351,0.2 -0.133,0.1 -0.199,0.267 -0.199,0.5 0,0.433 0.199,0.7 0.6,0.8 v -1.25 l -0.05,-0.15 z m -0.75,1.6 c -0.267,-0.133 -0.434,-0.067 -0.5,0.2 -0.101,0.367 -0.167,0.55 -0.2,0.55 l 0.95,0.25 c 0.033,0.333 0.05,0.283 0.05,-0.15 0,-0.233 -0.05,-0.417 -0.15,-0.55 -0.101,-0.166 -0.15,-0.266 -0.15,-0.3 z m -0.25,2.5 -1,0.05 c 0,0.567 0.166,1.05 0.5,1.45 l 0.05,-0.1 c 0.267,-0.5 0.417,-0.95 0.45,-1.35 v -0.05 z m 3.274,1.275 c 0.117,-0.162 0.242,-0.329 0.375,-0.5 -0.316,0.109 -0.601,0.267 -0.85,0.475 0.137,0.055 0.295,0.063 0.475,0.025 z m 1.5,-1.924 v 0.175 l 0.226,-0.025 c 0.053,-0.007 0.104,-0.015 0.149,-0.025 0.181,-0.175 0.331,-0.384 0.45,-0.625 -0.238,0.122 -0.514,0.288 -0.825,0.5 z m 1.051,-1.25 c 0.187,-0.905 0.328,-1.438 0.425,-1.6 -0.919,0.062 -1.419,0.77 -1.5,2.125 0.333,-0.165 0.691,-0.339 1.075,-0.525 z M 210.07,5.741 c 0.027,-0.028 0.052,-0.053 0.075,-0.075 -0.035,0.002 -0.061,0.01 -0.075,0.025 v 0.05 z m 1.951,1.975 c -0.019,0.007 -0.035,0.016 -0.05,0.025 -0.059,0.058 -0.117,0.141 -0.176,0.25 0.072,-0.064 0.147,-0.123 0.226,-0.175 v -0.1 z m 1.099,-0.775 c -0.075,0.017 -0.142,0.042 -0.2,0.075 0.086,-0.024 0.169,-0.049 0.25,-0.075 h -0.05 z m -3.95,0.4 c -0.041,-0.007 -0.082,-0.015 -0.125,-0.025 0.047,0.02 0.089,0.036 0.125,0.05 V 7.341 z m 1.625,0.051 c -0.029,-0.182 -0.054,-0.348 -0.074,-0.5 -0.158,0.181 -0.283,0.356 -0.375,0.525 0.154,-0.008 0.303,-0.017 0.449,-0.025 z m 0.7,-0.1 c 0.396,-0.388 0.82,-0.655 1.275,-0.8 0.7,-0.1 1.05,-0.216 1.05,-0.35 0,-0.2 -0.017,-0.35 -0.05,-0.45 -0.755,-0.129 -1.413,-0.046 -1.976,0.25 l -0.299,1.35 z m 6.026,-2.9 c 0,-0.034 0.166,-0.267 0.5,-0.7 -0.367,0.167 -0.934,0.633 -1.7,1.4 0.433,-0.101 0.832,-0.334 1.2,-0.7 z m -0.451,3.849 c 0.2,-0.033 0.5,-0.167 0.9,-0.4 -0.434,-0.566 -0.65,-1.1 -0.65,-1.6 -0.066,0.067 -0.4,0.317 -1,0.75 l 0.75,1.25 z m -3.474,-0.55 c 0.06,-0.358 0.118,-0.608 0.175,-0.75 h -0.5 c 0,0.233 0.1,0.483 0.3,0.75 h 0.025 z m 0.875,2.025 c 0.041,0.017 0.074,0.025 0.1,0.025 0.667,-0.333 1.15,-0.683 1.45,-1.05 h -1.275 c -0.062,0.275 -0.137,0.559 -0.225,0.85 -0.019,0.058 -0.036,0.116 -0.05,0.175 z m -4.426,1.025 c -0.029,0.02 -0.055,0.037 -0.074,0.05 0.017,0.025 0.033,0.05 0.05,0.075 v -0.025 c 0.004,-0.031 0.012,-0.064 0.024,-0.1 z m 0.875,-0.15 c -0.032,-0.016 -0.065,-0.033 -0.1,-0.05 0.005,0.177 0.055,0.377 0.15,0.6 0.026,0.057 0.051,0.116 0.074,0.175 0.017,-0.095 0.025,-0.187 0.025,-0.275 0.001,-0.233 -0.048,-0.383 -0.149,-0.45 z m 26.301,-7.9 c -0.107,0.214 -0.225,0.673 -0.351,1.375 0.084,0.085 0.167,0.177 0.25,0.275 0.069,0.083 0.136,0.167 0.2,0.25 0,-0.053 0,-0.103 0,-0.15 0,-0.733 -0.033,-1.3 -0.1,-1.7 v -0.05 z m -1,0.5 c -0.032,0.011 -0.065,0.019 -0.101,0.025 0.024,0.026 0.05,0.051 0.075,0.075 0.009,-0.036 0.018,-0.069 0.026,-0.1 z m -1.401,0.05 h -1.2 c 0.12,0.22 0.32,0.47 0.601,0.75 0.087,-0.07 0.32,-0.287 0.699,-0.65 -0.034,-0.039 -0.068,-0.072 -0.1,-0.1 z m 0.75,-0.55 c 0.226,-0.226 0.476,-0.476 0.75,-0.75 -0.934,-0.867 -1.684,-1.05 -2.25,-0.55 -0.224,0.223 -0.382,0.49 -0.475,0.8 h 1.375 c 0.176,0.118 0.377,0.285 0.6,0.5 z m -3.174,-0.5 h 0.1 c 0.217,-0.49 0.325,-0.907 0.325,-1.25 l -0.425,1.25 z m -0.901,1.05 h -1.524 c 0.432,0.637 0.79,1.162 1.074,1.575 0.167,-0.406 0.309,-0.865 0.426,-1.375 0.003,-0.064 0.011,-0.13 0.024,-0.2 z m 7.825,2.801 0.2,0.15 c 0.033,0.1 0.267,0.15 0.7,0.15 2.066,-1.1 3.316,-1.733 3.75,-1.9 l 0.1,-0.1 c -1.366,0.067 -2.384,0.217 -3.05,0.45 -0.276,0.097 -0.534,0.222 -0.775,0.375 -0.285,0.25 -0.594,0.542 -0.925,0.875 z m 4.25,2.449 c 0.266,-0.011 0.49,-0.119 0.675,-0.325 -0.236,-0.146 -0.461,-0.304 -0.675,-0.475 0,0.1 -0.083,0.35 -0.25,0.75 0.086,0.017 0.169,0.034 0.25,0.05 z m -1.849,-0.55 c 0.433,-0.633 1.066,-1.383 1.899,-2.25 0.102,-0.105 0.201,-0.205 0.3,-0.3 -0.389,0.128 -0.872,0.328 -1.449,0.6 -1.134,0.5 -1.7,0.817 -1.7,0.95 0,0.633 0.184,1.05 0.55,1.25 0.044,0.026 0.094,0.051 0.15,0.075 0.095,-0.113 0.178,-0.222 0.25,-0.325 z m -1.7,-0.5 -0.7,0.5 c 0.566,0.3 0.983,0.517 1.25,0.65 v -0.15 l -0.55,-1 z m -0.451,-0.5 -0.3,-0.1 c -0.279,-0.019 -0.529,-0.002 -0.75,0.05 -0.274,0.295 -0.558,0.612 -0.851,0.95 -0.031,0.037 -0.064,0.07 -0.1,0.1 0.008,0.167 0.024,0.25 0.05,0.25 0.033,-0.033 0.101,-0.033 0.2,0 0.3,0.033 0.65,-0.133 1.05,-0.5 0.368,-0.399 0.602,-0.649 0.701,-0.75 z m 5.75,-0.1 c -0.008,0.041 -0.016,0.082 -0.025,0.125 0.012,0.18 0.237,0.338 0.676,0.475 0.033,0.033 0.066,0.033 0.1,0 v -0.45 c -0.033,-0.2 -0.05,-0.383 -0.05,-0.55 -0.401,0.067 -0.634,0.201 -0.701,0.4 z m 2,-1.299 c -0.203,-0.111 -0.395,-0.203 -0.575,-0.275 -0.064,0.051 -0.14,0.109 -0.225,0.175 0.033,0.233 0.217,0.4 0.55,0.5 0.049,-0.022 0.091,-0.047 0.125,-0.075 0.039,-0.106 0.081,-0.214 0.125,-0.325 z m -1.549,3.399 c -0.341,-0.127 -0.666,-0.278 -0.976,-0.45 -0.113,0.06 -0.222,0.126 -0.324,0.2 l 0.1,0.05 c 0.533,0.133 0.917,0.2 1.15,0.2 h 0.05 z m -1.276,0.726 c 0.123,-0.01 0.215,-0.035 0.275,-0.075 l -0.25,-0.075 c -0.011,0.044 -0.019,0.093 -0.025,0.15 z m -0.25,-0.025 c 0.021,-0.072 0.038,-0.138 0.05,-0.2 h -0.725 c 0.134,0.1 0.333,0.167 0.6,0.2 0.022,0.002 0.048,0.002 0.075,0 z m 4.175,-2.076 c 0.239,-0.078 0.48,-0.186 0.726,-0.325 -0.069,-0.167 -0.186,-0.342 -0.351,-0.525 -0.119,0.268 -0.244,0.552 -0.375,0.85 z m -3.649,3.275 h 0.274 l 0.226,-0.225 c 0.031,-0.173 0.073,-0.364 0.125,-0.575 -0.096,0.058 -0.188,0.125 -0.275,0.2 -0.233,0.2 -0.35,0.367 -0.35,0.5 0,0.036 0,0.07 0,0.1 z m -5,-0.15 c 0.166,0.033 0.434,-0.05 0.8,-0.25 l 0.05,-0.025 c 0.054,-0.201 0.104,-0.384 0.15,-0.55 -0.318,-0.011 -0.535,0.064 -0.65,0.225 -0.3,0.367 -0.483,0.567 -0.55,0.6 h 0.2 z m 0.549,1.226 c 0.021,-0.222 0.071,-0.506 0.15,-0.85 -0.489,0.096 -1.015,0.238 -1.575,0.425 0.026,0.034 0.051,0.067 0.075,0.1 0.079,0.106 0.146,0.206 0.199,0.3 0.311,0.033 0.577,0.05 0.801,0.05 l 0.35,-0.025 z m 1.901,-1.451 c -0.014,0.043 -0.03,0.085 -0.051,0.125 -0.166,0.333 -0.283,0.717 -0.35,1.15 h 0.925 l 0.226,-0.25 -0.75,-0.75 v -0.275 z m 1,0.025 c 0.11,0.055 0.21,0.114 0.3,0.175 l 0.2,-0.325 c -0.238,-0.17 -0.455,-0.27 -0.65,-0.3 0.005,0.237 0.055,0.387 0.15,0.45 z M 228.92,4.741 c -0.029,0.478 0.004,0.844 0.101,1.1 h 0.05 v -1.05 c 0.089,0.341 0.272,0.641 0.55,0.9 0.382,-0.082 0.748,-0.123 1.101,-0.125 0.043,-0.081 0.084,-0.164 0.125,-0.25 -0.642,-0.617 -1.283,-0.85 -1.926,-0.7 -0.001,0.042 -0.001,0.084 -0.001,0.125 z m 0.525,2.075 c -0.033,0.057 -0.066,0.115 -0.1,0.175 0.11,0.028 0.186,0.061 0.225,0.1 0.033,0.167 0.1,0.333 0.2,0.5 0.025,0 0.05,0 0.075,0 0.044,-0.362 0.127,-0.687 0.25,-0.975 -0.185,0.055 -0.402,0.121 -0.65,0.2 z m 4.125,-0.375 c 0.167,-0.967 0.25,-1.7 0.25,-2.2 0,-0.033 -0.167,-0.033 -0.5,0 -0.026,0.402 -0.11,1.119 -0.25,2.15 0.16,0.034 0.327,0.059 0.5,0.075 V 6.441 z m -3,1.701 c 0.011,0.141 0.069,0.283 0.175,0.425 0.118,-0.145 0.227,-0.336 0.325,-0.575 v -0.05 c -0.175,-0.001 -0.341,0.066 -0.5,0.2 z m 0.35,-1.151 c 0.141,-0.12 0.24,-0.22 0.301,-0.3 l -0.125,-0.075 c -0.063,0.109 -0.121,0.234 -0.176,0.375 z m 5.025,-2.55 c -0.036,-0.047 -0.078,-0.097 -0.125,-0.15 -0.173,-0.2 -0.331,-0.375 -0.475,-0.525 -0.024,0.023 -0.049,0.048 -0.075,0.075 -0.3,0.333 -0.45,0.55 -0.45,0.65 0,0.312 0.083,0.912 0.25,1.8 0.143,-0.047 0.292,-0.098 0.45,-0.15 0.051,-0.02 0.101,-0.037 0.149,-0.05 0.054,-0.294 0.104,-0.611 0.15,-0.95 0.05,-0.255 0.092,-0.488 0.126,-0.7 z m -1.174,1.925 -0.2,-1.275 c -0.19,0.521 -0.291,0.98 -0.3,1.375 0.137,-0.016 0.304,-0.05 0.5,-0.1 z m 1.899,-0.925 c -0.009,0.075 -0.018,0.149 -0.024,0.225 0.045,-0.028 0.086,-0.053 0.125,-0.075 -0.021,-0.057 -0.055,-0.124 -0.101,-0.2 v 0.05 z m -0.225,1.226 c -0.162,0.63 -0.379,1.13 -0.65,1.5 0.376,-0.403 0.677,-0.787 0.9,-1.15 0.05,-0.113 0.075,-0.221 0.075,-0.325 -0.077,-0.045 -0.185,-0.053 -0.325,-0.025 z m -1,0.399 c -0.06,0.033 -0.117,0.067 -0.175,0.1 0.013,0.09 0.029,0.182 0.05,0.275 0.041,-0.115 0.082,-0.24 0.125,-0.375 z m 14.326,-5.625 -0.95,0.5 0.5,0.25 c 0.1,0 0.184,-0.033 0.25,-0.1 0.066,-0.066 0.116,-0.1 0.15,-0.1 l 0.05,-0.55 z m 9.799,2.5 -0.35,-0.1 0.1,1.85 c 0.066,0 0.134,-0.033 0.2,-0.1 l 0.05,-0.15 v -1.5 z m 0.576,3.826 c -0.05,-0.301 -0.075,-0.526 -0.075,-0.675 -0.091,0.045 -0.391,0.404 -0.9,1.075 0.317,-0.148 0.641,-0.281 0.975,-0.4 z m 1.325,-0.475 c 0.166,-0.434 0.199,-0.717 0.1,-0.85 h -0.85 l 0.024,1.125 c 0.223,-0.064 0.447,-0.123 0.675,-0.175 0.02,-0.035 0.037,-0.068 0.051,-0.1 z m 6.75,5.649 0.05,1.05 h 0.149 c 0.167,-0.2 0.25,-0.55 0.25,-1.05 h -0.449 z m -1.5,0.8 c 0,0.185 0,0.334 0,0.45 0.272,0.167 0.589,0.25 0.949,0.25 v -0.2 l -0.149,-1.3 c -0.029,-0.205 -0.288,-0.014 -0.775,0.575 -0.017,0.077 -0.025,0.152 -0.025,0.225 z m -1.851,0.975 c -0.102,-0.007 -0.235,0.001 -0.399,0.025 0.051,0.254 0.217,0.546 0.5,0.875 0.079,-0.007 0.163,-0.015 0.25,-0.025 -0.038,-0.178 -0.08,-0.345 -0.125,-0.5 -0.089,-0.119 -0.164,-0.244 -0.226,-0.375 z m 0.401,1.225 c -0.004,-0.025 -0.004,-0.05 0,-0.075 -0.029,0 -0.054,0 -0.075,0 0.024,0.025 0.049,0.05 0.075,0.075 z m -1.151,0.226 c 0.192,0.084 0.385,0.168 0.575,0.25 l -0.475,-0.425 c -0.04,0.011 -0.082,0.02 -0.125,0.025 0.009,0.054 0.018,0.104 0.025,0.15 z m 2.3,-0.176 c 0.058,0.11 0.141,0.227 0.25,0.35 0.012,-0.033 0.028,-0.058 0.051,-0.075 v -0.025 c -0.039,-0.073 -0.081,-0.148 -0.125,-0.225 -0.064,-0.013 -0.122,-0.021 -0.176,-0.025 z m -4.85,-0.8 c 0.032,-0.193 -0.076,-0.135 -0.325,0.175 0.104,0.015 0.213,0.032 0.325,0.05 v -0.225 z m -11.7,-10.75 c 0.233,0.3 0.351,0.567 0.351,0.8 0,0.279 -0.067,0.737 -0.2,1.375 0.082,-0.072 0.166,-0.147 0.25,-0.225 0.177,-0.196 0.343,-0.379 0.5,-0.55 -0.004,-0.747 -0.037,-1.23 -0.101,-1.45 -0.099,-0.346 -0.265,-0.596 -0.5,-0.75 -0.096,0.212 -0.204,0.462 -0.324,0.75 0.004,0.018 0.012,0.034 0.024,0.05 z m -0.2,0.326 c -0.177,0.396 -0.377,0.847 -0.6,1.35 0.144,0.149 0.285,0.307 0.425,0.475 0.011,-0.037 0.02,-0.07 0.025,-0.1 0.133,-0.633 0.2,-1.05 0.2,-1.25 0.001,-0.176 -0.016,-0.334 -0.05,-0.475 z m 1.551,1.674 c 0.123,-0.307 0.306,-0.541 0.55,-0.7 -0.217,0.042 -0.417,0.108 -0.601,0.2 0.016,0.159 0.032,0.326 0.051,0.5 z m 0.55,-0.1 c -0.028,0.308 -0.07,0.607 -0.125,0.9 0.063,-0.079 0.122,-0.162 0.175,-0.25 v -0.8 l -0.05,0.15 z m 0.299,-0.35 v 0.525 c 0.1,-0.266 0.15,-0.541 0.15,-0.825 -0.128,0.004 -0.253,0.013 -0.375,0.025 l 0.225,0.275 z m 1.8,3.2 c 0.533,-0.633 0.9,-1.283 1.101,-1.95 -0.451,-0.125 -0.901,-0.042 -1.351,0.25 0.037,0.554 0.062,1.179 0.075,1.875 0.066,-0.059 0.123,-0.117 0.175,-0.175 z m -2.149,-0.549 c -0.102,0.01 -0.201,0.035 -0.301,0.075 0.068,0.067 0.135,0.134 0.2,0.2 0.026,-0.088 0.059,-0.18 0.101,-0.275 z m -1,-1.401 c 0.029,-0.18 0.046,-0.538 0.05,-1.075 -0.315,0.243 -0.582,0.568 -0.8,0.975 0.19,0.203 0.374,0.402 0.55,0.6 0.09,-0.178 0.157,-0.345 0.2,-0.5 z m -0.101,2.375 -0.3,0.575 h 1 v -0.25 l -0.425,-0.625 c -0.087,0.13 -0.179,0.23 -0.275,0.3 z m 5.401,-3.074 c -0.134,0.233 -0.2,0.467 -0.2,0.7 0,0.267 0.233,0.667 0.7,1.2 -0.134,-0.5 -0.2,-1.25 -0.2,-2.25 -0.034,0.066 -0.134,0.183 -0.3,0.35 z m 0.299,-1.101 c 0.267,-0.1 0.483,-0.283 0.65,-0.55 0.199,-0.333 0.316,-0.517 0.35,-0.55 v -0.1 l -1.05,1.1 0.05,0.1 z m 2.25,-1.25 c -0.134,0.067 -0.467,0.367 -1,0.9 0.3,0.1 0.45,0.35 0.45,0.75 h 0.25 c 0.133,-0.066 0.217,-0.15 0.25,-0.25 0.033,-0.066 0.05,-0.267 0.05,-0.6 v -0.8 z m -1.5,2.4 c 0.167,-0.133 0.25,-0.35 0.25,-0.65 v -0.1 c -0.233,0.1 -0.316,0.35 -0.25,0.75 z m 0.651,1.85 c 0.533,-0.333 0.8,-0.983 0.8,-1.95 -0.334,-0.066 -0.55,0.184 -0.65,0.75 -0.034,0.334 -0.084,0.734 -0.15,1.2 z m -2.651,0.951 c -0.467,0.033 -0.9,0.233 -1.3,0.6 0.303,0 0.636,0.067 1,0.2 h 1.05 v -0.2 c 0,-0.434 -0.25,-0.634 -0.75,-0.6 z m -0.099,1.474 c 0.132,0.027 0.248,0.061 0.35,0.1 v -0.025 c -0.098,-0.028 -0.189,-0.053 -0.275,-0.075 -0.029,0.002 -0.054,0.002 -0.075,0 z m 0.149,0.6 0.05,-0.025 c 0.034,-0.067 0.084,-0.1 0.15,-0.1 v -0.15 c -0.177,-0.203 -0.469,-0.287 -0.875,-0.25 0.166,0.115 0.392,0.29 0.675,0.525 z m -1.2,0.975 c 0.189,0.138 0.397,0.288 0.625,0.45 0.063,-0.167 0.139,-0.333 0.226,-0.5 -0.052,-0.037 -0.102,-0.07 -0.15,-0.1 l -0.725,0.1 c 0.01,0.016 0.019,0.032 0.024,0.05 z m 1.976,1.351 c 0.027,-0.022 0.052,-0.047 0.075,-0.075 -0.022,0.016 -0.048,0.033 -0.075,0.05 v 0.025 z m -0.151,0.549 c 0.028,0.107 0.045,0.216 0.05,0.325 0.071,0.07 0.138,0.136 0.2,0.2 0.217,-0.206 0.325,-0.481 0.325,-0.825 l -0.025,-0.25 c -0.166,0.16 -0.341,0.319 -0.524,0.475 -0.012,0.023 -0.021,0.048 -0.026,0.075 z m 22.175,1.201 c -0.033,-0.033 -0.1,-0.1 -0.199,-0.2 -1.003,0.094 -1.595,0.394 -1.775,0.9 0.686,0.265 1.252,0.599 1.7,1 0.217,-0.303 0.325,-0.686 0.325,-1.15 0,-0.3 -0.017,-0.484 -0.051,-0.55 z m -3.125,-1.625 c -0.197,-0.069 -0.438,-0.061 -0.725,0.025 -0.866,0.26 -1.357,0.81 -1.475,1.65 0.252,0.004 0.511,0.021 0.774,0.05 0.241,0.03 0.475,0.063 0.7,0.1 0.267,-0.133 0.434,-0.233 0.5,-0.3 0.026,0.143 0.051,0.276 0.075,0.4 0.324,0.078 0.633,0.161 0.925,0.25 v -0.25 c 0,-0.412 -0.033,-0.762 -0.1,-1.05 0.233,0.278 0.35,0.461 0.35,0.55 0.833,-0.267 1.25,-0.7 1.25,-1.3 0,-0.2 -0.25,-0.434 -0.75,-0.7 -0.6,-0.3 -1.184,-0.267 -1.75,0.1 0.072,0.162 0.147,0.321 0.226,0.475 z m -5.574,-2.226 c -0.212,0.055 -0.412,0.113 -0.601,0.175 0.235,0.104 0.435,0.204 0.601,0.3 0,-0.155 0,-0.314 0,-0.475 z m 1.05,1.101 c -0.033,0.333 0.017,0.983 0.149,1.95 -0.161,0.485 -0.678,0.827 -1.55,1.025 0.415,0.042 0.782,0.101 1.101,0.175 0.06,-0.021 0.118,-0.038 0.175,-0.05 0.059,-0.053 0.117,-0.104 0.175,-0.15 0.467,-0.333 0.7,-0.517 0.7,-0.55 0,-1.067 -0.233,-1.95 -0.7,-2.65 l -0.05,0.25 z m -0.925,3.85 c -0.394,0.122 -0.685,0.305 -0.875,0.55 -0.057,0.079 -0.106,0.187 -0.15,0.325 0.41,-0.083 0.859,-0.241 1.35,-0.475 0.154,-0.074 0.296,-0.14 0.426,-0.2 -0.297,0.093 -0.639,0.159 -1.025,0.2 0.091,-0.132 0.191,-0.265 0.3,-0.4 h -0.026 z m 2.05,-0.151 c 0.104,-0.024 0.213,-0.041 0.325,-0.05 -0.184,-0.011 -0.358,-0.019 -0.525,-0.025 0.04,0.027 0.082,0.052 0.125,0.075 0.024,0.003 0.048,0.003 0.075,0 z m 1.024,0.6 h -0.024 l 0.024,0.025 v -0.025 z m -0.25,0.15 c 0.019,0.013 0.035,0.03 0.051,0.05 0.027,-0.001 0.053,-0.001 0.074,0 -0.025,-0.054 -0.05,-0.104 -0.074,-0.15 -0.027,0.004 -0.053,0.012 -0.075,0.025 0.009,0.022 0.018,0.047 0.024,0.075 z m 1.65,-0.75 h -0.55 l 0.7,0.75 c 0.067,-0.017 0.168,-0.067 0.3,-0.15 l -0.3,-0.575 -0.15,-0.025 z m -0.65,0.6 c -0.087,-0.058 -0.195,-0.066 -0.324,-0.025 0.111,0.103 0.27,0.203 0.475,0.3 -0.046,-0.094 -0.095,-0.186 -0.151,-0.275 z m 0.875,1.125 c 0.062,-0.01 0.119,-0.018 0.176,-0.025 l -0.101,-0.05 c -0.027,0.024 -0.053,0.049 -0.075,0.075 z m -0.375,0.551 c 0.089,0.305 0.156,0.663 0.2,1.075 0.423,-0.1 0.79,-0.15 1.101,-0.15 l 0.05,-0.2 c -0.134,-0.2 -0.283,-0.466 -0.45,-0.8 h -0.85 c -0.015,0.023 -0.032,0.048 -0.051,0.075 z m -0.25,-0.776 c 0,-0.1 -0.008,-0.2 -0.024,-0.3 -0.146,-0.096 -0.329,-0.221 -0.55,-0.375 0.028,0.065 0.054,0.132 0.074,0.2 0.173,0.113 0.322,0.279 0.45,0.5 l 0.05,-0.025 z m 0.5,3.1 h 0.101 c 0.265,-0.042 0.515,-0.142 0.75,-0.3 0.057,-0.11 0.106,-0.227 0.149,-0.35 -0.303,-0.171 -0.644,-0.263 -1.024,-0.275 0.017,0.253 0.024,0.528 0.024,0.825 0,0.038 0,0.071 0,0.1 z m 2.226,-3.5 c -0.05,-0.236 -0.141,-0.394 -0.275,-0.475 0.025,0.151 0.059,0.309 0.101,0.475 h 0.174 z m 0.399,0 h 0.625 c -0.178,-0.143 -0.478,-0.276 -0.899,-0.4 0.11,0.136 0.202,0.269 0.274,0.4 z m -0.524,0.6 0.149,0.15 c 0.008,0.037 0.016,0.078 0.025,0.125 0.017,-0.08 0.025,-0.155 0.025,-0.225 -0.065,-0.018 -0.131,-0.034 -0.199,-0.05 z m -1.3,0.05 c 0.24,0.352 0.59,0.81 1.05,1.375 0.136,-0.232 0.244,-0.458 0.325,-0.675 -0.547,-0.667 -0.905,-1 -1.075,-1 -0.184,0 -0.325,0.1 -0.425,0.3 h 0.125 z m 3.899,0.276 c 0.171,0.371 0.288,0.771 0.351,1.2 0.276,-0.229 0.526,-0.554 0.75,-0.975 0.267,-0.566 0.366,-0.983 0.3,-1.25 -0.533,-0.033 -0.983,0.284 -1.351,0.95 -0.018,0.027 -0.034,0.052 -0.05,0.075 z m -1.899,-0.225 c -0.017,0.095 -0.059,0.303 -0.125,0.625 0.086,0.081 0.187,0.165 0.3,0.25 0.35,-0.271 0.524,-0.579 0.524,-0.925 v -0.05 c -0.205,0.072 -0.439,0.105 -0.699,0.1 z m 1.599,1.649 -0.05,0.025 c 0.029,0.035 0.062,0.06 0.1,0.075 -0.016,-0.042 -0.033,-0.075 -0.05,-0.1 z m 0.276,2.3 c 0.545,-0.096 1.187,-0.163 1.925,-0.2 l -0.45,-0.35 c -0.331,-0.425 -0.689,-0.7 -1.075,-0.825 -0.042,0.472 -0.176,0.93 -0.4,1.375 z m -1.176,-1.4 c -0.049,0.17 -0.082,0.354 -0.1,0.55 0,0.4 0.066,0.767 0.2,1.1 0.058,-0.02 0.116,-0.036 0.175,-0.05 0.17,-0.318 0.295,-0.568 0.375,-0.75 -0.203,-0.295 -0.395,-0.579 -0.575,-0.85 -0.022,0.003 -0.048,0.003 -0.075,0 z m -0.449,1.4 0.05,-0.4 v -0.35 l -0.05,-0.025 c -0.087,0.083 -0.221,0.226 -0.4,0.425 -0.189,0.162 -0.364,0.27 -0.525,0.325 v 0.025 l 0.926,0.1 v -0.1 z m -0.551,1.7 c -0.096,0.009 -0.195,0.018 -0.3,0.025 0.005,0.071 0.013,0.138 0.025,0.2 0.1,0.057 0.191,0.116 0.274,0.175 0.03,0.022 0.055,0.047 0.075,0.075 -0.031,-0.176 -0.056,-0.334 -0.074,-0.475 z m -0.75,0.9 c -0.533,-0.267 -0.949,-0.4 -1.25,-0.4 0.022,0.097 0.048,0.197 0.075,0.3 0.462,0.072 0.862,0.247 1.2,0.525 0.115,-0.062 0.231,-0.129 0.35,-0.2 -0.11,-0.077 -0.235,-0.151 -0.375,-0.225 z m 2.45,-1.85 c 0.424,0.193 0.815,0.418 1.175,0.675 0.328,-0.285 0.729,-0.335 1.2,-0.15 0.017,-0.158 0.025,-0.316 0.025,-0.475 -1.187,-0.237 -1.979,-0.262 -2.375,-0.075 l -0.025,0.025 z m 0.55,1.776 c -0.329,-0.239 -0.679,-0.456 -1.05,-0.65 -0.018,0.053 -0.034,0.112 -0.05,0.175 0.379,0.339 0.704,0.631 0.975,0.875 0.033,-0.134 0.075,-0.268 0.125,-0.4 z m -1.1,0.424 c -0.033,0.067 -0.033,0.233 0,0.5 v 0.05 c 0.021,0.058 0.038,0.116 0.05,0.175 0.067,0.254 0.067,0.512 0,0.775 0.102,0.1 0.251,0.15 0.45,0.15 0.233,0 0.366,-0.033 0.4,-0.1 v -0.15 c -0.008,-0.042 -0.017,-0.084 -0.025,-0.125 l -0.025,-0.025 h 0.025 c -0.021,-0.17 -0.03,-0.345 -0.025,-0.525 -0.345,-0.285 -0.562,-0.494 -0.649,-0.625 l -0.201,-0.1 z m 1.475,2.425 c 0.064,0.046 0.131,0.096 0.2,0.15 v -0.05 c -0.054,-0.069 -0.112,-0.144 -0.175,-0.225 l -0.05,-0.05 c 0.001,0.059 0.008,0.117 0.025,0.175 z m -1.524,0.125 c 0.27,0.783 0.736,1.533 1.399,2.25 l 0.101,-0.15 c 0,-0.097 0,-0.197 0,-0.3 0,-0.11 0,-0.219 0,-0.325 -0.098,-0.088 -0.197,-0.18 -0.3,-0.275 -0.214,-0.183 -0.438,-0.517 -0.676,-1 -0.18,-0.087 -0.355,-0.153 -0.524,-0.2 z m -1.476,-2.125 c 0.061,-0.017 0.119,-0.025 0.176,-0.025 h 0.05 v -0.1 c -0.092,0 -0.191,0.008 -0.3,0.025 0.028,0.031 0.052,0.064 0.074,0.1 z m -3.975,-0.625 c -0.075,0.054 -0.142,0.104 -0.2,0.15 0.109,0.125 0.21,0.258 0.3,0.4 0.099,-0.146 0.207,-0.271 0.325,-0.375 -0.125,-0.07 -0.266,-0.128 -0.425,-0.175 z m 12.951,-0.949 c -1.066,-0.533 -2.3,-0.95 -3.7,-1.25 h -0.25 c 0.456,0.752 0.756,1.402 0.9,1.95 0.057,0.072 0.115,0.147 0.175,0.225 0.614,-0.147 1.322,-0.206 2.125,-0.175 0.312,0.01 0.62,0.026 0.925,0.05 l -0.175,-0.8 z m 0,2.399 c 0.114,0.025 0.272,0.017 0.475,-0.025 -0.074,-0.029 -0.267,-0.054 -0.575,-0.075 0.031,0.033 0.064,0.066 0.1,0.1 z m -4.101,-1.7 -0.05,-0.075 c -0.043,0.069 -0.084,0.152 -0.125,0.25 0.051,-0.058 0.109,-0.116 0.175,-0.175 z m -0.55,-0.525 c -0.102,0.021 -0.193,0.047 -0.274,0.075 0.065,0.061 0.133,0.119 0.199,0.175 0.026,-0.079 0.051,-0.163 0.075,-0.25 z m 2.95,2.225 0.2,-0.15 c -0.142,0.033 -0.283,0.067 -0.425,0.1 0.043,0.069 0.084,0.135 0.125,0.2 0.036,-0.052 0.069,-0.102 0.1,-0.15 z m -1.299,1.05 c 0.192,-0.041 0.376,-0.082 0.55,-0.125 0.035,-0.031 0.068,-0.064 0.1,-0.1 -0.013,-0.017 -0.029,-0.025 -0.05,-0.025 l -0.35,-0.05 c -0.102,0.042 -0.193,0.092 -0.275,0.15 0.012,0.05 0.021,0.1 0.025,0.15 z m -2.8,-1.724 c 0.104,0.094 0.179,0.161 0.225,0.2 0.044,-0.015 0.11,-0.057 0.2,-0.125 0.022,-0.038 0.048,-0.079 0.075,-0.125 -0.152,-0.162 -0.311,-0.32 -0.476,-0.475 -0.017,0.114 -0.024,0.23 -0.024,0.35 0,0.068 0,0.126 0,0.175 z m 4.675,5.275 c 0.212,-0.026 0.429,-0.051 0.649,-0.075 0.011,-0.014 0.02,-0.03 0.025,-0.05 -0.161,-0.011 -0.336,-0.011 -0.525,0 l -0.149,0.125 z m -0.476,1.949 c -0.109,-0.004 -0.218,-0.013 -0.324,-0.025 0.109,0.332 0.334,0.766 0.675,1.3 0,-0.026 0,-0.051 0,-0.075 0,-0.428 -0.066,-0.769 -0.2,-1.025 -0.051,-0.061 -0.101,-0.119 -0.151,-0.175 z m -1.649,0.6 -0.05,-0.1 c 0,0.047 0,0.106 0,0.175 0.033,-0.01 0.066,-0.018 0.1,-0.025 -0.02,-0.019 -0.037,-0.036 -0.05,-0.05 z m -0.951,0.35 h 0.15 c -0.02,-0.082 -0.053,-0.166 -0.101,-0.25 -0.014,0.093 -0.03,0.176 -0.049,0.25 z m 4.6,0.851 c -0.069,-0.051 -0.136,-0.101 -0.199,-0.15 -0.237,0.114 -0.521,0.28 -0.851,0.5 0.044,0.061 0.086,0.119 0.125,0.175 0.382,-0.186 0.69,-0.361 0.925,-0.525 z m -0.05,0.875 c 0.106,-0.109 0.173,-0.184 0.2,-0.225 -0.144,0.054 -0.285,0.113 -0.425,0.175 0.076,0.014 0.15,0.03 0.225,0.05 z m 2.95,1.424 c 0.109,0.004 0.209,0.012 0.3,0.025 -0.036,-0.047 -0.069,-0.097 -0.1,-0.15 -0.068,0.04 -0.134,0.082 -0.2,0.125 z m -0.424,0.35 c 0.05,0.22 0.075,0.47 0.075,0.75 0,0.187 -0.009,0.362 -0.025,0.525 0.164,-0.066 0.339,-0.124 0.525,-0.175 0.103,-0.396 0.186,-0.779 0.25,-1.15 -0.21,-0.047 -0.443,-0.064 -0.7,-0.05 -0.042,0.035 -0.084,0.069 -0.125,0.1 z m -0.375,2.875 c -0.088,0.126 -0.179,0.243 -0.275,0.35 0.062,0.004 0.128,0.004 0.2,0 l 0.075,-0.35 z m -0.3,0.375 c -0.107,0.119 -0.224,0.219 -0.351,0.3 -0.017,0.037 -0.033,0.07 -0.05,0.1 0.078,0.285 0.203,0.519 0.375,0.7 l 0.25,-1.075 c -0.08,-0.013 -0.154,-0.021 -0.224,-0.025 z m -2.426,-2.299 c 0.032,0.006 0.065,0.014 0.101,0.025 0.041,-0.044 0.083,-0.086 0.125,-0.125 v -0.05 c -0.028,-0.079 -0.054,-0.154 -0.075,-0.225 -0.05,0.106 -0.099,0.231 -0.151,0.375 z m 1.325,-0.526 c -0.053,0.191 -0.103,0.408 -0.149,0.65 l 0.05,-0.075 c 0.034,-0.208 0.067,-0.399 0.099,-0.575 z m -2.149,-1.425 v -0.1 c -0.064,0.052 -0.123,0.118 -0.176,0.2 0.004,0.079 0.004,0.163 0,0.25 0.098,-0.174 0.155,-0.291 0.176,-0.35 z m -1.5,4.15 0.55,-0.125 c -0.174,-0.097 -0.341,-0.18 -0.5,-0.25 -0.017,0.116 -0.034,0.241 -0.05,0.375 z m -2.051,-0.65 -0.05,-0.075 c 0.01,0.024 0.019,0.049 0.025,0.075 h 0.025 z m -21.725,-23.5 v 0.025 c 0.101,0.011 0.192,0.002 0.275,-0.025 -0.023,-0.034 -0.057,-0.068 -0.101,-0.1 -0.055,0.037 -0.113,0.07 -0.174,0.1 z m 0.826,1.9 c -0.04,0.028 -0.081,0.053 -0.125,0.075 0.015,0.031 0.031,0.064 0.05,0.1 0.025,-0.058 0.05,-0.116 0.075,-0.175 z m 3.375,-1.475 c 0.014,0.046 0.03,0.096 0.05,0.15 h 0.05 l -0.05,-0.2 c -0.021,0.016 -0.038,0.033 -0.05,0.05 z m 4.2,0.676 c 0.046,-0.089 0.096,-0.172 0.149,-0.25 -0.021,-0.048 -0.046,-0.098 -0.075,-0.15 -0.072,0.104 -0.155,0.22 -0.25,0.35 0.057,0.013 0.115,0.03 0.176,0.05 z m -0.176,-0.551 c -0.138,0.131 -0.271,0.256 -0.399,0.375 0.068,0.027 0.135,0.052 0.2,0.075 0.074,-0.169 0.141,-0.319 0.199,-0.45 z m 1.051,-0.074 c 0.054,0.104 0.112,0.213 0.175,0.325 0.167,-0.26 0.392,-0.493 0.675,-0.7 -0.133,-0.023 -0.274,-0.048 -0.425,-0.075 0.027,0.028 0.053,0.053 0.075,0.075 -0.113,-0.025 -0.222,-0.058 -0.325,-0.1 h -0.125 c 0.011,0.144 -0.005,0.303 -0.05,0.475 z m 14.849,25.024 c 0.077,0.155 0.286,0.288 0.625,0.4 -0.116,-0.315 -0.175,-0.482 -0.175,-0.5 0,-0.099 0,-0.199 0,-0.3 -0.238,0.037 -0.405,0.086 -0.5,0.15 l 0.05,0.25 z m 0.901,-0.475 c 0,0.096 0,0.188 0,0.275 0,0.165 0.017,0.323 0.05,0.475 l 0.05,-0.725 c -0.021,-0.01 -0.054,-0.018 -0.1,-0.025 z m -0.276,1.6 c -0.054,-0.046 -0.112,-0.087 -0.175,-0.125 h -0.2 c 0.07,0.194 0.129,0.452 0.175,0.775 0.022,-0.245 0.088,-0.461 0.2,-0.65 z m 1.05,-1.799 c -0.068,-0.034 -0.135,-0.068 -0.2,-0.1 0.05,0.35 0.134,0.658 0.25,0.925 0.083,-0.161 0.183,-0.327 0.301,-0.5 -0.132,-0.114 -0.248,-0.222 -0.351,-0.325 z m 0.7,0.625 c -0.071,-0.061 -0.139,-0.119 -0.2,-0.175 -0.065,0.14 -0.123,0.29 -0.175,0.45 0.121,-0.033 0.255,-0.066 0.4,-0.1 -0.011,-0.058 -0.019,-0.116 -0.025,-0.175 z m 0.076,0.775 c -0.105,0.03 -0.205,0.063 -0.3,0.1 0.101,0.12 0.218,0.229 0.35,0.325 -0.019,-0.14 -0.036,-0.282 -0.05,-0.425 z m -0.75,1.074 c 0.021,0.116 0.045,0.232 0.075,0.35 0.28,0.026 0.522,0.068 0.725,0.125 -0.044,-0.076 -0.094,-0.142 -0.15,-0.2 l -0.65,-0.275 z m 4.649,-1.724 c 0.51,-0.244 0.909,-0.719 1.2,-1.425 -0.458,0.128 -0.883,0.328 -1.274,0.6 -0.086,0.238 -0.145,0.504 -0.176,0.8 0.088,0.005 0.172,0.013 0.25,0.025 z m -0.725,-0.076 c 0.12,-0.158 0.203,-0.299 0.25,-0.425 -0.11,0.11 -0.252,0.252 -0.425,0.425 0.063,0.003 0.122,0.003 0.175,0 z m -1.849,7.425 c 0.018,0.027 0.034,0.06 0.05,0.1 0.01,-0.036 0.018,-0.069 0.024,-0.1 h -0.074 z m 2.599,0.301 c -0.059,0.297 -0.101,0.556 -0.125,0.775 h 0.025 c 0.062,-0.237 0.137,-0.487 0.225,-0.75 l -0.125,-0.025 z m -1.849,0.75 c -0.017,-0.199 -0.025,-0.408 -0.025,-0.625 -0.097,0.138 -0.172,0.305 -0.225,0.5 0.077,0.041 0.16,0.083 0.25,0.125 z m -0.301,0.324 c 0.063,0.088 0.181,0.221 0.351,0.4 10e-4,-0.034 10e-4,-0.067 0,-0.1 l -0.351,-0.325 v 0.025 z m 0.95,0.426 c 0.032,0.026 0.065,0.06 0.101,0.1 -0.037,-0.083 -0.07,-0.167 -0.101,-0.25 -10e-4,0.053 -10e-4,0.103 0,0.15 z m 0.026,0.574 c 0.016,0.017 0.032,0.034 0.05,0.05 v -0.1 l -0.05,-0.05 c -0.001,0.034 -0.001,0.067 0,0.1 z m -0.951,-0.5 v 0.05 h 0.05 c -0.018,-0.018 -0.035,-0.034 -0.05,-0.05 z m 0.975,1.1 -0.024,-0.025 v 0.05 l 0.024,-0.025 z m -0.875,0.1 c 0,-0.333 -0.149,-0.583 -0.449,-0.75 -0.011,0.073 -0.036,0.198 -0.075,0.375 0.22,0.097 0.395,0.256 0.524,0.475 0,-0.032 0,-0.066 0,-0.1 z m -2.55,-1.424 c -0.033,0.093 -0.05,0.201 -0.05,0.325 0,0.47 0.1,0.895 0.3,1.275 0.045,-0.111 0.078,-0.211 0.101,-0.3 l 0.024,-0.375 c -0.038,-0.127 -0.13,-0.36 -0.274,-0.7 -0.032,-0.076 -0.066,-0.151 -0.101,-0.225 z m 1.101,0.449 c 0.04,0.199 0.091,0.333 0.149,0.4 0.033,-0.168 0.05,-0.293 0.05,-0.375 -0.066,-0.466 -0.1,-0.767 -0.1,-0.9 l -0.099,0.875 z m 0.699,1.375 h 0.051 v -0.05 h -0.051 v 0.05 z m -2.949,-1.85 c 0.021,0.026 0.038,0.051 0.05,0.075 l 0.05,-0.025 v -0.075 c -0.037,0.012 -0.07,0.02 -0.1,0.025 z m 2.5,3.276 v 0.05 c 0.012,-0.012 0.028,-0.021 0.05,-0.025 -0.017,-0.008 -0.034,-0.016 -0.05,-0.025 z m 2.149,0.424 c 0.133,0.002 0.241,0.01 0.325,0.025 0.091,-0.037 0.174,-0.07 0.25,-0.1 -0.062,-0.139 -0.161,-0.273 -0.3,-0.4 -0.095,0.152 -0.187,0.31 -0.275,0.475 z m -2.625,4.4 c -0.128,0.207 -0.229,0.381 -0.3,0.525 0.08,-0.013 0.164,-0.021 0.25,-0.025 0.033,-0.178 0.066,-0.353 0.1,-0.525 -0.019,0.009 -0.035,0.017 -0.05,0.025 z m -0.25,2.5 0.025,0.225 c 0.021,-0.018 0.038,-0.035 0.05,-0.05 -0.005,-0.057 -0.014,-0.115 -0.025,-0.175 h -0.05 z m 2,2 c -0.048,0.241 -0.09,0.533 -0.125,0.875 0.07,-0.027 0.138,-0.052 0.2,-0.075 v -0.75 c -0.022,-0.017 -0.047,-0.034 -0.075,-0.05 z m -1.625,0.025 c -0.05,0.046 -0.1,0.097 -0.149,0.15 0.009,0.152 0.025,0.327 0.05,0.525 0.058,-0.05 0.124,-0.1 0.2,-0.15 -0.036,-0.183 -0.07,-0.357 -0.101,-0.525 z m -0.05,1.075 c 0.008,0.051 0.017,0.101 0.025,0.15 0.084,0.059 0.185,0.117 0.3,0.175 -0.044,-0.214 -0.086,-0.422 -0.125,-0.625 -0.068,0.096 -0.134,0.196 -0.2,0.3 z m -1.5,-0.899 c -0.033,0.111 -0.05,0.244 -0.05,0.4 0,0.158 0,0.292 0,0.4 h 0.05 v 0.025 c 0.047,0.036 0.081,-0.03 0.1,-0.2 0,-0.079 0,-0.187 0,-0.325 -0.038,-0.096 -0.063,-0.179 -0.074,-0.25 l -0.026,-0.05 z m 3.3,3.149 c 0.113,-0.126 0.222,-0.243 0.325,-0.35 0.054,-0.081 0.096,-0.147 0.125,-0.2 -0.326,0.144 -0.551,0.261 -0.675,0.35 0.005,0.071 0.013,0.137 0.024,0.2 h 0.201 z m 0.351,1.875 v -0.05 l -0.025,0.05 h 0.025 z m -0.526,1.476 c -0.134,0.244 -0.292,0.478 -0.475,0.7 v 0.025 c 0.072,-0.057 0.14,-0.115 0.199,-0.175 0.113,-0.113 0.255,-0.288 0.426,-0.525 l -0.15,-0.025 z m -1.125,3.699 v -0.05 c -0.01,0.015 -0.018,0.031 -0.025,0.05 h 0.025 z m 2.6,0.151 -0.149,-0.45 c -0.156,0.171 -0.322,0.421 -0.5,0.75 0.025,0.048 0.051,0.098 0.075,0.15 0.203,-0.14 0.394,-0.29 0.574,-0.45 z m -3.399,2.049 c 0.269,-0.07 0.511,-0.17 0.725,-0.3 -0.014,-0.132 -0.021,-0.265 -0.024,-0.4 -0.23,0.152 -0.464,0.302 -0.7,0.45 v 0.25 z m 1.224,-0.725 c 0.066,-0.086 0.125,-0.177 0.175,-0.275 v -0.15 c -0.081,0.082 -0.14,0.223 -0.175,0.425 z m -0.175,2.15 c 0.045,-0.017 0.078,-0.042 0.1,-0.075 0.034,-0.1 0.067,-0.184 0.101,-0.25 v -0.1 c -0.175,0.058 -0.341,0.108 -0.5,0.15 0.122,0.075 0.221,0.166 0.299,0.275 z m -3.75,0 c 0.037,0.027 0.071,0.052 0.1,0.075 0.04,-0.066 0.073,-0.132 0.101,-0.2 l -0.025,-0.025 c -0.058,0.052 -0.116,0.102 -0.176,0.15 z m 1.3,0.85 c 0.032,0.068 0.057,0.143 0.075,0.225 l 0.075,-0.25 -0.025,-0.025 c -0.038,0.013 -0.08,0.03 -0.125,0.05 z m -0.7,0.475 0.025,-0.125 c -0.171,0.107 -0.337,0.224 -0.5,0.35 0.099,0.058 0.207,0.1 0.325,0.125 l 0.15,-0.35 z m -0.625,0.976 c 0.012,0.054 0.021,0.104 0.025,0.15 0.051,-0.044 0.093,-0.085 0.125,-0.125 -0.047,-0.006 -0.096,-0.015 -0.15,-0.025 z m 1.275,3.125 c -0.161,0.161 -0.419,0.478 -0.775,0.95 0.006,0.017 0.015,0.034 0.025,0.05 h 1 c 0.29,-0.562 0.807,-0.886 1.55,-0.975 0.061,-0.104 0.11,-0.212 0.15,-0.325 l -0.101,-0.3 c -0.521,0.27 -1.079,0.42 -1.675,0.45 -0.071,0.048 -0.129,0.099 -0.174,0.15 z m 0.651,-4.4 c -0.016,-0.037 -0.032,-0.07 -0.051,-0.1 -0.005,0.085 -0.014,0.168 -0.024,0.25 0.023,-0.052 0.048,-0.102 0.075,-0.15 z m 2.199,1.65 c 0.115,-0.115 0.216,-0.215 0.301,-0.3 0.025,-0.026 0.051,-0.051 0.074,-0.075 -0.246,0.117 -0.521,0.175 -0.824,0.175 -0.028,0 -0.054,0 -0.075,0 -0.094,0.131 -0.202,0.281 -0.325,0.45 0.149,0.063 0.282,0.121 0.4,0.175 0.128,-0.136 0.277,-0.278 0.449,-0.425 z m -1.375,-0.476 c -0.261,0.373 -0.428,0.689 -0.5,0.95 0.12,-0.18 0.245,-0.405 0.375,-0.675 0.048,-0.094 0.09,-0.186 0.125,-0.275 z m 1.75,1.851 c 0.017,0.117 0.025,0.242 0.025,0.375 0,0.428 -0.05,0.836 -0.15,1.225 0.045,-0.008 0.086,-0.016 0.125,-0.025 0.139,-0.453 0.23,-0.869 0.275,-1.25 l -0.05,-0.45 c -0.052,0.045 -0.127,0.086 -0.225,0.125 z m 0.375,5.074 c 0.031,-0.228 0.056,-0.428 0.075,-0.6 -0.042,0.172 -0.083,0.339 -0.125,0.5 0.016,0.035 0.032,0.068 0.05,0.1 z m -1.55,2 c 0.027,0.153 0.061,0.303 0.101,0.45 0.036,-0.174 0.069,-0.341 0.1,-0.5 -0.071,0.019 -0.138,0.036 -0.201,0.05 z m -0.099,-0.9 c 0,0.032 0,0.065 0,0.1 h 0.05 v -0.4 c -0.034,0.096 -0.05,0.196 -0.05,0.3 z m -1.201,1.176 c 0.007,1.118 0.157,1.709 0.45,1.775 0.2,-0.4 0.3,-0.983 0.3,-1.75 0,-0.045 -0.116,-0.079 -0.35,-0.1 -0.137,0.03 -0.27,0.055 -0.4,0.075 z m -3.849,-2.725 h 0.3 c 0,0.424 0.008,0.857 0.024,1.3 0.328,-0.392 0.645,-0.825 0.95,-1.3 -0.04,-0.169 -0.082,-0.335 -0.125,-0.5 -0.036,-0.121 -0.07,-0.237 -0.1,-0.35 -0.187,-0.125 -0.37,-0.275 -0.55,-0.45 -0.248,0.305 -0.448,0.58 -0.601,0.825 0.042,0.159 0.075,0.317 0.102,0.475 z m 1.949,3.85 c 0.052,0.077 0.085,0.26 0.101,0.55 0.071,-0.124 0.154,-0.257 0.25,-0.4 0.271,-0.427 0.472,-0.802 0.6,-1.125 -0.194,0.017 -0.377,0.025 -0.55,0.025 v 0.625 c -0.161,-0.489 -0.327,-1.014 -0.5,-1.575 -0.052,-0.17 -0.102,-0.336 -0.15,-0.5 -0.338,0.341 -0.779,0.558 -1.324,0.65 0.021,0.401 0.055,0.81 0.1,1.225 l 0.025,-0.025 c 0.399,-0.3 0.75,-0.483 1.05,-0.55 0.133,0.1 0.217,0.233 0.25,0.4 0.033,0.1 0.05,0.183 0.05,0.25 -0.002,0.2 0.032,0.35 0.098,0.45 z m -12.324,-9.676 c -0.005,0.078 -0.013,0.153 -0.025,0.225 0.052,-0.034 0.102,-0.067 0.15,-0.1 -0.041,-0.048 -0.082,-0.09 -0.125,-0.125 z m 1.974,4.375 c -0.148,0.231 -0.323,0.49 -0.525,0.775 l 0.301,0.05 c 0.006,-0.044 0.014,-0.086 0.024,-0.125 0.098,-0.292 0.172,-0.517 0.226,-0.675 l -0.026,-0.025 z m -0.799,3.6 c -0.039,0.016 -0.081,0.033 -0.125,0.05 0.009,0.024 0.018,0.049 0.024,0.075 l 0.101,-0.075 v -0.05 z m -3.375,1.826 c -0.048,0.059 -0.099,0.117 -0.15,0.175 -0.041,0.053 -0.083,0.111 -0.125,0.175 0.011,0.016 0.019,0.032 0.025,0.05 0.154,-0.052 0.296,-0.127 0.425,-0.225 -0.024,-0.092 -0.049,-0.184 -0.075,-0.275 -0.035,0.034 -0.068,0.067 -0.1,0.1 z m 0.45,-0.076 c 0.022,-0.028 0.048,-0.062 0.074,-0.1 0.037,-0.089 0.07,-0.172 0.101,-0.25 -0.066,0.029 -0.134,0.062 -0.2,0.1 0.003,0.092 0.012,0.175 0.025,0.25 z m -5.575,4.8 h 0.024 c 0.033,-0.043 0.066,-0.084 0.101,-0.125 -0.029,0.001 -0.062,0.001 -0.101,0 -0.005,0.042 -0.013,0.084 -0.024,0.125 z m 3.549,5.726 c -0.041,0.045 -0.083,0.095 -0.125,0.149 0.044,0.005 0.086,0.014 0.125,0.025 v -0.174 z m -0.5,1.974 c 0,0.031 -0.033,0.481 -0.1,1.35 0.061,-0.002 0.119,-0.002 0.175,0 0.188,-0.53 0.346,-0.938 0.475,-1.225 0.004,-0.061 0.004,-0.118 0,-0.175 -0.201,-0.093 -0.385,-0.159 -0.55,-0.2 0,0.089 0,0.173 0,0.25 z m -5.849,-4.45 c -0.065,0.283 -0.141,0.583 -0.226,0.9 0.077,-0.079 0.152,-0.154 0.226,-0.226 l 0.125,-0.574 c -0.039,-0.031 -0.081,-0.065 -0.125,-0.1 z m 2.099,-1 c 0.206,-0.014 0.465,-0.014 0.775,0 -0.026,-0.021 -0.051,-0.037 -0.075,-0.05 -0.27,0.015 -0.503,0.015 -0.7,0 v 0.05 z m -0.075,2.45 c 0.122,-0.191 0.28,-0.392 0.476,-0.6 0.157,-0.144 0.308,-0.285 0.449,-0.426 -0.185,-0.043 -0.418,-0.076 -0.699,-0.1 -0.171,0.08 -0.337,0.172 -0.5,0.275 0.065,0.189 0.132,0.39 0.199,0.6 0.028,0.085 0.053,0.168 0.075,0.251 z m -2.524,1.151 c -0.033,-0.1 -0.066,-0.2 -0.101,-0.301 -0.057,0.177 -0.115,0.36 -0.175,0.551 0.1,-0.086 0.192,-0.169 0.276,-0.25 z m 3.349,3.199 c 0,0.24 -0.033,0.532 -0.1,0.875 0.175,0.017 0.408,0.025 0.699,0.025 0.332,0 0.615,-0.05 0.851,-0.15 -0.568,-0.361 -1.061,-0.853 -1.476,-1.475 0.018,0.253 0.026,0.496 0.026,0.725 z m 0.75,2.5 c -0.045,-0.044 -0.47,-0.036 -1.275,0.025 -0.096,0.304 -0.203,0.629 -0.324,0.975 0.107,0 0.224,0 0.35,0 0.107,0 0.208,0 0.3,0 -0.056,-0.078 -0.114,-0.161 -0.175,-0.25 0.114,0.044 0.206,0.077 0.275,0.101 0.143,0.043 0.302,0.076 0.475,0.1 0.091,-0.014 0.165,-0.03 0.225,-0.05 l 0.15,-0.15 v -0.751 z m -4.799,0.301 c -0.071,0.07 -0.138,0.187 -0.2,0.35 0.004,0.309 0.012,0.625 0.025,0.95 l 0.125,0.05 c 0.14,-0.109 0.289,-0.251 0.449,-0.425 -0.034,-0.413 -0.068,-0.821 -0.1,-1.226 -0.114,0.089 -0.214,0.188 -0.299,0.301 z m 1.325,-0.726 c -0.065,0.241 -0.106,0.482 -0.125,0.726 0.19,-0.243 0.391,-0.51 0.6,-0.801 -0.172,0.021 -0.33,0.045 -0.475,0.075 z m 3.974,-2.575 c 0.05,0.05 0.108,0.101 0.175,0.15 -0.116,-0.178 -0.175,-0.345 -0.175,-0.5 -0.062,-0.014 -0.12,-0.03 -0.175,-0.05 l 0.175,0.4 z m 1.026,1.676 c -0.065,0.104 -0.141,0.212 -0.226,0.324 -0.366,0.534 -0.55,1 -0.55,1.4 0,0.192 0,0.384 0,0.575 0.602,-0.143 1.077,-0.65 1.425,-1.525 -0.138,-0.194 -0.271,-0.428 -0.399,-0.7 -0.086,-0.02 -0.17,-0.045 -0.25,-0.074 z m 2.074,-1.875 c -0.061,0.081 -0.119,0.173 -0.175,0.274 -0.007,0.118 -0.016,0.243 -0.024,0.375 0.118,-0.04 0.185,-0.091 0.199,-0.149 -0.021,-0.171 -0.021,-0.338 0,-0.5 z m 1.15,4.5 c 0.36,-0.285 0.777,-0.519 1.25,-0.7 h 0.025 c -0.054,-0.292 -0.137,-0.617 -0.25,-0.976 -0.116,0.1 -0.241,0.208 -0.375,0.325 -0.253,0.196 -0.503,0.363 -0.75,0.5 0.019,0.248 0.052,0.531 0.1,0.851 z m -4.474,3 c -0.109,0.35 -0.234,0.666 -0.375,0.949 h 0.25 c 0.073,-0.079 0.148,-0.163 0.225,-0.25 -0.023,-0.247 -0.057,-0.48 -0.1,-0.699 z m 1.974,0.949 c 1.167,-0.466 1.717,-1.166 1.65,-2.1 -0.299,-0.117 -0.573,-0.176 -0.825,-0.175 -0.526,0.834 -1.052,1.551 -1.575,2.149 v 0.025 l 0.75,0.101 z m -5.349,-1.75 c -0.101,-0.1 -0.184,-0.183 -0.25,-0.25 l -0.15,-0.1 c -0.203,0.406 -0.245,0.849 -0.125,1.325 0.243,-0.085 0.435,-0.21 0.575,-0.375 0.065,-0.076 0.124,-0.185 0.175,-0.325 -0.055,-0.087 -0.13,-0.179 -0.225,-0.275 z m 0.3,0.375 c -0.223,0.441 -0.439,0.808 -0.65,1.101 0.033,0.056 0.066,0.113 0.101,0.175 h 0.25 l 0.35,-1.15 c -0.011,-0.039 -0.028,-0.081 -0.051,-0.126 z m -1.125,0.676 c -0.093,-0.463 -0.176,-0.979 -0.25,-1.551 -0.22,0.108 -0.461,0.233 -0.726,0.375 0.033,0.379 0.066,0.771 0.101,1.176 0.333,0.032 0.625,0.032 0.875,0 z m 3.325,-0.051 c 0,-0.066 -0.233,-0.083 -0.7,-0.05 -0.5,0.033 -0.767,0.101 -0.8,0.2 v 0.35 c 0.233,0.067 0.517,0.051 0.85,-0.05 0.299,-0.099 0.516,-0.25 0.65,-0.45 z m 7.774,-20.2 c -0.103,-0.145 -0.228,-0.32 -0.375,-0.525 -0.072,0.044 -0.147,0.086 -0.225,0.125 v 0.05 c 0.017,0.081 0.024,0.164 0.024,0.25 0,0.022 0,0.047 0,0.075 0.069,0.156 0.145,0.289 0.226,0.4 0.072,-0.016 0.147,-0.033 0.225,-0.05 0.042,-0.115 0.084,-0.224 0.125,-0.325 z m -0.474,2.075 v -0.225 c -0.02,0.019 -0.044,0.044 -0.075,0.075 l 0.075,0.15 z m 1.774,0.926 c 0.084,-0.071 0.175,-0.154 0.275,-0.25 -0.192,-0.04 -0.375,-0.09 -0.55,-0.15 0.036,0.141 0.069,0.282 0.1,0.425 0.057,-0.013 0.115,-0.021 0.175,-0.025 z m -2.524,1.949 c -0.088,-0.007 -0.172,-0.007 -0.25,0 0.016,0.049 0.032,0.099 0.05,0.15 l 0.2,-0.15 z m 7.2,-1.3 c 0.036,-0.012 0.069,-0.02 0.1,-0.024 0.045,-0.274 0.112,-0.5 0.2,-0.676 -0.159,0 -0.326,0 -0.5,0 -0.056,0 -0.105,0 -0.15,0 -0.004,0.048 -0.004,0.099 0,0.15 0.014,0.217 0.047,0.425 0.101,0.625 0.074,-0.019 0.157,-0.045 0.249,-0.075 z m 1.05,-0.375 c -0.036,0.03 -0.069,0.063 -0.101,0.101 l 0.101,-0.025 v -0.076 z m -2.175,0.675 c 0.127,-0.015 0.302,-0.057 0.524,-0.125 -0.097,-0.192 -0.197,-0.401 -0.3,-0.625 -0.035,0.018 -0.068,0.034 -0.1,0.051 -0.034,0.21 -0.076,0.442 -0.124,0.699 z m 1.224,4.25 1.75,0.4 0.25,-0.75 c -0.433,-0.4 -1.099,-0.283 -2,0.35 z m 0.5,1.65 c -1,0 -1.667,0.2 -2,0.6 0.634,-0.033 1.15,-0.133 1.55,-0.3 l 0.4,-0.2 0.05,-0.1 z m -2.299,-0.9 c -0.133,-0.056 -0.258,-0.114 -0.375,-0.175 -0.038,0.167 -0.08,0.334 -0.125,0.5 0.156,-0.114 0.323,-0.222 0.5,-0.325 z m -5.8,1.226 c 0.033,0.39 0.05,0.831 0.05,1.325 0,0.131 -0.017,0.29 -0.05,0.475 0.088,-0.087 0.171,-0.179 0.25,-0.275 0.196,-0.387 0.38,-0.745 0.55,-1.074 0,-0.059 0,-0.117 0,-0.176 0,-0.27 -0.042,-0.512 -0.125,-0.725 -0.125,0.081 -0.283,0.189 -0.476,0.325 -0.066,0.04 -0.133,0.082 -0.199,0.125 z m 12.099,-7.576 c 0,0.295 -0.066,0.603 -0.2,0.925 0.573,0.117 1.207,0.175 1.9,0.175 0.592,-0.21 1.066,-0.41 1.425,-0.6 -0.024,-0.051 -0.05,-0.101 -0.075,-0.15 -0.455,-0.034 -0.922,-0.201 -1.399,-0.5 -0.601,-0.366 -0.9,-0.816 -0.9,-1.35 0,-0.162 0.042,-0.345 0.125,-0.55 -0.17,0.142 -0.395,0.326 -0.675,0.55 -0.107,0.08 -0.207,0.155 -0.3,0.225 0.066,0.589 0.099,1.014 0.099,1.275 z m 1.701,-1.149 h 1.05 c -0.333,-0.833 -0.5,-1.583 -0.5,-2.25 -0.2,0.233 -0.35,0.566 -0.45,1 -0.167,0.5 -0.201,0.916 -0.1,1.25 z m -3.826,2.6 c 0.074,-0.082 0.149,-0.166 0.225,-0.25 0.201,-0.228 0.368,-0.419 0.5,-0.575 -0.054,-0.118 -0.104,-0.243 -0.149,-0.375 -0.195,0.064 -0.37,0.131 -0.525,0.2 -0.015,0.316 -0.031,0.65 -0.051,1 z m 1.076,0.75 c -0.288,0.342 -0.571,0.617 -0.851,0.825 -0.1,0.126 -0.207,0.251 -0.324,0.375 10e-4,0.036 10e-4,0.069 0,0.1 l 0.925,0.1 0.975,-1.699 c -0.108,-0.055 -0.217,-0.121 -0.325,-0.2 -0.115,0.158 -0.248,0.325 -0.4,0.499 z m 5.424,-3.35 c 0.247,-0.301 0.464,-0.651 0.65,-1.05 -0.089,-0.583 -0.139,-1.059 -0.15,-1.425 -0.283,0.857 -0.55,1.549 -0.8,2.075 0.101,0.092 0.175,0.175 0.225,0.25 0.028,0.037 0.053,0.087 0.075,0.15 z m -0.599,-0.051 c -0.084,0.171 -0.176,0.354 -0.275,0.55 l 0.2,0.15 c 0.08,-0.061 0.155,-0.127 0.225,-0.2 -0.019,-0.228 -0.07,-0.395 -0.15,-0.5 z m -13.426,12.101 c 0.037,-0.037 0.07,-0.07 0.101,-0.101 -0.006,-0.122 -0.015,-0.256 -0.025,-0.399 -0.017,0.01 -0.033,0.018 -0.05,0.024 -0.009,0.158 -0.018,0.317 -0.026,0.476 z m 5.601,0.949 c -0.5,0.167 -1.316,0.25 -2.45,0.25 l 0.2,0.25 c 0.166,0.267 0.6,0.4 1.3,0.4 l 0.75,-0.75 0.2,-0.15 z m -2.701,-1.5 0.25,0.15 c 1.8,-0.333 2.884,-0.75 3.25,-1.25 -0.4,-0.066 -1.033,0.017 -1.9,0.25 -0.833,0.267 -1.366,0.55 -1.6,0.85 z"
   id="path3"
   style="fill-rule:evenodd" />
</svg>