<?xml version="1.0" encoding="UTF-8" standalone="no"?>
<!-- Created with Inkscape (http://www.inkscape.org/) -->

<svg
   xmlns:svg="http://www.w3.org/2000/svg"
   xmlns="http://www.w3.org/2000/svg"
   version="1.2"
   width="550"
   height="400"
   viewBox="0 0 550 400"
   id="Layer_1"
   xml:space="preserve"><defs
   id="defs7" />
    
    <path
   d="m 383.8,585.25 0.4,0.85 1.45,2.5 c 0.333,0.5 0.683,1.066 1.05,1.7 0.366,0.566 0.733,1.2 1.1,1.899 l 7.351,16.301 0.75,2.199 c 0.233,0.7 0.449,1.367 0.649,2 0.167,0.601 0.316,1.184 0.45,1.75 l 4.4,17.15 1.449,8.05 8.2,64.5 2.05,10.7 c 0.167,0.6 0.351,1.233 0.551,1.9 l 3.05,8.25 5.25,10.399 1.149,1.9 c 0.4,0.633 0.801,1.233 1.2,1.8 l 7.5,10.45 16.5,17.149 c 0.4,0.5 0.783,0.983 1.15,1.45 0.366,0.434 0.717,0.884 1.05,1.351 0.3,0.433 0.583,0.866 0.85,1.3 0.267,0.399 0.517,0.816 0.75,1.25 0.2,0.399 0.384,0.816 0.551,1.25 0.166,0.399 0.333,0.816 0.5,1.25 0.1,0.399 0.216,0.816 0.35,1.25 0.066,0.434 0.15,0.866 0.25,1.3 0.066,0.467 0.116,0.934 0.15,1.4 0.033,0.466 0.066,0.966 0.1,1.5 l -0.6,15 -0.601,4.449 -0.25,1.15 c -0.1,0.366 -0.2,0.7 -0.3,1 -0.134,0.3 -0.25,0.6 -0.35,0.9 -0.134,0.267 -0.25,0.533 -0.351,0.8 -0.3,0.467 -0.6,0.916 -0.899,1.35 -0.334,0.367 -0.7,0.733 -1.101,1.101 -0.434,0.333 -0.866,0.649 -1.3,0.949 -0.467,0.301 -0.95,0.584 -1.45,0.851 l -0.75,0.399 -2.35,0.851 c -0.533,0.133 -1.05,0.25 -1.55,0.35 -0.5,0.066 -0.967,0.101 -1.4,0.101 -0.233,0 -0.533,-0.051 -0.9,-0.15 -0.366,-0.1 -0.783,-0.233 -1.25,-0.4 -0.5,-0.166 -1.017,-0.35 -1.55,-0.55 l -1.649,-0.7 -2.801,-1.6 -6.3,-5.1 c -0.533,-0.434 -1.017,-0.801 -1.45,-1.101 -0.433,-0.333 -0.816,-0.583 -1.149,-0.75 -0.334,-0.2 -0.566,-0.3 -0.7,-0.3 -0.3,0 -0.616,-0.033 -0.95,-0.1 -0.366,-0.101 -0.733,-0.233 -1.1,-0.4 -0.4,-0.167 -0.783,-0.35 -1.15,-0.55 -0.399,-0.2 -0.8,-0.434 -1.2,-0.7 -0.433,-0.3 -0.833,-0.6 -1.199,-0.9 -0.4,-0.3 -0.784,-0.616 -1.15,-0.949 -0.366,-0.367 -0.717,-0.733 -1.05,-1.101 -0.334,-0.366 -0.617,-0.733 -0.851,-1.1 l -6.649,-11.4 c -0.566,-1.066 -1.084,-2.033 -1.55,-2.899 -0.5,-0.9 -0.967,-1.7 -1.4,-2.4 -0.433,-0.7 -0.866,-1.316 -1.3,-1.85 -0.4,-0.567 -0.8,-1.051 -1.2,-1.45 -0.4,-0.434 -0.8,-0.8 -1.2,-1.101 -0.434,-0.333 -0.866,-0.6 -1.3,-0.8 -0.467,-0.233 -0.95,-0.45 -1.45,-0.649 -0.5,-0.167 -1.033,-0.317 -1.6,-0.45 -0.601,-0.167 -1.217,-0.367 -1.851,-0.601 -0.6,-0.233 -1.216,-0.517 -1.85,-0.85 -0.667,-0.333 -1.3,-0.684 -1.9,-1.05 -0.633,-0.4 -1.25,-0.834 -1.85,-1.3 -0.6,-0.434 -1.167,-0.884 -1.7,-1.351 -0.533,-0.5 -1.033,-1 -1.5,-1.5 -0.5,-0.5 -0.934,-1 -1.3,-1.5 -0.366,-0.533 -0.667,-1.033 -0.9,-1.5 -0.199,-0.333 -0.35,-0.7 -0.449,-1.1 -0.134,-0.434 -0.233,-0.9 -0.301,-1.4 -0.1,-0.5 -0.166,-1.033 -0.199,-1.6 -0.034,-0.566 -0.051,-1.134 -0.051,-1.7 0,-0.6 0.017,-1.2 0.051,-1.8 0.033,-0.634 0.1,-1.25 0.199,-1.851 0.101,-0.633 0.217,-1.25 0.351,-1.85 0.1,-0.6 0.25,-1.167 0.45,-1.7 0.166,-0.633 0.316,-1.25 0.449,-1.85 0.134,-0.667 0.25,-1.316 0.351,-1.95 0.066,-0.667 0.116,-1.333 0.149,-2 0.034,-0.667 0.051,-1.316 0.051,-1.95 -0.034,-0.7 -0.067,-1.366 -0.101,-2 -0.1,-0.633 -0.2,-1.267 -0.3,-1.899 -0.1,-0.601 -0.233,-1.184 -0.4,-1.75 -0.166,-0.601 -0.333,-1.15 -0.5,-1.65 l -3.3,-9.5 c -1.066,-3.366 -2.533,-7.233 -4.399,-11.6 -1.9,-4.4 -4.184,-9.267 -6.851,-14.601 -2.666,-5.333 -5.75,-11.217 -9.25,-17.649 -3.533,-6.434 -7.467,-13.367 -11.8,-20.801 l -7.25,-12.899 -5.6,-12.55 -2.7,-9.301 -0.601,-3.35 -0.35,-5.2 0.2,-21.25 -9.3,-15.35 c -0.367,-0.601 -0.733,-1.217 -1.101,-1.851 -0.366,-0.666 -0.733,-1.35 -1.1,-2.05 l -3.4,-7 -5.45,-13.55 -11.55,-40.05 c -0.533,-1.834 -1.066,-3.617 -1.6,-5.351 -0.566,-1.733 -1.117,-3.433 -1.65,-5.1 -0.533,-1.667 -1.083,-3.3 -1.649,-4.9 -0.567,-1.6 -1.117,-3.149 -1.65,-4.649 -0.566,-1.533 -1.116,-3 -1.65,-4.4 -0.833,-2.166 -1.649,-4.217 -2.449,-6.149 -0.801,-1.934 -1.601,-3.75 -2.4,-5.45 l -13.35,-30.3 c -0.334,-0.634 -0.584,-1.034 -0.75,-1.2 -0.134,-0.134 -0.25,-0.2 -0.351,-0.2 -0.066,0 -0.116,0.017 -0.149,0.05 l -0.051,0.05 -0.05,0.101 -0.05,0.3 c -0.066,0.233 -0.134,0.583 -0.2,1.05 l -3.149,42.351 -0.101,14.85 2.7,31.5 -0.5,5.5 -3.1,15.95 c -0.034,0.399 -0.051,0.717 -0.051,0.95 l 0.051,1.1 2.1,11.5 1.3,4.45 c 0.334,1 0.65,2.066 0.95,3.2 0.267,1.1 0.533,2.233 0.8,3.399 0.233,1.134 0.45,2.316 0.65,3.55 0.2,1.2 0.383,2.45 0.55,3.75 0.134,1.233 0.25,2.517 0.35,3.851 0.101,1.3 0.184,2.633 0.25,4 0.067,1.333 0.117,2.684 0.15,4.05 0,1.366 -0.017,2.75 -0.05,4.15 -0.033,1.399 -0.084,2.8 -0.15,4.199 -0.1,1.4 -0.2,2.817 -0.3,4.25 -0.134,1.4 -0.283,2.817 -0.45,4.25 -0.2,1.4 -0.399,2.817 -0.6,4.25 -0.233,1.233 -0.417,2.684 -0.55,4.351 -0.167,1.666 -0.317,3.55 -0.45,5.649 -0.066,1.367 -0.134,2.851 -0.2,4.45 l -1.6,43.351 -1.45,19.85 8.95,30.95 c 0.199,0.8 0.383,1.55 0.55,2.25 0.166,0.7 0.3,1.383 0.399,2.05 0.101,0.634 0.167,1.233 0.2,1.8 0.033,0.567 0.033,1.117 0,1.65 -0.066,0.5 -0.149,1 -0.25,1.5 -0.1,0.467 -0.233,0.916 -0.399,1.35 -0.2,0.434 -0.434,0.851 -0.7,1.25 -0.3,0.4 -0.617,0.8 -0.95,1.2 -0.366,0.366 -0.767,0.75 -1.2,1.15 -0.434,0.366 -0.916,0.733 -1.45,1.1 -0.533,0.366 -1.116,0.75 -1.75,1.15 -0.633,0.399 -1.3,0.8 -2,1.199 -0.733,0.367 -1.517,0.767 -2.35,1.2 l -11.05,5.851 -0.851,0.55 c -0.566,0.366 -1.05,0.684 -1.449,0.95 -0.367,0.267 -0.634,0.5 -0.801,0.699 -1.1,1.167 -2.149,2.717 -3.149,4.65 -0.5,0.934 -0.983,1.967 -1.45,3.1 -0.5,1.134 -0.967,2.351 -1.4,3.65 -0.366,1.066 -0.75,2.066 -1.149,3 -0.4,0.934 -0.816,1.816 -1.25,2.65 -0.434,0.8 -0.884,1.55 -1.351,2.25 -0.466,0.699 -0.949,1.35 -1.449,1.949 -1.034,1.2 -2.134,2.184 -3.301,2.95 -0.6,0.367 -1.233,0.7 -1.899,1 -0.634,0.3 -1.3,0.533 -2,0.7 l -1.05,0.3 -4.7,2 c -0.367,0.167 -0.684,0.334 -0.95,0.5 -0.3,0.167 -0.65,0.351 -1.05,0.55 l -5.8,2.4 -6.551,2 -4.5,-2.1 c -0.833,-0.4 -1.583,-0.784 -2.25,-1.15 -0.666,-0.366 -1.267,-0.717 -1.8,-1.05 -0.566,-0.367 -1.05,-0.717 -1.45,-1.05 -0.466,-0.4 -0.85,-0.784 -1.149,-1.15 -0.334,-0.366 -0.617,-0.75 -0.851,-1.15 -0.233,-0.433 -0.416,-0.85 -0.55,-1.25 -0.133,-0.466 -0.233,-0.949 -0.3,-1.449 -0.067,-0.5 -0.1,-1.017 -0.1,-1.551 l -0.101,-6.75 0.5,-5.899 1.75,-8.4 c 0.101,-0.3 0.2,-0.566 0.3,-0.8 1.5,-3.134 4.417,-5.717 8.75,-7.75 0.334,-0.167 0.667,-0.35 1,-0.55 0.367,-0.2 0.733,-0.417 1.101,-0.65 0.333,-0.233 0.684,-0.483 1.05,-0.75 0.366,-0.3 0.733,-0.583 1.1,-0.85 0.367,-0.334 0.733,-0.65 1.101,-0.95 0.366,-0.333 0.733,-0.684 1.1,-1.05 l 2.15,-2.25 c 0.366,-0.4 0.717,-0.8 1.05,-1.2 0.333,-0.434 0.667,-0.85 1,-1.25 0.3,-0.434 0.616,-0.866 0.95,-1.3 0.3,-0.434 0.583,-0.867 0.85,-1.3 l 2.45,-4 0.15,-0.351 0.05,-0.05 v -0.1 l 0.1,-0.15 0.15,-0.35 6.45,-11.15 c 0.166,-0.4 0.316,-0.75 0.449,-1.05 0.101,-0.334 0.184,-0.601 0.25,-0.8 0.067,-0.367 0.117,-0.834 0.15,-1.4 0,-0.566 -0.017,-1.217 -0.05,-1.95 -0.033,-0.767 -0.084,-1.583 -0.15,-2.45 -0.1,-0.899 -0.217,-1.85 -0.35,-2.85 -0.134,-1.033 -0.283,-2.083 -0.45,-3.15 -0.167,-1.1 -0.35,-2.216 -0.55,-3.35 -0.233,-1.167 -0.467,-2.333 -0.7,-3.5 -0.233,-1.167 -0.483,-2.333 -0.75,-3.5 l -12.4,-50.65 c -0.1,-0.366 -0.183,-0.75 -0.25,-1.149 l -0.399,-2.5 c -0.033,-0.4 -0.05,-0.733 -0.05,-1 0,-0.3 -0.034,-0.717 -0.101,-1.25 l -1.399,-6.5 c -0.4,-1.5 -0.784,-3.017 -1.15,-4.55 -0.4,-1.534 -0.75,-3.051 -1.05,-4.551 -0.334,-1.5 -0.65,-3.033 -0.95,-4.6 -0.333,-1.6 -0.634,-3.2 -0.9,-4.8 -0.267,-1.634 -0.533,-3.316 -0.8,-5.05 -0.267,-1.734 -0.517,-3.534 -0.75,-5.4 -0.267,-1.866 -0.517,-3.816 -0.75,-5.85 -0.267,-2.034 -0.517,-4.15 -0.75,-6.351 -0.399,-3.7 -0.467,-7.616 -0.2,-11.75 0.233,-4.166 0.784,-8.399 1.65,-12.7 l 0.3,-1.5 0.55,-5.699 -0.05,-0.9 -2.55,-13.8 c -0.3,-1.667 -0.616,-3.283 -0.95,-4.851 -0.366,-1.566 -0.733,-3.05 -1.1,-4.449 -0.4,-1.434 -0.8,-2.801 -1.2,-4.101 -0.434,-1.3 -0.866,-2.533 -1.3,-3.7 L 187.8,475.8 c -0.333,-0.733 -0.633,-1.434 -0.899,-2.101 -0.301,-0.666 -0.584,-1.267 -0.851,-1.8 -0.3,-0.566 -0.6,-1.116 -0.899,-1.649 -0.334,-0.5 -0.65,-0.983 -0.95,-1.45 -0.334,-0.5 -0.684,-0.983 -1.05,-1.45 -0.367,-0.5 -0.75,-0.983 -1.15,-1.45 l -9.55,-10.5 c -0.434,-0.533 -0.851,-1.05 -1.25,-1.55 -0.4,-0.5 -0.767,-0.983 -1.101,-1.45 -0.333,-0.5 -0.666,-1 -1,-1.5 -0.333,-0.533 -0.649,-1.05 -0.949,-1.55 -0.301,-0.533 -0.584,-1.083 -0.851,-1.65 -0.333,-0.566 -0.633,-1.149 -0.899,-1.75 l -5.5,-10.899 c -0.467,-0.867 -0.867,-1.684 -1.2,-2.45 -0.367,-0.767 -0.667,-1.467 -0.9,-2.1 -0.233,-0.634 -0.399,-1.25 -0.5,-1.851 -0.133,-0.633 -0.2,-1.217 -0.2,-1.75 0,-0.533 0.051,-1.083 0.15,-1.649 0.134,-0.567 0.316,-1.117 0.55,-1.65 0.2,-0.533 0.483,-1.1 0.851,-1.7 0.333,-0.633 0.733,-1.267 1.199,-1.899 0.2,-0.334 0.417,-0.7 0.65,-1.101 0.2,-0.399 0.417,-0.833 0.65,-1.3 0.233,-0.5 0.466,-1.017 0.699,-1.55 l 3.851,-12.3 1.7,-9.9 0.35,-9.9 -1.1,-63.3 c 0.033,-2.1 0.083,-4.133 0.149,-6.1 0.066,-1.967 0.15,-3.834 0.25,-5.601 0.066,-1.8 0.167,-3.517 0.3,-5.149 0.134,-1.634 0.267,-3.184 0.4,-4.65 0.134,-1.5 0.3,-2.916 0.5,-4.25 0.167,-1.366 0.35,-2.666 0.55,-3.899 0.2,-1.2 0.417,-2.351 0.65,-3.45 0.233,-1.101 0.483,-2.117 0.75,-3.05 0.233,-1 0.5,-1.917 0.8,-2.75 0.3,-0.867 0.616,-1.667 0.95,-2.4 l 6.8,-18 2.25,-9.15 1.85,-60.899 1.4,-10.55 c 0.134,-0.7 0.3,-1.384 0.5,-2.051 0.2,-0.666 0.4,-1.333 0.6,-2 0.2,-0.666 0.417,-1.3 0.65,-1.899 0.2,-0.667 0.434,-1.3 0.7,-1.9 0.233,-0.6 0.483,-1.2 0.75,-1.8 0.267,-0.6 0.533,-1.167 0.8,-1.7 0.3,-0.566 0.6,-1.116 0.9,-1.649 0.267,-0.534 0.566,-1.034 0.899,-1.5 0.3,-0.5 0.601,-0.983 0.9,-1.45 0.333,-0.467 0.666,-0.9 1,-1.3 0.333,-0.434 0.666,-0.834 1,-1.2 0.333,-0.4 0.684,-0.75 1.05,-1.05 0.267,-0.301 0.583,-0.584 0.95,-0.851 0.333,-0.3 0.7,-0.6 1.1,-0.899 l 5.5,-3.7 9.101,-4.55 c 0.899,-0.334 1.75,-0.667 2.55,-1 0.767,-0.367 1.45,-0.733 2.05,-1.101 1.233,-0.767 2.267,-1.633 3.1,-2.6 0.801,-1.033 1.483,-2.283 2.051,-3.75 0.267,-0.733 0.533,-1.55 0.8,-2.45 0.233,-0.9 0.467,-1.866 0.7,-2.9 l 0.899,-3.35 c 0.167,-0.533 0.351,-1.033 0.55,-1.5 0.2,-0.467 0.384,-0.866 0.551,-1.2 0.199,-0.434 0.383,-0.95 0.55,-1.55 0.066,-0.333 0.133,-0.684 0.2,-1.05 0.066,-0.4 0.116,-0.816 0.149,-1.25 l 0.15,-1.55 -0.5,-18.051 -0.851,-4.8 L 217.2,78.3 216.9,75.949 V 72.5 l 4.899,-33.351 2.101,-4.8 1.449,-2.4 5.551,-7.3 c 0.433,-0.533 0.866,-1.033 1.3,-1.5 0.434,-0.5 0.883,-0.966 1.35,-1.4 0.434,-0.467 0.9,-0.917 1.4,-1.35 0.5,-0.466 1.017,-0.917 1.55,-1.35 0.5,-0.434 1.05,-0.867 1.65,-1.3 0.566,-0.433 1.166,-0.867 1.8,-1.3 0.633,-0.434 1.3,-0.883 2,-1.35 0.7,-0.467 1.45,-0.933 2.25,-1.4 L 264.35,2.85 c 0.601,-0.333 1.267,-0.617 2,-0.85 0.7,-0.3 1.434,-0.55 2.2,-0.75 0.767,-0.2 1.55,-0.383 2.351,-0.55 0.8,-0.167 1.633,-0.3 2.5,-0.4 0.833,-0.1 1.666,-0.167 2.5,-0.2 0.866,-0.067 1.733,-0.1 2.6,-0.1 0.867,0 1.717,0.033 2.55,0.1 0.834,0.033 1.667,0.1 2.5,0.2 0.8,0.1 1.601,0.233 2.4,0.4 0.733,0.167 1.467,0.367 2.2,0.6 0.699,0.2 1.366,0.433 2,0.7 0.6,0.267 1.183,0.567 1.75,0.9 0.366,0.2 0.767,0.467 1.199,0.8 0.434,0.3 0.884,0.633 1.351,1 0.434,0.333 0.883,0.717 1.35,1.15 0.467,0.433 0.967,0.883 1.5,1.35 0.467,0.467 0.967,0.967 1.5,1.5 0.5,0.533 1,1.083 1.5,1.65 0.5,0.533 1.017,1.117 1.55,1.75 0.534,0.567 1.051,1.167 1.551,1.8 0.5,0.633 1.017,1.284 1.55,1.95 0.5,0.633 1,1.283 1.5,1.95 0.5,0.667 0.983,1.35 1.45,2.05 0.466,0.667 0.933,1.35 1.399,2.05 l 10.45,16 4.95,9.2 c 0.166,0.267 0.333,0.583 0.5,0.95 l 2.85,9.1 1.55,8.5 0.75,42.45 0.95,11.5 4.101,19.25 c 0.133,0.634 0.283,1.2 0.449,1.7 0.134,0.467 0.284,0.899 0.45,1.3 0.167,0.366 0.367,0.717 0.601,1.05 0.199,0.3 0.466,0.584 0.8,0.851 0.3,0.267 0.649,0.55 1.05,0.85 0.434,0.267 0.934,0.566 1.5,0.9 l 1.9,1.05 c 0.933,0.5 1.816,1.017 2.649,1.55 0.834,0.5 1.601,1 2.3,1.5 0.733,0.5 1.434,1.05 2.101,1.65 0.666,0.533 1.316,1.116 1.95,1.75 0.6,0.633 1.216,1.316 1.85,2.05 0.6,0.7 1.217,1.483 1.85,2.35 0.601,0.8 1.233,1.7 1.9,2.7 0.667,1 1.35,2.066 2.05,3.2 0.7,1.133 1.367,2.25 2,3.35 0.601,1.066 1.167,2.101 1.7,3.101 0.5,1 0.967,2 1.4,3 0.433,0.966 0.833,1.949 1.199,2.949 0.334,0.967 0.65,1.95 0.95,2.95 0.267,1.033 0.517,2.066 0.75,3.101 0.233,1.066 0.434,2.166 0.601,3.3 0.199,1.133 0.366,2.333 0.5,3.6 l 2,21.4 0.149,8.5 c 0.033,4.399 0.167,8.733 0.4,13 0.2,4.233 0.517,8.366 0.95,12.399 0.399,4.034 0.899,8.034 1.5,12 0.6,3.934 1.316,7.784 2.149,11.551 l 3.65,21.449 c 0.066,0.534 0.149,1.167 0.25,1.9 0.066,0.733 0.133,1.583 0.2,2.55 l -0.15,32.25 c -0.1,1 -0.184,1.917 -0.25,2.75 l -2.4,13.75 -6.65,24.949 -4.7,25.8 c -0.066,0.3 -0.1,0.601 -0.1,0.9 -0.034,0.3 -0.051,0.6 -0.051,0.899 0,0.267 0.034,0.584 0.101,0.95 0.033,0.334 0.1,0.684 0.2,1.05 l 1.899,8 2.2,15.101 0.2,4.35 c 0,0.667 0,1.3 0,1.9 -0.033,0.633 -0.066,1.217 -0.101,1.75 l -0.1,6.95 c 0,0.5 0.033,0.983 0.1,1.449 0.067,0.434 0.134,0.834 0.2,1.2 0.066,0.3 0.134,0.667 0.2,1.101 l 0.05,14.449 2,18.65 1.351,57.5 1.55,12.75 4.149,17.1 3.552,22.051 1.4,4.25 z M 332.7,258.399 c -0.167,0.4 -0.351,0.884 -0.55,1.45 l -4.55,14.451 -1.199,5.6 -0.301,3.15 c -0.033,0.434 -0.033,0.85 0,1.25 0,0.366 0.017,0.733 0.051,1.1 0.033,0.334 0.116,0.684 0.25,1.05 0.066,0.334 0.183,0.684 0.35,1.051 0.134,0.399 0.316,0.833 0.55,1.3 l 6.65,11.899 0.5,0.75 c 0.267,0.4 0.55,0.851 0.85,1.351 0.267,0.467 0.517,0.916 0.75,1.35 0.233,0.467 0.45,0.884 0.65,1.25 0.166,0.367 0.283,0.684 0.35,0.95 0.066,0.233 0.184,0.55 0.351,0.95 l 3.85,7.8 0.25,-9.25 L 339.65,278 c -0.134,-0.867 -0.267,-1.7 -0.4,-2.5 -0.134,-0.801 -0.283,-1.584 -0.45,-2.351 -0.166,-0.767 -0.333,-1.533 -0.5,-2.3 l -4,-13.75 -0.149,-0.35 c -0.101,-0.101 -0.184,-0.134 -0.25,-0.101 -0.101,0 -0.2,0.066 -0.301,0.2 -0.133,0.1 -0.267,0.283 -0.399,0.55 -0.168,0.268 -0.335,0.602 -0.501,1.001 z m -114.55,1.5 c -0.167,-0.8 -0.334,-1.3 -0.5,-1.5 -0.067,-0.066 -0.117,-0.083 -0.15,-0.05 h -0.1 c -0.034,0.033 -0.067,0.083 -0.101,0.15 l -0.149,0.3 c -0.067,0.133 -0.184,0.6 -0.351,1.399 l -5.8,27 -0.3,1.051 -0.351,2.05 c -0.066,0.267 -0.083,0.5 -0.05,0.7 -0.033,0.366 0.017,0.616 0.15,0.75 0.033,0.033 0.1,0.066 0.2,0.1 0.033,-0.033 0.1,-0.066 0.199,-0.1 0.2,-0.101 0.434,-0.301 0.7,-0.601 0.266,-0.3 0.566,-0.7 0.9,-1.2 l 2.1,-3.949 c 1.4,-3 2.45,-6.101 3.15,-9.301 0.666,-3.199 0.983,-6.449 0.95,-9.75 l -0.301,-5.75 c -0.063,-0.499 -0.129,-0.931 -0.196,-1.299 z M 208,767.699 c 0,-0.108 0,-0.217 0,-0.324 -0.162,0.241 -0.296,0.466 -0.4,0.675 -0.233,0.366 -0.383,0.7 -0.449,1 -0.052,0.182 -0.052,0.331 0,0.45 0.12,-0.45 0.32,-0.834 0.6,-1.15 0.114,-0.132 0.239,-0.248 0.375,-0.35 -0.084,-0.117 -0.126,-0.217 -0.126,-0.301 z"
   id="path3"
   style="fill-rule:evenodd" />
    
</svg>