<?xml version="1.0" encoding="UTF-8" standalone="no"?>
<!-- Created with Inkscape (http://www.inkscape.org/) -->

<svg
   xmlns:svg="http://www.w3.org/2000/svg"
   xmlns="http://www.w3.org/2000/svg"
   version="1.2"
   width="139.62399"
   height="383.20401"
   viewBox="0 0 139.624 383.204"
   id="svg2"
   xml:space="preserve"><defs
   id="defs24" />
    
    <g
   id="Layer_6">
        
        <path
   d="m 116.709,195.254 c 0.167,6.566 -0.934,11.65 -3.3,15.25 -0.767,1.134 -1.617,2.05 -2.55,2.75 -0.767,0.5 -1.15,0.767 -1.15,0.8 0.134,5.367 0.6,10.566 1.4,15.601 0.733,5.033 1.116,8.166 1.149,9.399 0.167,7.634 -0.3,14.783 -1.399,21.45 -1.134,6.667 -1.7,10.35 -1.7,11.05 0.133,5.167 1.066,9.217 2.8,12.15 0.7,1.233 2.566,3.35 5.6,6.35 2.567,2.533 4.434,5.316 5.601,8.351 1.767,4.433 2.75,10.517 2.95,18.25 l -1.2,12.899 c -0.767,9.867 -1.084,18.017 -0.95,24.45 0.066,2.566 1.483,6.316 4.25,11.25 2.8,4.934 4.217,7.967 4.25,9.1 0.1,4.334 -1.85,6.5 -5.85,6.5 -0.534,0 -2.25,-0.366 -5.15,-1.1 -2.866,-0.733 -4.55,-1.1 -5.05,-1.1 -0.967,0.433 -2.334,0.85 -4.101,1.25 -3.466,0.833 -7.3,1.25 -11.5,1.25 -3.133,0 -6.3,-0.233 -9.5,-0.7 -3.199,-0.467 -6.366,-0.7 -9.5,-0.7 -0.3,0 -0.783,-0.25 -1.449,-0.75 -0.733,-0.5 -1.301,-1.033 -1.7,-1.6 1.166,-0.934 6.866,-3.101 17.1,-6.5 9.601,-3.9 14.351,-7.817 14.25,-11.75 -0.033,-2.667 -3.383,-15.317 -10.05,-37.95 -6.7,-22.667 -10.7,-34.95 -12,-36.851 -4.134,-6.133 -7.8,-16.216 -11,-30.25 -4.3,-19.1 -6.783,-42.433 -7.45,-70 -0.166,-7.933 0.851,-13.649 3.05,-17.149 2.801,-4.4 7.967,-6.601 15.5,-6.601 9.9,0 17.467,4.517 22.7,13.551 3.799,6.534 5.782,13.65 5.949,21.35 z"
   id="path5"
   style="fill-rule:evenodd" />
        
    </g>
    
    <g
   id="Layer_5">
        
        <path
   d="m 53.309,175.704 c 2.5,-2.367 4.75,-4.283 6.75,-5.75 6.601,-4.934 13.733,-8.134 21.4,-9.601 1.366,-0.267 2.233,-0.116 2.6,0.45 0.101,0.2 0.117,0.517 0.051,0.95 0.966,1.4 1.433,3.866 1.399,7.4 -0.033,3.267 -0.483,6.716 -1.35,10.35 -0.4,2.066 -1.434,5.8 -3.101,11.2 -1.699,5.5 -2.699,9.017 -3,10.55 l -1.75,10.3 c -0.1,0.2 -1.333,3.9 -3.699,11.101 0,0.033 0,0.066 0,0.1 0.566,1.333 0.883,2.95 0.949,4.85 0.167,7.034 -2.033,15.801 -6.6,26.301 -1.5,3.466 -3.017,6.55 -4.55,9.25 -0.233,0.899 -0.483,1.767 -0.75,2.6 -0.033,0.3 -0.101,0.7 -0.2,1.2 -0.134,0.467 -0.55,1.517 -1.25,3.149 -0.667,1.467 -1.083,2.601 -1.25,3.4 -0.066,0.3 -0.083,1.4 -0.05,3.3 -0.033,1.767 -0.033,2.733 0,2.9 -0.167,0.666 -0.5,1.733 -1,3.2 -0.134,0.433 -0.233,0.833 -0.3,1.199 0.767,0.934 1.449,2.317 2.05,4.15 0.333,1.066 0.733,2.483 1.2,4.25 2.3,6.866 3.5,12.634 3.6,17.3 0.167,6.566 -0.2,11.101 -1.1,13.601 -3.301,9.033 -5.417,15.216 -6.351,18.55 -0.767,2.767 -2.017,9.1 -3.75,19 -0.5,2.399 -1,4.483 -1.5,6.25 0.066,0.967 0.134,2.1 0.2,3.399 0.066,0.733 0.134,1.467 0.2,2.2 0.467,2.5 0.616,3.934 0.45,4.3 -0.134,0.267 -0.233,0.551 -0.301,0.851 l -0.05,0.05 c -0.066,0.066 -0.1,0.184 -0.1,0.35 -0.101,0.134 -0.233,0.317 -0.4,0.551 -0.267,0.366 -0.5,0.699 -0.7,1 -1.133,1.199 -2.733,1.8 -4.8,1.8 -1.5,-0.033 -3.017,-0.233 -4.55,-0.601 -1.6,-0.333 -3.317,-0.5 -5.15,-0.5 -0.1,0 -5.15,0.867 -15.15,2.601 -6.367,0 -10.667,-0.351 -12.9,-1.05 -1.167,-0.767 -2.2,-1.134 -3.1,-1.101 -0.233,-0.033 -0.684,0.101 -1.35,0.4 -0.7,0.233 -1.15,0.35 -1.35,0.35 -0.867,0 -1.567,-0.35 -2.1,-1.05 -0.533,-0.7 -0.717,-1.25 -0.55,-1.65 0.533,-1.267 2.816,-2.3 6.85,-3.1 6.733,-1.467 10.283,-2.267 10.65,-2.4 0.367,-0.133 3,-1.116 7.9,-2.949 2.367,-1.034 4.2,-1.75 5.5,-2.15 0.033,-0.033 0.083,-0.066 0.15,-0.1 1.833,-1.301 2.967,-2.834 3.4,-4.601 0.667,-1.967 1.284,-3.883 1.85,-5.75 -0.133,-0.666 -0.233,-1.416 -0.3,-2.25 -0.133,-6.066 -0.2,-9.133 -0.2,-9.2 -0.066,-1.866 0.05,-7 0.35,-15.399 0,-0.167 0.017,-0.316 0.05,-0.45 -0.066,-0.066 -0.117,-0.134 -0.15,-0.2 0.3,-4.6 0.383,-9.416 0.25,-14.45 -0.033,-1.166 -0.35,-4.333 -0.95,-9.5 -0.633,-5.133 -0.95,-7.916 -0.95,-8.35 -0.033,-0.7 -0.067,-1.35 -0.1,-1.95 0.467,-1.434 0.817,-2.666 1.05,-3.7 0,-0.033 0.017,-0.066 0.05,-0.1 h -0.05 c 0.466,-2.233 0.133,-4.65 -1,-7.25 -1.233,-2.7 -1.667,-4.816 -1.3,-6.35 0.367,-1.567 0.717,-2.733 1.05,-3.5 0.2,-0.434 0.417,-0.95 0.65,-1.551 -1.733,-1.433 -2.917,-3.966 -3.55,-7.6 -0.333,-1.866 -0.517,-4.017 -0.55,-6.45 0,-2.166 0,-3.383 0,-3.649 -0.1,-4.2 0.317,-9.634 1.25,-16.301 1.2,-7.5 2.033,-12.983 2.5,-16.449 0.233,-2 1.017,-4.733 2.35,-8.2 1.5,-3.934 2.433,-6.7 2.8,-8.3 0.5,-2.034 1.117,-3.75 1.85,-5.15 l 0.15,-0.8 c 0.167,-0.867 0.4,-2.617 0.7,-5.25 0.233,-2.533 0.367,-3.816 0.4,-3.851 0.5,-2.166 1.433,-4.649 2.8,-7.449 1.8,-3.567 3.483,-5.784 5.05,-6.65 -0.166,0.167 -0.366,0.483 -0.6,0.95 0.77,-0.734 1.887,-1.734 3.353,-3.001 z"
   id="path8"
   style="fill-rule:evenodd" />
        
    </g>
    
    <g
   id="Layer_2">
        
        <path
   d="m 113.009,72.954 c -0.333,3.2 -1.45,8.383 -3.35,15.55 -2.367,8.367 -3.483,13.533 -3.351,15.5 0,0.567 -0.3,2.65 -0.899,6.25 -2.667,15.134 -4,24.25 -4,27.35 -0.033,3.034 0.149,5.167 0.55,6.4 0.4,1.2 0.733,2.634 1,4.3 0.267,1.566 0.7,4.584 1.3,9.05 0.566,4.367 1.167,7.483 1.8,9.351 0.534,1.8 1.034,3.017 1.5,3.649 -0.267,4.2 -0.483,6.784 -0.649,7.75 -0.634,2.801 -1.75,5.7 -3.351,8.7 -1.5,2.434 -2.883,4.101 -4.149,5 -0.934,1.967 -2.584,3.684 -4.95,5.15 -1.767,1.066 -3.783,1.883 -6.05,2.45 h 1.2 c -1.634,0.366 -3.334,0.616 -5.101,0.75 -7.767,0.199 -11.684,1.083 -11.75,2.649 -0.066,0.8 -0.467,1.867 -1.2,3.2 -1.1,1.667 -2.35,2.517 -3.75,2.55 -4.666,-0.033 -7.6,-0.583 -8.8,-1.649 -0.6,-0.667 -0.967,-2.2 -1.1,-4.601 -0.033,-0.899 -0.2,-1.866 -0.5,-2.899 h -0.351 c -0.1,-0.467 -0.199,-0.9 -0.3,-1.301 -0.333,-0.8 -0.934,-1.466 -1.8,-2 -1.1,-0.733 -1.783,-1.333 -2.05,-1.8 0.033,-0.066 0.133,-0.149 0.3,-0.25 -0.3,-0.399 -0.55,-0.684 -0.75,-0.85 -1.467,-1 -3.167,-2.7 -5.1,-5.101 -0.833,-1 -1.517,-1.883 -2.05,-2.649 -0.833,-6.9 -1.233,-10.5 -1.2,-10.8 -0.7,-4.667 -1.033,-7.567 -1,-8.7 -0.233,-7.233 0.367,-14.117 1.8,-20.65 1.367,-6.533 2,-10.684 1.9,-12.45 -0.2,-1.866 -0.067,-3.283 0.4,-4.25 0.433,-1.066 0.233,-3.017 -0.6,-5.85 -0.933,-2.833 -0.367,-5.483 1.7,-7.95 0,-0.8 0.084,-1.633 0.25,-2.5 0.167,-1.8 0.233,-3.666 0.2,-5.6 -0.366,-2 -0.517,-3.55 -0.45,-4.65 -0.366,-0.466 -0.7,-0.933 -1,-1.4 -1.133,-1.8 -1.733,-3.133 -1.8,-4 -0.3,-2.133 -0.45,-4.517 -0.45,-7.15 -0.033,-0.233 0.367,-2.617 1.2,-7.15 0.733,-4.533 1.117,-7.317 1.15,-8.35 -1.1,-3.6 -1.65,-5.983 -1.65,-7.15 -0.033,-1.133 0.017,-1.8 0.15,-2 0.167,-0.4 0.917,-1.217 2.25,-2.45 0.566,-0.6 1.467,-0.95 2.7,-1.05 0.733,-0.133 1.649,-0.217 2.75,-0.25 0.899,-0.233 2.033,-0.733 3.399,-1.5 1.267,-0.934 2.767,-1.733 4.5,-2.4 -0.133,-0.3 -0.233,-0.6 -0.3,-0.9 -0.5,-1.4 -0.75,-2.333 -0.75,-2.8 -0.1,-1.533 0.333,-2.833 1.3,-3.9 -0.5,-0.467 -1.116,-0.883 -1.85,-1.25 -1.334,-0.7 -2.2,-0.684 -2.601,0.05 -0.033,-0.133 -0.05,-0.25 -0.05,-0.35 -0.1,-1.433 0.75,-3.183 2.55,-5.25 0.934,-1.2 2.483,-2.966 4.65,-5.3 1.3,-1.733 3.583,-3.5 6.85,-5.3 0.267,-0.167 0.534,-0.317 0.801,-0.45 1,-0.6 2.05,-1.15 3.149,-1.65 0.533,-0.167 1.217,-0.383 2.05,-0.65 1.867,-0.534 4.084,-0.867 6.65,-1 0.3,-0.067 0.667,-0.133 1.1,-0.2 0.367,0.3 0.784,0.633 1.25,1 0.034,-0.1 0.184,-0.167 0.45,-0.2 0.601,-0.2 0.95,0.017 1.05,0.65 0.301,-0.2 0.75,-0.034 1.351,0.5 0.434,0.333 0.666,0.633 0.7,0.9 l -0.45,0.65 v 0.05 l -0.05,0.55 0.3,-0.1 c 0.133,0.167 0.217,0.3 0.25,0.4 0,0.2 -0.134,0.417 -0.4,0.65 -0.267,0.2 -0.483,0.383 -0.649,0.55 -0.034,0.066 -0.051,0.167 -0.051,0.3 l 0.45,-0.15 0.25,0.05 0.3,1 c -0.066,0.3 -0.233,0.65 -0.5,1.05 -0.199,0.133 -0.383,0.267 -0.55,0.4 -0.033,0.067 -0.05,0.15 -0.05,0.25 0.333,-0.267 0.7,-0.433 1.1,-0.5 0.567,-0.167 0.867,-0.033 0.9,0.4 -0.033,0.2 -0.333,0.367 -0.9,0.5 0.334,-0.033 0.517,0.15 0.551,0.55 -0.667,0.933 -1.134,1.483 -1.4,1.65 v 0.25 c 0.066,-0.033 0.2,0 0.4,0.1 0.033,0.033 0.133,0.1 0.3,0.2 l -0.75,0.85 c 0,0.233 0.033,0.483 0.1,0.75 0.2,0.133 0.384,0.333 0.55,0.6 0.467,-0.2 0.7,-0.083 0.7,0.35 0,0.167 -0.066,0.4 -0.2,0.7 -0.199,0.233 -0.267,0.434 -0.199,0.6 0,0.067 0.1,0.317 0.3,0.75 0.1,0.4 0.166,0.733 0.2,1 0,0.033 -0.084,0.133 -0.25,0.3 0.066,0.4 0.216,0.784 0.449,1.15 0.301,0.5 0.851,1.367 1.65,2.6 0.733,1.067 1.366,1.917 1.9,2.55 0.3,0.367 2.35,2.1 6.149,5.2 0.434,0.367 0.851,0.717 1.25,1.05 0.233,0.167 0.533,0.333 0.9,0.5 0.366,0.133 0.717,0.316 1.05,0.55 0.233,-0.066 0.583,0.133 1.05,0.6 l 0.05,0.05 c 5.601,3.333 8.5,7.284 8.7,11.85 -0.033,0.3 -0.1,0.617 -0.2,0.95 -0.131,0.001 -0.147,0.034 -0.048,0.101 z"
   id="path11"
   style="fill-rule:evenodd" />
        
    </g>
    
    <g
   id="Layer_3">
        
        <path
   d="m 116.709,73.154 c 1.267,3.1 2.05,5.55 2.35,7.35 0.134,1.033 0.15,2.017 0.051,2.95 0.566,1.9 1.199,4.2 1.899,6.9 0.467,1.867 0.934,3.867 1.4,6 2.434,4.6 5.05,10.4 7.85,17.4 2.601,6.533 4.117,11.684 4.55,15.45 0.934,8.434 2.217,16.5 3.851,24.2 1.333,6.399 1.283,13.55 -0.15,21.449 -0.6,3.567 -1.434,7.051 -2.5,10.45 -0.166,0.533 -0.3,1.033 -0.399,1.5 0,0.566 0.017,1.167 0.05,1.8 0.233,1.733 0.316,3.267 0.25,4.601 0.366,0.2 0.767,0.416 1.2,0.649 l -0.101,0.051 c 0.033,0.033 0.05,0.066 0.05,0.1 1.767,3.667 2.284,7.25 1.551,10.75 -0.267,1.366 -0.334,2.55 -0.2,3.55 0.2,0.934 -0.033,2.601 -0.7,5 -0.3,1.767 -0.8,4.634 -1.5,8.601 -0.233,1.133 -0.517,1.833 -0.85,2.1 -0.334,0.233 -0.934,0.483 -1.801,0.75 -0.8,0.233 -1.283,0.4 -1.449,0.5 -0.634,0.667 -2.034,1.417 -4.2,2.25 -1.7,0.7 -2.867,1 -3.5,0.9 -0.7,-0.167 -1.217,-0.617 -1.55,-1.351 -0.067,-0.666 0.05,-1.283 0.35,-1.85 -0.1,0.033 -1.1,0.05 -3,0.05 -1.733,0.1 -2.866,0.083 -3.4,-0.05 -0.767,-0.134 -1.316,-0.384 -1.649,-0.75 -0.3,-0.434 -0.45,-0.9 -0.45,-1.4 0.2,-0.533 0.95,-0.967 2.25,-1.3 1.967,-0.366 3.417,-0.65 4.35,-0.85 4.301,-1.067 6.767,-3.117 7.4,-6.15 0.134,-0.667 0.184,-1.333 0.15,-2 -0.233,-1.4 -0.801,-2.217 -1.7,-2.45 -0.967,-0.1 -1.867,0.884 -2.7,2.95 -0.833,1.9 -1.8,2.75 -2.9,2.55 -1.466,-0.267 -2.35,-0.633 -2.649,-1.1 -0.167,-0.434 -0.15,-1 0.05,-1.7 0.6,-3.1 1.316,-6.066 2.15,-8.9 0.6,-2.466 1.166,-4.399 1.699,-5.8 l 0.101,-0.05 c -0.867,-2.866 -0.851,-5.316 0.05,-7.35 0,-0.467 0,-0.967 0,-1.5 -0.033,-0.634 -0.066,-1.284 -0.1,-1.95 -0.167,-0.134 -0.284,-0.25 -0.351,-0.351 l -1.5,-2.1 c -0.733,-1.866 -1.166,-8.5 -1.3,-19.9 0.1,-3.699 0.15,-6.783 0.15,-9.25 -0.233,-3.066 -0.434,-5.783 -0.601,-8.149 -1.967,-3.101 -4.017,-6.417 -6.149,-9.95 -4.733,-7.8 -7.75,-13.366 -9.051,-16.7 -1.466,-3.733 -2.316,-7.95 -2.55,-12.649 -0.033,-2.101 -0.066,-3.75 -0.1,-4.95 l -2.65,-4.6 c -0.5,-0.5 -1.1,-1.083 -1.8,-1.75 -2.733,-2.733 -4.684,-5.567 -5.85,-8.5 -2.367,-6 -2.801,-11.333 -1.301,-16 1.233,-4.067 3.7,-6.95 7.4,-8.65 1.134,-0.567 2.3,-0.934 3.5,-1.1 1.866,-1.133 3.6,-1.45 5.2,-0.95 2.434,0.7 4.083,1.85 4.95,3.45 2.566,1.732 4.516,4.332 5.849,7.799 z"
   id="path14"
   style="fill-rule:evenodd" />
        
    </g>
    
    <g
   id="Layer_4">
        
        <path
   d="m 51.61,61.954 c 6.433,-0.633 12.116,4.033 17.05,14 0.166,2.066 -0.55,6.35 -2.15,12.85 -1.467,5.633 -2.5,9.15 -3.1,10.55 -0.367,0.833 -0.884,1.517 -1.55,2.05 l -0.051,0.05 c -0.1,1.3 -0.216,2.7 -0.35,4.2 -0.033,0.633 -0.083,1.267 -0.15,1.9 0.801,3.634 1.2,7.45 1.2,11.45 -0.066,5.167 -0.85,9.467 -2.35,12.9 -0.767,1.767 -1.584,3.183 -2.45,4.25 0.5,1.533 0.333,3.25 -0.5,5.149 -0.4,0.967 -1.35,2.15 -2.85,3.55 0.199,1.233 0,2.684 -0.601,4.351 -0.133,0.267 -0.3,0.616 -0.5,1.05 -0.267,0.634 -0.6,1.5 -1,2.6 -0.666,1.5 -1.149,2.717 -1.45,3.65 -0.633,2 -1.666,4.616 -3.1,7.85 l -0.5,2.25 c -1.6,3.067 -2.65,5.084 -3.15,6.051 l -0.05,0.05 c -0.933,1.934 -2.267,4.684 -4,8.25 -2.5,5.1 -3.917,7.833 -4.25,8.2 -1.7,1.666 -3.2,4.066 -4.5,7.199 l -0.1,-0.05 c -0.034,0.134 -0.067,0.25 -0.1,0.351 -0.233,0.833 -0.483,1.699 -0.75,2.6 0,0.1 0,0.2 0,0.3 1.066,1.634 1.65,3.7 1.75,6.2 0.066,0.467 0.066,0.967 0,1.5 -0.1,0.134 -0.217,0.267 -0.35,0.4 -0.767,1.1 -1.45,4.116 -2.05,9.05 -0.434,3.166 -0.5,5.733 -0.2,7.7 0,0.3 -0.083,0.566 -0.25,0.8 -0.133,0.267 -0.533,0.5 -1.2,0.7 -0.767,0.433 -1.466,0.483 -2.1,0.149 -1.067,-0.8 -1.483,-1.733 -1.25,-2.8 0.2,-1.3 0.117,-2.233 -0.25,-2.8 -0.934,1 -1.45,1.566 -1.55,1.7 -0.233,0.366 -0.35,1.466 -0.35,3.3 0.5,0.033 0.934,0.2 1.3,0.5 0.8,0.566 1.233,1.25 1.3,2.05 0.067,0.6 -0.1,1.217 -0.5,1.85 -1.267,1.9 -2.4,3.017 -3.4,3.351 0,0.066 -0.05,0.116 -0.15,0.149 -0.733,0.601 -1.583,0.617 -2.55,0.051 -0.233,-0.167 -0.833,-0.334 -1.8,-0.5 -0.867,-0.2 -1.85,-0.684 -2.95,-1.45 -1.133,-0.867 -1.966,-1.65 -2.5,-2.351 -0.233,-0.366 -0.367,-0.666 -0.4,-0.899 -0.167,-0.167 -0.85,-0.566 -2.05,-1.2 -0.5,-0.3 -0.817,-0.634 -0.95,-1 -0.2,-0.634 0.133,-3.184 1,-7.65 0.1,-0.699 0.267,-2.383 0.5,-5.05 0.167,-1.833 0.417,-3.166 0.75,-4 -0.133,-0.7 -0.133,-1.333 0,-1.899 0.5,-1.934 1.383,-4.351 2.65,-7.25 1.967,-3.801 3.467,-6.7 4.5,-8.7 0.2,-0.4 0.4,-0.816 0.6,-1.25 l 0.05,0.05 c 0.066,-0.167 0.15,-0.283 0.25,-0.35 0.2,-0.301 0.383,-0.584 0.55,-0.851 l 8.75,-20.05 c 0.633,-2.866 1.2,-6.7 1.7,-11.5 0.3,-3.267 1.117,-6.417 2.45,-9.45 0.067,-0.1 0.85,-1.533 2.35,-4.3 1.4,-2.5 2.417,-4.483 3.05,-5.95 -0.367,-1.2 -0.7,-2.467 -1,-3.8 -0.966,-4.2 -1.683,-10.45 -2.15,-18.75 -0.5,-9.6 1.05,-18.6 4.65,-27 -0.566,-1.2 -0.983,-2.117 -1.25,-2.75 -0.833,-2 -1.133,-3.5 -0.9,-4.5 1,-4.333 1.767,-7.133 2.3,-8.4 0.767,-2.467 1.517,-4 2.25,-4.6 0.667,-0.6 2.017,-1.683 4.05,-3.25 2.001,-1.601 4.218,-2.534 6.652,-2.801 z"
   id="path17"
   style="fill-rule:evenodd" />
        
    </g>
    
    <g
   id="Layer_8">
        
        <path
   d="m 97.36,22.304 c 0.166,0.4 0.25,0.8 0.25,1.2 0,0.633 -0.334,1.3 -1,2 l -1.051,1.05 c 0,0.267 0.117,0.583 0.351,0.95 0.166,0.333 0.25,0.767 0.25,1.3 0,0.233 -0.066,0.517 -0.2,0.85 -0.2,0.367 -0.3,0.65 -0.3,0.85 0,0.167 0.133,0.533 0.399,1.1 0.233,0.566 0.351,1.066 0.351,1.5 0.033,0.4 0.033,0.667 0,0.8 -0.101,0.367 -0.367,0.567 -0.8,0.6 l 0.399,1.5 c 0,0.267 -0.017,0.433 -0.05,0.5 -0.066,0.133 -0.184,0.25 -0.35,0.35 -0.034,0.233 -0.167,0.45 -0.4,0.65 -0.366,0.333 -0.95,0.483 -1.75,0.45 0.033,0.133 0.083,0.267 0.15,0.4 0.199,0.367 0.3,0.667 0.3,0.9 0,0.2 -0.066,0.35 -0.2,0.45 l -0.65,0.05 c 0.101,0.133 0.15,0.233 0.15,0.3 l -0.05,0.35 h -0.55 c 0.033,0.167 0.017,0.3 -0.051,0.4 -0.066,0.067 -0.25,0.217 -0.55,0.45 h -0.6 c -0.167,0.4 -0.316,0.817 -0.45,1.25 -0.167,0.4 -0.25,0.867 -0.25,1.4 0.033,0.167 0.017,0.267 -0.05,0.3 -0.167,0.1 -0.566,0.15 -1.2,0.15 -0.033,0.033 -0.066,0.05 -0.1,0.05 0,0.133 0.083,0.35 0.25,0.65 0,0.1 -0.117,0.217 -0.351,0.35 -0.2,0.1 -0.366,0.15 -0.5,0.15 -0.533,0 -1.033,-0.167 -1.5,-0.5 -0.2,-0.167 -0.35,-0.316 -0.45,-0.45 -0.3,0.267 -0.533,0.4 -0.699,0.4 -0.467,0 -0.767,-0.167 -0.9,-0.5 -1.233,0.533 -3.333,1.383 -6.3,2.55 -0.7,0.267 -1.95,0.583 -3.75,0.95 -2.367,0.5 -3.7,0.783 -4,0.85 -3.733,1.267 -5.934,1.9 -6.601,1.9 -0.066,0 -0.133,0 -0.199,0 -0.301,0.3 -0.601,0.45 -0.9,0.45 -0.434,0 -0.783,-0.067 -1.05,-0.2 -0.267,-0.133 -0.783,-0.2 -1.55,-0.2 -0.334,0.167 -0.584,0.25 -0.75,0.25 -0.233,0 -0.45,-0.066 -0.65,-0.2 l -4.4,0.05 -0.8,0.1 c -1.333,0 -2.283,-0.533 -2.85,-1.6 -0.3,-0.6 -0.467,-1.217 -0.5,-1.85 l 0.2,-1.45 -1,-0.85 c -0.7,-0.6 -1.067,-1.083 -1.101,-1.45 0,-0.4 0.066,-0.816 0.2,-1.25 0.1,-0.333 0.15,-0.517 0.15,-0.55 -0.034,-0.033 -0.317,-0.6 -0.851,-1.7 -0.033,-0.4 0.316,-1.133 1.05,-2.2 0.667,-1.1 1,-1.767 1,-2 0,-0.1 -0.216,-0.467 -0.649,-1.1 -0.4,-0.633 -0.617,-1.233 -0.65,-1.8 0,-0.233 0.367,-0.867 1.101,-1.9 0,-0.133 0.399,-0.816 1.199,-2.05 0.767,-1.2 1.134,-2.483 1.101,-3.85 l -0.15,-0.55 -0.05,-0.05 c -0.333,-0.3 -0.65,-0.767 -0.95,-1.4 -0.399,-0.7 -0.6,-1.25 -0.6,-1.65 -0.033,-1 0.184,-1.733 0.649,-2.2 1.067,-1.1 1.867,-2.033 2.4,-2.8 1.533,-2.4 2.65,-4.033 3.35,-4.9 0.667,-0.767 1.4,-1.483 2.2,-2.15 v -0.05 l 0.3,-0.6 c 0,-0.167 -0.05,-0.333 -0.149,-0.5 -0.101,-0.167 -0.15,-0.283 -0.15,-0.35 0,-0.167 0.033,-0.383 0.101,-0.65 h -0.5 c -0.134,-0.033 -0.2,-0.167 -0.2,-0.4 0,-0.733 0.1,-1.217 0.3,-1.45 0.7,-0.4 1.05,-0.833 1.05,-1.3 -0.033,-0.667 0.384,-1.2 1.25,-1.6 0.7,-0.3 1.417,-0.45 2.15,-0.45 0.166,0 0.383,0.083 0.649,0.25 0.101,-0.2 0.217,-0.383 0.351,-0.55 0.6,-0.7 1.684,-0.983 3.25,-0.85 0.566,-0.6 1.434,-0.684 2.6,-0.25 0.167,0 1,-0.05 2.5,-0.15 0.533,-0.5 1.05,-0.566 1.55,-0.2 0.167,0 0.334,-0.1 0.5,-0.3 0.634,0 1.067,0.05 1.301,0.15 0.1,0 0.166,-0.034 0.199,-0.1 0.067,-0.067 0.134,-0.1 0.2,-0.1 0.3,0 0.517,0.183 0.65,0.55 0.133,0.367 0.467,0.534 1,0.5 0.066,-0.8 0.533,-1.233 1.399,-1.3 0.733,-0.033 1.4,0.133 2,0.5 0.101,0.1 0.351,0.233 0.75,0.4 0.134,0.067 0.25,0.15 0.351,0.25 0.233,-0.033 0.467,-0.05 0.7,-0.05 0.3,0 0.6,0.4 0.899,1.2 0,0.067 0,0.133 0,0.2 0.101,0.033 0.2,0.05 0.3,0.05 0.233,0 0.434,-0.117 0.601,-0.35 0.1,0 0.25,0.133 0.45,0.4 0.066,0 0.133,0 0.199,0 0.134,0 0.301,0.05 0.5,0.15 0.134,0.067 0.351,0.05 0.65,-0.05 h 0.5 l 0.05,0.25 c 0,0.1 -0.033,0.167 -0.1,0.2 -0.101,0.067 -0.15,0.133 -0.15,0.2 0,0.1 0.05,0.15 0.15,0.15 0.066,0 0.1,0.033 0.1,0.1 0.033,0.066 -0.083,0.217 -0.35,0.45 0.566,0.2 1.267,0.3 2.1,0.3 l 0.101,0.45 c 0.566,0.034 0.85,0.217 0.85,0.55 0,0.133 -0.134,0.3 -0.4,0.5 l -0.05,0.05 c 0.601,0.033 1.066,0.217 1.4,0.55 0.233,0.233 0.35,0.45 0.35,0.65 v 0.05 c 0.033,-0.033 0.066,-0.05 0.101,-0.05 l 0.1,0.2 -0.35,0.4 c -0.034,0.033 -0.051,0.066 -0.051,0.1 0.2,0 0.584,-0.083 1.15,-0.25 l 0.4,0.05 0.1,0.35 c 0,0.2 -0.184,0.466 -0.55,0.8 0.267,0.267 0.467,0.667 0.6,1.2 0.4,-0.034 0.967,0.167 1.7,0.6 0.667,0.434 1,0.817 1,1.15 0,0.2 -0.066,0.367 -0.2,0.5 -0.233,0.233 -0.416,0.45 -0.55,0.65 0.833,0.6 1.3,1.017 1.4,1.25 l 0.05,1 c 0,0.033 0.066,0.133 0.2,0.3 0.133,0.167 0.199,0.3 0.199,0.4 0.034,0.534 -0.199,1.117 -0.699,1.75 l 0.3,0.55 c 0,0.2 -0.184,0.417 -0.55,0.65 -0.301,0.133 -0.534,0.25 -0.7,0.35 0.033,0.066 0.066,0.15 0.1,0.25 0.233,-0.033 0.367,-0.033 0.4,0 0,0.033 -0.033,0.117 -0.101,0.25 l 1.25,-0.15 0.601,0.1 c -0.101,0.233 -0.316,0.517 -0.65,0.85 -0.333,0.367 -0.583,0.633 -0.75,0.8 0.033,0.066 0.217,0.25 0.55,0.55 0.334,0.267 0.517,0.45 0.551,0.55 z M 60.61,4.054 v 0.55 c 0,0.033 0.05,0.05 0.149,0.05 l 0.601,-0.05 -0.051,-0.35 c 0,-0.367 0.134,-0.683 0.4,-0.95 -0.233,0.034 -0.467,0.15 -0.7,0.35 -0.233,0.167 -0.366,0.3 -0.399,0.4 z m 4.649,-1.7 c 0.033,0 0.066,0 0.101,0 0.166,-0.167 0.333,-0.267 0.5,-0.3 0.066,0 0.149,0.017 0.25,0.05 0.133,-0.067 0.3,-0.133 0.5,-0.2 v -0.05 c -0.367,-0.133 -0.717,-0.067 -1.051,0.2 -0.1,0.1 -0.199,0.2 -0.3,0.3 z m -2.349,1.55 c 0,-0.033 0.033,-0.05 0.1,-0.05 0,-0.067 0.017,-0.117 0.05,-0.15 -0.066,0.033 -0.149,0.066 -0.25,0.1 0.033,0.033 0.066,0.067 0.1,0.1 z m -0.3,-0.7 c -0.233,0.133 -0.417,0.25 -0.551,0.35 -0.199,0.167 -0.3,0.317 -0.3,0.45 l 0.05,0.15 c 0.067,-0.066 0.134,-0.133 0.2,-0.2 0.101,-0.1 0.5,-0.333 1.2,-0.7 L 62.61,3.204 z m 7.349,-1.7 c 0.167,0.033 0.316,0.083 0.45,0.15 l 0.05,-0.05 c -0.133,-0.033 -0.299,-0.067 -0.5,-0.1 z m 5.3,-0.55 0.65,0.15 0.3,-0.05 c -0.633,-0.1 -0.95,-0.134 -0.95,-0.1 z m 6.05,0.45 c 0.134,0.167 0.2,0.3 0.2,0.4 l 0.05,-0.45 c 0,-0.2 -0.199,-0.35 -0.6,-0.45 0.033,0.067 0.066,0.133 0.1,0.2 0.067,0.033 0.15,0.133 0.25,0.3 z m -1.399,-0.55 -0.7,0.05 v 0.55 c 0.066,-0.1 0.134,-0.2 0.2,-0.3 0.1,-0.133 0.267,-0.2 0.5,-0.2 v -0.1 z m 4.149,1.35 c 0.067,0.066 0.134,0.133 0.2,0.2 0,-0.1 -0.017,-0.2 -0.05,-0.3 -0.066,0.033 -0.116,0.066 -0.15,0.1 z m 2.5,1.4 c 0.4,-0.2 0.65,-0.383 0.75,-0.55 -0.267,0 -0.55,0.083 -0.85,0.25 -0.033,0.034 -0.066,0.067 -0.1,0.1 0.067,0.067 0.134,0.133 0.2,0.2 z M 86.11,2.954 h -0.051 c 0,0.033 0.017,0.066 0.051,0.1 v -0.1 z m 1.05,2.35 v 0.5 l -0.05,0.1 c 0.1,-0.066 0.133,-0.267 0.1,-0.6 h -0.05 z m 1,-0.6 c -0.066,0 -0.101,0.05 -0.101,0.15 l 0.101,0.6 c 0.566,-0.1 0.934,-0.333 1.1,-0.7 l -1,-0.05 c -0.034,0 -0.067,0 -0.1,0 z m 2.799,2.15 c -0.634,0.033 -1.134,0.25 -1.5,0.65 0.4,-0.067 0.833,-0.133 1.3,-0.2 0.066,-0.133 0.134,-0.267 0.2,-0.4 v -0.05 z m -0.65,1 c -0.166,0.033 -0.383,0.1 -0.649,0.2 0,0.034 0,0.083 0,0.15 0.266,-0.1 0.483,-0.217 0.649,-0.35 z m 5.601,12.05 c 0.166,0.1 0.333,0.217 0.5,0.35 l 0.85,-0.5 c -0.566,0 -0.95,0.033 -1.149,0.1 l -0.201,0.05 z m -0.151,1.8 c -0.1,0.167 -0.166,0.4 -0.2,0.7 h 0.601 c 0,-0.2 -0.117,-0.45 -0.351,-0.75 l -0.05,0.05 z m 0.351,1.95 0.05,0.45 0.05,0.15 0.15,-0.05 c -0.101,-0.333 -0.184,-0.517 -0.25,-0.55 z m -1.25,4.9 c -0.034,0.067 -0.051,0.15 -0.051,0.25 0.101,0.034 0.2,0.067 0.301,0.1 -0.068,-0.133 -0.151,-0.25 -0.25,-0.35 z m 0.199,-0.35 0.2,0.15 h 0.05 c -0.1,-0.1 -0.166,-0.167 -0.199,-0.2 l -0.051,0.05 z m 0.051,1.75 c 0,-0.2 -0.117,-0.417 -0.351,-0.65 v 0.05 c 0,0.1 0.033,0.25 0.101,0.45 0.066,0.067 0.133,0.15 0.199,0.25 0.034,0.1 0.051,0.067 0.051,-0.1 z m -35.401,-22.9 -0.4,-0.05 v 0.1 l 0.4,-0.05 z m 35.651,24.45 v -0.05 l -0.051,0.05 h 0.051 z m -0.95,1.1 c 0.366,0.433 0.8,0.816 1.3,1.15 h 0.25 c -0.033,-0.233 -0.116,-0.483 -0.25,-0.75 l -0.55,-0.1 c -0.2,-0.2 -0.384,-0.367 -0.55,-0.5 -0.068,0.033 -0.134,0.1 -0.2,0.2 z m 0.849,-0.05 0.25,-0.05 c 0,-0.2 -0.033,-0.333 -0.1,-0.4 -0.066,-0.133 -0.233,-0.133 -0.5,0 -0.033,0 -0.05,0.017 -0.05,0.05 l 0.4,0.4 z m 0.401,3.45 c 0,-0.233 -0.05,-0.417 -0.15,-0.55 0.066,0.233 0.101,0.517 0.101,0.85 0.032,-0.1 0.049,-0.2 0.049,-0.3 z m -3.25,3.7 c 0,0.033 0.017,0.066 0.05,0.1 l 0.3,0.05 c -0.1,-0.133 -0.166,-0.233 -0.2,-0.3 -0.067,0.033 -0.117,0.083 -0.15,0.15 z m 1.149,-0.55 c -0.1,-0.2 -0.166,-0.367 -0.199,-0.5 -0.034,-0.066 -0.084,-0.1 -0.15,-0.1 -0.033,0.1 -0.083,0.217 -0.15,0.35 0,0.033 0.017,0.05 0.051,0.05 0.098,0.067 0.249,0.133 0.448,0.2 z m -1.3,1.2 c 0,-0.033 -0.066,-0.133 -0.2,-0.3 -0.267,0.3 -0.433,0.567 -0.5,0.8 h 0.45 c 0.167,-0.167 0.25,-0.333 0.25,-0.5 z m -4.899,4.1 0.25,0.05 -0.101,-0.55 h -0.1 l -0.25,0.2 0.201,0.3 z"
   id="path20"
   style="fill-rule:evenodd" />
        
    </g>
    
</svg>