<?xml version="1.0" encoding="UTF-8" standalone="no"?>
<!-- Created with Inkscape (http://www.inkscape.org/) -->

<svg
   xmlns:svg="http://www.w3.org/2000/svg"
   xmlns="http://www.w3.org/2000/svg"
   version="1.2"
   width="314.04001"
   height="300"
   viewBox="0 0 314.04 300"
   id="Layer_1"
   xml:space="preserve"
   style="overflow:inherit"><defs
   id="defs18" />
<g
   id="X7ENft_1_">
	<g
   id="g4">
		<path
   d="m 52.32,139.68 c -0.282,0.038 -0.269,0.371 -0.48,0.48 0.224,0.369 0.57,-0.139 0.48,-0.48 z"
   id="path6"
   style="fill-rule:evenodd" />
		<path
   d="m 167.88,156 c 0.296,0.016 0.578,0.019 0.72,-0.12 0,-0.16 0,-0.32 0,-0.479 -0.372,0.066 -0.737,0.142 -0.72,0.599 z"
   id="path8"
   style="fill-rule:evenodd" />
		<path
   d="m 0,212.52 c 0.927,-3.192 2.86,-5.379 5.16,-7.199 -1.071,-1.64 0.202,-2.525 0.84,-3.721 0.967,-0.633 1.887,-1.313 2.28,-2.52 2.916,-1.519 6.413,-1.801 9.6,-3.12 0.557,-0.117 0.163,0.717 0.72,0.601 0.136,-2.074 2.529,-1.303 3.36,-2.521 0.482,0.392 -0.706,1.103 -0.12,1.2 0.573,-0.027 0.413,-0.788 0.96,-0.84 1.046,0.497 2.738,1.277 3.84,0.96 0.451,-0.092 0.083,0.637 0.6,0.479 0.368,-0.141 0.985,-1.024 1.2,-0.24 0.579,-0.78 1.164,-1.557 1.92,-2.16 0.106,-0.385 -0.396,-0.164 -0.36,-0.479 0.292,-0.429 0.775,-0.664 1.2,-0.96 0.066,-0.266 -0.229,-0.171 -0.24,-0.36 1.431,-2.089 2.68,-4.359 4.44,-6.12 0.997,-2.774 2.626,-5.302 2.88,-8.159 0.148,-0.452 0.462,-0.738 0.72,-1.08 -0.333,-1.085 0.31,-2.863 0.84,-3.84 -0.212,-3.967 2.309,-6.182 2.52,-9.601 1.044,-1.562 1.085,-3.859 1.68,-5.399 0.066,-0.267 -0.229,-0.171 -0.24,-0.36 0.093,-0.588 0.507,-0.854 0.72,-1.32 -0.175,-1.287 0.86,-2.316 1.44,-3.24 -0.028,-1.148 0.457,-1.783 0.96,-2.399 0.48,-3.718 3.541,-5.258 4.56,-8.76 0.681,-0.399 1.172,-0.988 1.32,-1.92 0.105,-0.559 -0.311,0.166 -0.36,-0.24 0.315,-1.045 0.557,-2.163 1.32,-2.76 0.308,-2.413 1.572,-3.868 2.4,-5.76 0.033,-0.421 0.531,0.216 0.48,-0.12 0.68,-1.978 1.3,-3.735 2.16,-5.28 0.148,-0.389 -0.388,-0.092 -0.24,-0.48 0.278,-1.379 2.201,-2.336 1.68,-3.72 0.018,-0.534 -0.487,-0.072 -0.6,0 0.292,-1.148 1.03,-1.85 1.32,-3 -0.725,0.376 -0.9,0.199 -1.68,0.36 -0.256,-0.842 0.135,-2.577 -0.48,-3.36 0.685,-2.208 -0.139,-4.958 1.08,-7.08 -0.377,-0.138 -0.292,0.188 -0.48,0.24 0.456,-2.066 -0.238,-3.156 0.72,-4.8 0.105,-0.559 -0.396,0.081 -0.36,-0.24 0.203,-1.077 0.436,-2.125 1.2,-2.64 -0.103,-0.495 -0.327,-0.512 -0.12,-1.08 -0.542,0.257 -0.411,1.189 -0.72,1.68 -0.185,-0.695 -0.032,-2.071 0.12,-2.52 -0.032,-0.488 -0.541,0.088 -0.72,-0.36 -0.502,-0.902 0.254,-1.509 0.6,-2.4 0.267,-0.688 0.046,-1.816 0.84,-1.44 -0.498,-1.111 0.711,-1.195 0.96,-1.92 -0.041,-0.594 -0.315,0.1 -0.6,0 0.819,-1.592 -0.414,-2.655 0,-4.44 -0.388,-0.107 -0.169,0.391 -0.36,0.48 -0.93,-2.208 1.274,-4.749 0.36,-6.96 0.161,-1.119 0.863,-1.697 1.32,-2.52 -0.708,-0.89 -0.163,-1.718 0,-2.88 -0.27,-0.339 -0.236,0.636 -0.36,0.84 -0.54,-1.3 0.246,-2.757 0,-4.08 -0.153,-0.821 -1.369,-1.234 -0.96,-2.28 -0.251,-0.051 -0.318,0.082 -0.48,0.12 -0.486,-1.414 -1.58,-1.519 -2.04,-3 -0.16,0.151 -0.235,0.361 -0.479,0.12 -0.285,-0.236 -0.245,-0.796 -0.24,-1.32 -0.199,0.121 -0.13,0.51 -0.24,0.72 -0.09,-0.39 -0.641,-0.319 -0.96,-0.48 0.185,-1.104 -0.347,-1.493 -0.24,-2.52 -0.519,0.483 -0.368,-0.431 -0.84,-0.36 0.153,0.873 -0.477,0.963 -0.84,1.32 -0.928,-1.112 -1.597,-2.483 -2.64,-3.48 -0.073,-0.287 -0.173,-0.547 -0.12,-0.96 0.121,-0.361 -0.268,-0.212 -0.48,-0.24 -0.015,-0.495 0.208,-0.751 0.12,-1.32 -0.454,0.186 -0.28,0.999 -0.48,1.439 -0.43,-0.009 -0.095,-0.784 -0.36,-0.96 -0.251,0.109 -0.042,0.678 -0.36,0.72 -0.457,0.096 -0.153,-0.567 -0.24,-0.84 -0.411,-0.011 -0.069,0.73 -0.48,0.72 -0.383,-0.535 0.13,-1.951 0.36,-2.64 -0.143,-0.377 -0.562,-0.478 -0.6,-0.96 -0.552,0.088 -0.923,0.357 -1.32,0.6 -0.771,-2.323 0.038,-5.076 0,-7.32 0.056,-0.256 -0.171,-0.229 -0.36,-0.24 0.205,-1.708 0.079,-3.25 0.12,-5.04 -0.086,-0.326 0.566,0.086 0.48,-0.24 -0.366,-0.395 -0.528,-0.992 -0.6,-1.68 -0.596,-0.523 -1.3,-0.939 -1.32,-2.04 -0.867,0.541 -1.742,-0.933 -1.92,0.12 -0.246,-0.194 -0.302,-0.577 -0.479,-0.84 -0.438,0.037 -0.781,-0.019 -1.08,-0.12 -0.624,-0.776 -1.226,-1.575 -2.28,-1.92 -0.29,-0.91 -0.804,-1.596 -1.68,-1.92 -0.808,-2.153 -1.622,-4.299 -1.8,-7.08 -1.104,-1.295 -0.239,-4.561 -1.44,-5.76 -0.179,-2.459 0.874,-3.687 1.92,-4.92 0.64,-0.16 0.32,0.64 0.96,0.48 -0.064,-0.544 0.241,-0.719 0.36,-1.08 0.073,0.295 0.734,0.618 0.72,0 0.262,0.564 0.833,0.133 1.32,0.36 0.41,-0.011 0.069,0.73 0.479,0.72 1.059,-0.531 1.85,0.402 3.12,0.36 0.355,-1.115 -0.165,-1.647 -0.72,-2.16 -0.098,-0.658 0.423,-0.697 0.24,-1.44 -0.542,-0.062 -0.951,0.009 -1.08,0.36 0.042,-0.353 -0.036,-1.77 0.72,-1.8 -0.017,-2.409 2.026,-3.71 3.48,-5.04 0,-0.32 0,-0.64 0,-0.96 0.474,-0.566 1.46,-0.62 2.28,-0.84 0.322,-0.9 0.614,-1.623 0.24,-2.64 0.4,-0.34 0.416,0.473 0.84,0.48 0.292,-0.068 0.617,-0.103 0.6,-0.48 0.359,0.081 0.078,0.802 0.48,0.84 0.463,0.023 0.128,-0.752 0.36,-0.96 0.781,0.45 1.875,-0.295 3.12,-0.24 0.342,-0.818 1.864,-0.456 2.04,-1.44 0.266,-0.066 0.171,0.229 0.36,0.24 0.379,-0.982 2,-0.946 3.24,-0.72 0.529,0.089 0.226,-0.654 0.6,-0.72 0.848,-0.128 1.132,0.308 1.56,0.6 0.402,-0.038 0.336,-0.544 0.36,-0.96 0.457,0.264 0.758,0.062 0.84,-0.36 0.873,-0.192 0.946,0.415 1.56,0.48 0.346,-0.254 0.699,-0.501 1.08,-0.72 0.996,0.725 2.368,1.073 2.52,2.64 0.942,-1.1 1.751,-3.531 3.36,-1.68 0.613,-0.027 0.533,-0.747 0.96,-0.96 0.291,0.23 0.255,0.785 0.72,0.84 2.046,-0.256 4.558,-1.853 7.2,-1.32 0.496,0.1 1.162,0.416 1.32,1.08 0.707,-0.608 0.951,0.321 1.68,-0.24 0.246,0.194 -0.005,0.885 0.24,1.08 0.932,-0.287 1.74,0.251 2.64,0.36 0.287,0.153 0.488,0.392 0.48,0.84 1.86,0.66 2.363,2.677 3.36,4.2 0.458,0.062 0.821,0.219 1.08,0.48 0.118,0.282 0.21,0.589 0.24,0.96 0.331,0.19 0.608,0.432 0.96,0.6 0.042,1.237 1.626,1.738 2.28,3 -0.375,0.58 -0.135,1.129 0.24,1.56 1.388,-0.532 2.425,-1.415 3.6,-2.16 0.28,0 0.56,0 0.84,0 0.278,-0.793 1.406,-0.351 1.8,-1.2 0.745,0.252 3.509,-0.146 4.68,0.12 0.425,0.717 0.909,0.711 1.8,0.84 1.032,2.256 -0.036,5.581 0.24,8.521 0.053,0.566 0.356,1.079 0.36,1.56 0.005,0.736 -0.317,1.356 0,2.16 0.734,-0.186 1.544,-0.295 2.04,-0.72 0.583,0.057 0.389,0.891 1.2,0.72 0.186,0.312 -0.198,1.033 0.12,1.44 0.792,-0.426 1.664,-0.331 1.92,-1.08 0.692,0.852 0.149,1.92 0.36,2.88 0.434,-0.366 0.211,-1.089 0.84,-1.44 0.162,-0.09 0.415,0.136 0.6,0 0.548,-0.402 0.701,-1.249 1.44,-1.08 0.904,0.207 0.393,1.589 0.84,2.64 0.633,-0.207 0.86,-0.82 1.32,-1.2 0.506,0.149 -0.011,0.492 0,0.84 0.439,0.079 0.46,-0.26 0.84,-0.24 0.304,0.788 1.608,-0.035 1.68,1.08 0.323,0.083 0.232,-0.248 0.36,-0.36 0.647,0.392 0.676,1.404 1.56,1.56 0.52,0.079 0.04,-0.841 0.36,-0.96 0.466,0.094 -0.054,1.173 0.6,1.08 -0.355,-0.443 0.331,-0.647 0.12,-1.32 0.469,0.113 0.102,0.605 0.12,0.96 0.901,0.927 1.998,0.433 2.64,1.56 0.461,-0.019 0.694,-0.266 0.96,-0.48 0.56,0.585 -0.672,0.957 -1.08,1.32 0.038,0.282 0.189,0.45 0.12,0.84 0.573,-0.308 1.016,0.5 0.96,-0.36 0.451,0.549 0.851,1.149 1.32,1.68 1.451,-0.434 2.538,-0.877 3.72,-1.08 0.232,0.733 0.418,2.01 0,2.28 0.751,1.35 2.002,0.645 3.36,0.36 -0.083,1.296 0.761,2.346 2.4,2.28 0.323,0.312 -0.146,0.362 -0.12,0.72 0.679,-0.485 1.906,-0.243 1.92,0.48 0.4,0 0.8,0 1.2,0 0.378,-0.058 0.09,0.55 0.36,0.6 1.317,0.156 2.51,0.337 3.24,1.32 1.059,-0.519 2.076,0.724 3.24,0.48 0.37,0.16 -0.224,0.534 0.12,0.72 0.27,-0.13 0.521,-0.279 0.84,-0.36 0.386,0.192 -0.422,0.448 0,0.72 1.716,-0.357 2.984,0.771 4.56,0.96 0.248,0.033 0.029,0.532 0.36,0.48 1.852,0.12 2.83,0.515 4.08,1.08 -0.081,0.279 -0.63,0.09 -0.48,0.6 0.747,0.078 1.143,0.036 1.681,0.12 0.704,0.735 1.78,1.099 2.88,1.44 0.188,0.365 -0.733,0.204 -0.24,0.48 0.726,0.704 2.602,0.38 2.64,1.44 1.021,-0.021 0.993,1.007 1.92,1.08 0.135,0.378 0.012,0.271 0,0.72 1.427,0.478 2.214,0.912 3.12,1.8 1.114,-0.034 1.643,0.518 2.28,0.96 1.141,0.103 1.856,0.073 2.16,0.84 0.664,-0.36 1.284,0.452 1.32,0.72 0.889,-0.009 1.271,0.489 2.159,0.48 0.569,0.085 0.432,0.765 1.08,0.48 0.285,0.245 -0.164,0.475 0.12,0.72 0.445,-0.085 0.515,0.205 0.96,0.12 0.09,0.37 -0.413,0.146 -0.24,0.6 0.648,0.817 2.86,0.064 2.881,1.56 1.674,0.006 1.961,1.399 3.359,1.68 0.643,1.632 3.362,1.711 3.601,3.36 1.951,0.648 3.044,2.156 4.56,3.24 2.045,0.515 3.061,2.06 4.8,2.88 0.167,0.154 0.073,0.567 0.24,0.72 2.841,1.039 4.456,3.304 7.08,4.56 0.915,1.005 2.17,1.67 3.36,2.4 0.162,0.037 0.1,0.3 0.119,0.48 1.038,-0.083 1.479,1.269 2.641,1.44 0.371,0.829 1.616,0.784 1.92,1.68 1.005,0.035 1.293,0.787 2.04,1.08 0.167,0.153 0.073,0.566 0.24,0.72 2.055,0.585 3.219,2.061 4.68,3.24 1.558,0.283 2.343,1.336 3.36,2.16 0.229,0.225 0.217,-0.071 0.6,0 1.386,1.054 2.477,2.403 3.84,3.48 0.738,-0.634 1.431,0.976 2.28,-0.12 -0.146,0.683 0.643,0.672 0.84,0.36 0.353,0.102 -0.156,0.302 0,0.6 0.619,-0.141 1.124,-0.396 1.8,-0.48 0.398,0.039 -0.315,0.523 0.12,0.6 0.744,0.064 0.847,-0.513 1.2,-0.84 1.146,0.721 2.497,-0.066 3.96,0.12 0.479,-0.887 1.852,-0.797 2.16,-1.56 0.991,0.451 2.126,-0.729 3.239,-1.2 0.36,0.079 -0.114,0.256 0,0.48 0.98,-0.277 2.882,-1.456 3.721,-0.36 0.792,0.077 0.079,-0.775 0.96,-0.72 0.492,-0.055 -0.049,0.256 0.12,0.6 3.463,-1.048 5.617,-1.149 9.359,-1.08 0.34,0.061 0.12,0.681 0.48,0.72 1.168,-0.002 1.944,-0.782 3,-0.72 1.07,0.063 2.102,1.059 3.24,0.48 0.595,-0.051 0.067,0.359 0.359,0.48 0.512,-0.009 0.84,-0.201 1.44,-0.12 0.316,-0.036 0.394,0.166 0.36,0.48 2.438,-0.337 3.995,-0.233 5.279,0.6 -0.177,0.622 -0.833,-0.432 -0.96,0.24 0.671,0.434 1.329,0.132 1.8,-0.24 0.387,0.386 0.423,0.521 1.2,0.36 0.148,0.388 -0.388,0.092 -0.239,0.48 1.262,-0.311 2.316,0.111 2.64,1.08 0.629,0.029 1.236,-0.468 1.68,-0.24 0.047,0.486 -0.794,0.085 -0.6,0.72 0.622,-0.137 1.087,-0.433 1.92,-0.36 0.836,0.59 1.789,0.109 2.64,0.96 0.41,0.273 -0.547,0.465 -0.12,0.72 0.387,0.173 0.903,0.01 0.841,-0.6 0.405,0.114 0.586,0.453 0.84,0.72 -0.173,0.268 -0.478,0.403 -0.48,0.84 1.9,0.023 3.045,0.244 3.96,1.08 -0.797,-0.003 -1.216,-0.384 -1.92,-0.479 1.047,1.103 2.54,1.433 4.2,1.68 0.174,0.329 -0.087,0.725 0.12,1.2 0.373,0.02 1.004,0.534 1.2,0 0.006,0.245 0.384,0.696 0.959,0.72 0.269,0.018 -0.155,0.303 0,0.6 0.692,0.588 1.919,0.642 2.041,1.8 0.895,0.145 1.449,0.63 1.68,1.439 2.171,0.589 2.5,3.02 4.68,3.6 1.037,1.389 1.502,2.626 2.641,3.84 0.1,0.385 0.102,0.249 -0.12,0.48 0.325,0.834 1.229,1.091 1.56,1.92 0.32,0.31 -0.276,0.126 -0.12,0.6 0.454,0.195 0.913,0.664 0.48,1.08 0.616,0.304 0.938,0.902 1.439,1.32 -0.019,0.141 -0.219,0.101 -0.359,0.12 0.693,1.021 1.345,2.607 2.399,2.88 0.127,2.574 0.301,3.909 1.08,6 -0.603,0.805 0.076,1.314 0.24,2.28 0.366,0.308 0.376,-0.469 0.84,-0.12 -0.33,1.047 0.502,2.303 0,3.36 0.234,0.326 0.574,0.546 0.72,0.96 0.233,3.554 0.463,7.422 -0.12,10.92 -0.107,0.548 0.2,0.68 0.24,1.08 0.033,0.473 -0.513,0.367 -0.479,0.84 0.265,4.345 -1.303,6.857 -1.44,10.8 0.023,0.504 -0.727,0.233 -0.72,0.721 -0.019,0.531 0.339,-0.057 0.479,0.239 -0.64,3.501 -2.543,5.677 -3.239,8.521 -0.356,-0.284 0.189,-1.47 -0.48,-1.44 -0.021,0.439 -0.128,1.737 0.24,2.16 -0.776,1.423 -1.089,3.312 -2.04,4.561 -0.067,2.535 -1.53,3.296 -2.4,4.8 -0.163,-0.413 0.359,-1.045 0.36,-1.681 -0.787,1.12 -0.857,2.316 -1.2,3.96 -0.411,0.004 -0.41,-0.026 -0.96,0.24 -1.969,2.951 -3.358,6.481 -6,8.76 -0.248,1.334 -1.811,2.227 -2.28,3.721 -0.338,0.061 -0.51,0.29 -0.84,0.359 -0.13,0.734 -0.631,1.748 -1.56,2.04 -0.805,1.836 -2.456,2.824 -3.36,4.561 -0.339,0.062 -0.51,0.29 -0.84,0.36 -0.799,1.761 -2.735,2.384 -3.48,4.199 -0.343,0.178 -0.496,0.543 -0.959,0.601 0.322,0.573 -0.418,0.663 -0.48,1.2 -0.405,-0.024 -0.76,0.247 -1.2,0.119 0.774,0.848 -0.4,1.133 -0.96,1.32 -0.172,0.176 -0.176,0.465 0.24,0.36 -0.588,0.25 -0.845,0.922 -1.92,0.96 0.807,0.863 -0.635,1.37 -1.44,1.68 -1.154,1.988 -3.379,2.238 -4.68,3.96 -0.273,0.033 -0.451,-0.029 -0.48,-0.24 -1.005,1.374 -2.704,2.629 -4.319,3 -2.639,2.188 -5.492,3.979 -8.521,6 -0.135,0.306 -0.295,0.585 -0.479,0.841 -2.745,0.854 -4.71,2.489 -6.721,4.079 0.256,1.585 2.098,1.583 2.4,3.12 0.694,0.187 1.04,0.72 1.32,1.32 0.755,0.365 1.438,0.802 1.68,1.68 1.36,0.24 2.184,1.017 2.88,1.92 1.431,0.13 1.721,1.4 3,1.681 -0.111,0.471 0.417,0.303 0.24,0.84 0.862,-0.392 0.781,0.687 1.56,0.72 -0.369,1.141 0.087,2.357 0.36,3.24 -0.522,2.305 -2.255,5.788 -3.72,7.56 -0.815,0.986 -2.117,1.509 -3.12,2.28 -0.407,0.313 -0.582,0.85 -0.96,1.2 -1.064,0.987 -2.559,1.501 -3.36,2.64 -0.765,0.15 -1.266,0.461 -1.8,1.08 -2.787,1.731 -6.227,3.38 -9.48,4.44 -0.626,0.204 -1.492,1.209 -2.039,1.68 -0.43,0.131 -0.804,0.317 -1.2,0.479 -0.269,0.609 -0.397,1.036 -0.24,1.681 -0.73,0.469 -0.735,1.665 -0.96,2.64 -0.789,0.794 -1.937,1.691 -3.36,1.561 -1.119,-0.104 -1.794,-1.048 -2.52,-1.2 -0.261,0.979 -0.149,2.33 -0.36,3.36 -0.881,0.998 -2.034,1.726 -3.48,2.159 -0.744,-0.695 -1.285,-1.594 -1.92,-2.399 -1.122,0.806 -2.632,0.41 -3.119,-0.721 -0.152,-0.352 0.023,-0.93 -0.12,-1.56 -0.148,-0.646 -0.684,-1.196 -0.72,-1.56 -0.196,-1.934 1.251,-3.778 1.8,-4.801 0.06,-2.141 1.234,-4.674 0.479,-6.479 0.013,-0.308 0.447,-0.193 0.6,-0.36 0.166,-1.794 1.641,-2.279 2.4,-3.479 2.228,-1.053 3.367,-3.193 5.4,-4.44 0.803,-1.276 2.288,-1.872 3.359,-2.88 1.065,0.206 1.587,-0.271 2.761,-0.24 0.345,-0.706 0.352,-1.49 0.239,-2.399 -1.184,-0.896 -2.527,-1.633 -2.76,-3.48 -0.387,-0.107 -0.168,0.392 -0.359,0.48 -0.495,0.094 -0.226,-0.575 -0.721,-0.48 -1.384,0.496 -2.1,1.66 -3.6,2.04 -0.712,0.675 -1.8,1.523 -2.76,1.56 -0.799,1.802 -2.84,2.36 -3.961,3.841 -0.282,-0.003 -0.353,0.206 -0.72,0.12 -1.746,1.813 -3.75,3.369 -6.12,4.56 -1.018,1.303 -2.437,2.203 -3.6,3.36 -0.141,-0.02 -0.102,-0.219 -0.12,-0.36 -0.785,0.608 -1.24,2.44 -2.399,1.92 0.012,0.372 -0.378,0.343 -0.24,0.84 -0.468,-0.027 -0.622,0.258 -0.96,0.36 -0.883,1.397 -1.909,2.651 -3.601,3.24 -0.601,1.799 -2.221,2.579 -3.119,4.08 -0.386,0.073 -0.165,-0.433 -0.48,-0.12 -1.871,2.969 -4.206,5.474 -6.48,8.04 -0.704,1.415 -1.259,2.98 -2.52,3.84 -0.015,1.252 -1.267,2.233 -1.68,3.479 -0.205,-0.013 -0.28,0.312 -0.601,0.48 -0.887,2.353 -2.014,4.466 -3.36,6.36 -0.115,0.857 -0.151,2.114 -0.84,2.039 0.109,0.789 -0.175,1.185 -0.6,1.44 -0.008,1.272 -0.835,1.725 -0.96,2.88 -0.154,0.311 -0.248,0.377 -0.601,0.24 -0.067,2.104 -1.421,3.93 -2.159,5.76 0.028,1.349 -0.728,1.913 -0.96,3 -0.447,0.125 -0.816,0.513 -1.32,0.24 -0.165,0.932 -1.889,0.913 -2.16,0.12 -0.092,-0.452 0.146,-0.574 0.12,-0.96 -0.952,-0.819 -0.427,-2.835 -0.6,-4.2 0.002,-0.358 0.312,-0.408 0.359,-0.72 0.357,-4.568 2.263,-8.211 2.641,-12.36 0.346,-0.397 0.283,0.487 0.6,0.12 0.117,-0.694 -0.559,-1.647 0.36,-2.16 -0.242,-0.865 0.396,-1.718 0.72,-2.4 0.188,0.052 0.103,0.378 0.479,0.24 0.367,-1.53 0.886,-2.556 1.801,-3.72 0.289,-0.05 0.261,0.219 0.6,0.12 0.138,-0.378 -0.188,-0.292 -0.24,-0.48 1.464,-1.496 2.177,-3.743 3.601,-5.279 0.173,0.388 -0.426,0.895 -0.48,1.439 1,-0.68 1.062,-2.299 2.04,-3 -0.24,0.041 -0.375,-0.024 -0.359,-0.24 -0.218,-0.909 0.761,-1.171 1.08,-1.68 0.06,-0.096 -0.024,-0.538 0,-0.6 0.369,-0.972 1.691,-1.927 2.64,-3.12 0.995,-1.254 1.354,-2.796 2.64,-3.72 0.088,-0.526 -0.238,0.096 -0.24,-0.24 0.643,0.254 0.842,-0.839 1.561,-0.48 0.275,-0.484 0.758,-0.762 0.84,-1.439 -0.411,0.188 -0.805,0.396 -1.08,0.72 0.128,-0.714 1.198,-1.521 1.92,-2.04 0.857,-2.143 3.071,-2.929 4.32,-4.68 -0.196,-0.266 -0.705,0.167 -0.96,0.239 0.58,-0.899 1.774,-1.185 2.52,-1.92 0.328,-0.331 -0.176,-0.112 -0.239,-0.359 0.56,-0.398 0.831,-1.177 1.56,-1.08 -0.241,-0.795 0.829,-1.118 1.44,-1.44 0.147,-0.389 -0.389,-0.092 -0.24,-0.479 1.422,-0.658 2.362,-1.798 3.84,-2.4 -0.012,-0.932 1.023,-0.816 1.08,-1.68 4.172,-2.269 7.722,-5.158 11.76,-7.561 0.11,-0.77 0.878,-0.882 1.08,-1.56 -0.449,-1.227 -1.859,-2.011 -1.92,-3.24 -0.694,0.176 -1.737,-0.127 -1.8,-0.96 -0.49,0.132 -1.01,0.203 -0.96,-0.479 -1.028,0.55 -1.397,-0.886 -2.28,-0.48 -1.214,-0.587 -1.896,-1.705 -3.24,-2.16 0,-0.24 0,-0.479 0,-0.72 -1.231,0.612 -1.817,-0.907 -2.16,-1.92 -0.229,-0.226 -0.217,0.071 -0.6,0 -0.142,-0.585 -0.783,-0.732 -0.72,-1.2 -2.243,-1.602 -3.754,-4.365 -5.4,-6.72 -0.772,-1.105 -1.388,-2.405 -2.16,-3.36 -0.53,-0.655 -1.452,-1.121 -2.04,-1.8 -0.168,-0.194 -0.181,-0.538 -0.359,-0.72 -0.984,-1 -2.254,-1.729 -3.24,-2.641 -0.267,-0.246 -0.34,-0.584 -0.601,-0.84 -0.717,-0.705 -1.892,-0.931 -2.279,-2.04 -1.445,-0.354 -1.647,-1.952 -2.88,-2.52 -0.533,-0.947 -0.933,-2.028 -1.921,-2.521 -0.297,-2.471 -1.333,-4.887 -1.439,-7.68 -0.138,-3.617 1.298,-7.465 1.439,-11.16 0.098,-2.513 -0.429,-5.928 0.48,-8.16 0.187,-0.427 -0.407,-0.072 -0.359,-0.359 0.214,-1.372 0.029,-2.413 0.479,-3.48 0.083,-0.322 -0.248,-0.232 -0.36,-0.36 0.107,-5.595 1.324,-10.524 2.881,-15 -0.171,0.01 -0.34,0.02 -0.36,-0.12 0.203,-1.197 0.419,-2.38 0.84,-3.36 -0.347,-0.094 -0.3,-0.581 -0.479,-0.84 -0.645,0.359 -1.088,0.327 -1.681,0.84 -0.482,0.083 -0.295,-0.505 -0.72,-0.48 -0.23,0.25 -0.46,0.5 -0.84,0.6 -0.958,-0.343 -1.416,-0.484 -2.521,-0.72 -0.144,0.962 -0.048,1.724 0.12,2.64 -0.919,0.821 -1.819,0.397 -3,0.48 -0.314,0.606 -0.196,1.644 -0.72,2.04 -1.19,-0.26 -2.471,-1.261 -3.601,-0.84 0.1,0.883 0.781,1.732 1.32,2.521 -1.512,0.648 -3.676,-0.507 -5.16,0.84 -0.912,-0.664 -3.223,-0.586 -4.2,-1.8 -0.377,0.317 -0.506,-0.339 -0.96,0 -0.405,0.046 -0.188,-0.532 -0.72,-0.36 -0.095,0.449 -0.42,0.008 -0.6,0.24 0.403,1.256 -0.153,2.01 -0.36,3 -1.41,-0.026 -3.276,-0.501 -4.2,-0.601 -0.021,0.662 0.176,1.104 0.36,1.561 -0.787,1.181 -2.18,0.146 -3.12,0.479 0.376,1.104 0.467,2.493 1.08,3.36 -0.187,2.227 1.803,2.277 2.28,3.84 0.415,-0.095 0.506,0.134 0.72,0.24 0.22,0.619 0.425,1.255 0.6,1.92 -0.807,1.261 0.834,2.383 1.08,3.72 0.086,0.467 -0.063,0.955 0,1.44 0.09,0.679 0.554,1.131 0.721,1.8 0.036,0.148 -0.176,0.456 -0.12,0.6 0.326,0.84 0.81,1.133 0.84,2.521 0.033,1.562 -0.146,2.932 -0.36,4.319 0.054,0.347 0.517,0.284 0.601,0.601 0,0.24 0,0.479 0,0.72 0.715,1.58 2.031,3.529 2.64,5.16 0.173,0.464 0.278,1.056 0.12,1.439 1.566,2.395 2.284,5.637 3.6,8.28 -0.105,0.335 -0.481,0.398 -0.84,0.48 -1.243,1.597 -1.944,3.735 -4.32,4.2 -0.549,0.402 -1.354,0.833 -2.04,1.08 -1.526,0.549 -3.588,-0.283 -5.279,0 -0.501,-0.061 -0.046,0.834 -0.601,0.72 -0.599,-0.165 0.409,-0.404 0,-0.72 -2.817,0.703 -8.341,1.421 -10.68,-0.48 -1.114,0.127 -2.532,0.39 -3.48,0 -1.886,0.661 -4.159,1.208 -5.76,1.8 -1.87,0.215 -2.732,-0.573 -4.32,-0.36 -1.333,-0.7 -1.818,-1.609 -2.4,-3.359 -0.169,-0.51 -0.491,-0.827 -0.48,-1.2 0.031,-1.027 1.161,-2.318 2.04,-3.12 0.928,-0.846 2.168,-1.066 2.52,-2.399 -0.684,-0.94 -2.319,-1.346 -3.72,-2.04 -1.037,-0.515 -1.547,-1.316 -2.88,-1.44 -1.243,-0.116 -2.662,0.52 -3.96,0.48 0.476,2.874 -1.403,4.97 -3.6,4.439 -0.382,-0.332 -0.062,-0.792 -0.48,-1.2 -1.894,-0.506 -2.351,-2.449 -3.12,-4.08 1.233,-2.767 2.445,-5.555 3.96,-8.039 1.241,-0.346 2.583,-1.02 3.48,-0.601 0.358,-0.002 0.408,-0.312 0.72,-0.36 4.403,0.677 7.369,2.792 10.92,4.32 1.591,1.209 3.188,2.413 4.8,3.6 0.079,0.441 0.291,0.75 0.72,0.841 0.46,0.021 0.043,-0.099 0.12,-0.36 1.621,0.18 2.992,0.608 4.32,1.08 1.182,-1.646 -1.812,-4.264 -2.88,-5.52 -0.351,-0.413 -0.591,-1.051 -0.96,-1.561 -0.342,-0.474 -0.843,-0.848 -1.2,-1.32 -0.728,-0.963 -1.246,-2.129 -1.92,-2.88 -1.026,-1.144 -2.524,-2.179 -3.48,-3 0,-0.2 0,-0.399 0,-0.6 -0.2,0 -0.4,0 -0.6,0 -0.938,-1.463 -1.937,-2.863 -2.4,-4.8 -0.688,-0.088 -0.884,0.315 -1.44,0.359 -1.288,-1.312 -1.704,-3.496 -3,-4.8 -0.099,-0.339 0.169,-0.311 0.12,-0.6 -0.16,0 -0.32,0 -0.48,0 -0.835,-2.605 -1.991,-4.89 -2.88,-7.44 -1,-0.72 -1.274,-2.166 -2.521,-2.64 -0.675,-1.204 -1.129,-2.631 -1.68,-3.96 -3.215,3.105 -6.507,6.133 -9.48,9.479 -0.367,0.087 -0.438,-0.122 -0.72,-0.12 -2.716,1.284 -4.308,3.693 -6.84,5.16 -0.815,2.039 -2.112,3.753 -3.6,5.28 -0.096,0.099 -0.022,0.382 -0.12,0.479 -0.105,0.105 -0.38,0.007 -0.48,0.12 -1.007,1.141 -2.296,2.688 -3.12,4.2 -0.768,1.41 -1.044,2.908 -2.64,3.36 -0.07,0.53 -0.341,0.859 -0.84,0.96 -0.2,0.16 -0.041,0.68 -0.24,0.84 -2.247,1.354 -2.543,4.657 -4.44,6.36 -0.28,0 -0.56,0 -0.84,0 -0.081,0.398 -0.563,0.396 -0.479,0.96 -0.436,-0.252 -0.514,-0.119 -1.2,-0.12 -1.309,0.878 -3.038,0.619 -4.2,1.56 -4.285,-0.029 -7.224,1.32 -11.4,1.92 -0.078,1.896 1.92,3.132 1.92,4.681 0,1.101 -1.08,1.48 -1.2,2.76 -1.419,-0.228 -2.69,0.316 -3.72,0 -0.967,-0.298 -1.167,-1.525 -1.92,-1.92 -0.081,2.287 0.51,5.212 -2.16,5.399 -1.313,-0.847 -2.292,-2.028 -3.48,-3 -0.485,-0.336 -0.32,0.83 -0.96,0.721 -0.532,-0.308 -0.992,-0.688 -1.56,-0.96 0.271,-1.781 -0.615,-3.519 -0.6,-5.28 0.013,-1.463 0.701,-3.847 0.84,-5.641 0.148,-1.902 -0.084,-3.913 1.08,-5.279 -0.065,-0.905 0.36,-1.319 0.48,-2.04 0.82,-0.819 1.891,-1.389 3,-1.92 0.293,-0.283 -0.179,-0.224 -0.12,-0.601 0.375,-0.492 1.447,-1.066 2.04,-0.6 1.841,-0.602 4.391,-0.312 6.36,-0.6 3.028,-0.444 4.811,-2.404 7.08,-3.96 0.054,-0.627 0.422,-0.938 0.72,-1.32 0.483,-1.349 0.528,-2.942 1.08,-5.04 0.858,-3.262 3.659,-5.252 6.12,-6.96 1.408,-2.513 3.196,-4.645 4.56,-7.2 0.232,0.104 0.657,0.034 0.96,-0.36 0.105,-0.385 -0.396,-0.164 -0.36,-0.479 0.838,-1.862 1.453,-3.206 1.92,-5.4 1.218,-1.684 2.214,-3.538 3.48,-5.16 0.335,-0.43 0.85,-0.67 1.2,-1.08 1.864,-2.181 2.819,-5.1 5.16,-6.84 1.469,-2.011 1.813,-5.147 3.72,-6.72 0,-0.2 0,-0.4 0,-0.6 0.979,-0.062 0.949,-1.132 2.04,-1.08 0.082,-1.191 1.385,-0.978 1.32,-2.04 0.621,-0.348 1.197,-1.215 1.2,-1.8 -0.883,-0.681 -2.352,-0.797 -3.24,-1.8 -0.435,0.085 -0.366,0.674 -0.6,0.96 -0.93,0.284 -1.33,-0.021 -2.04,-0.48 -0.431,-0.279 -0.799,-0.325 -1.44,-0.72 -1.749,-1.076 -3.648,-2.541 -5.52,-3 -0.132,-0.377 -0.036,-0.506 -0.24,-0.96 -0.26,-0.02 -0.054,0.426 -0.12,0.6 -1.042,-0.158 -1.932,-0.468 -2.28,-1.32 -2.623,-0.81 -4.7,-1.446 -7.32,-2.28 -0.489,1.616 -0.555,2.922 -0.96,4.56 -0.439,-0.065 -0.527,0.477 -0.72,0.96 -0.4,0.288 -0.825,-0.191 -1.2,0.12 -0.112,1.086 0.317,1.148 0.6,1.92 -0.566,0.167 -1.666,-0.765 -2.28,-0.36 -0.152,1.046 1.158,1.631 1.32,2.76 -0.896,0.112 -1.32,-0.794 -2.28,-0.48 -0.236,1.248 0.587,1.913 0.48,2.88 -0.122,1.099 -1.435,2.183 -2.16,3.36 -0.739,1.2 -0.604,2.905 -1.08,3.96 -0.361,4.106 0.834,9.023 -1.08,12.12 -0.289,0.467 -0.815,0.696 -1.2,1.2 -0.366,0.479 -0.512,1.164 -0.84,1.56 -0.872,1.053 -1.57,1.851 -2.4,3.12 -0.568,0.869 -1.148,1.867 -1.8,2.64 -0.561,0.665 -1.333,1.081 -1.92,1.681 -1.847,1.887 -3.143,4.157 -4.68,6 -0.074,0.035 -0.462,0.298 -0.48,0 -0.753,1.367 -2,2.239 -3.12,3.239 -1.919,2.321 -3.224,5.257 -5.16,7.561 -0.251,0.069 -0.342,0.297 -0.72,0.24 -2.002,2.602 -4.219,5.48 -6.12,8.52 -0.169,0.23 -0.583,0.217 -0.84,0.36 -0.102,0.738 -0.479,1.201 -1.08,1.439 -0.185,1.456 -1.323,1.958 -1.92,3 -0.148,-0.052 -0.247,-0.153 -0.24,-0.359 -0.332,0.907 -0.853,1.627 -1.68,2.04 -0.29,1.03 -0.54,2.1 -1.561,2.399 -0.02,0.38 0.319,0.401 0.24,0.84 -1.231,1.209 -0.788,4.092 -2.4,4.921 -0.193,-0.181 0.102,-0.602 -0.48,-0.601 0.009,0.511 0.201,0.839 0.12,1.44 -0.847,0.444 -0.418,1.863 -1.32,1.92 0,0.479 0,0.96 0,1.439 -0.036,0.509 -0.505,-0.077 -0.6,0.24 -0.091,0.636 0.313,0.113 0.479,0.36 -0.461,0.997 -0.882,2.278 -0.84,4.079 -0.768,-0.552 -1.256,-1.384 -2.52,-1.439 0.117,1.542 -0.375,2.982 0.12,4.561 0.163,0.518 0.784,0.891 0.96,1.439 0.251,0.784 0.462,2.586 0.24,3.24 -0.366,1.079 -2.186,0.811 -3,1.68 -2.162,0.379 -3.01,-1.641 -4.439,-2.28 -0.154,-0.068 -0.458,0.067 -0.6,0 -0.729,-0.345 -1.458,-0.826 -2.16,-1.2 -1.51,-0.804 -3.639,-1.538 -5.28,-2.399 -2.413,0.84 -5.839,0.609 -8.28,1.92 -0.377,0.138 -0.292,-0.188 -0.48,-0.24 -1.711,1.209 -2.322,3.519 -3.36,5.4 -1.402,-0.05 -3.062,0.378 -4.32,0.84 -0.289,-1.38 0.604,-2.588 0.48,-4.2 -0.96,-0.116 -1.297,1.539 -2.28,1.44 -0.111,1.249 -0.774,1.945 -0.96,3.12 -1.54,1.421 -5.257,1.456 -7.44,0.479 -0.507,0.133 -1.142,0.139 -1.8,0.12 -0.476,-0.204 -0.707,-0.653 -0.84,-1.2 0,28.76 0,57.521 0,86.28 104.684,0 209.352,0 314.04,0 0,-100.003 0,-199.991 0,-300 C 209.356,0 104.688,0 0,0 0,70.838 0,141.682 0,212.52 z M 168.6,155.4 c 0,0.159 0,0.319 0,0.479 -0.142,0.139 -0.424,0.136 -0.72,0.12 -0.017,-0.456 0.348,-0.532 0.72,-0.599 z M 51.84,140.16 c 0.211,-0.109 0.198,-0.442 0.48,-0.48 0.09,0.341 -0.256,0.849 -0.48,0.48 z"
   id="path10"
   style="fill:#ffffff;fill-rule:evenodd" />
		<path
   d="m 0,213.72 c 0.133,0.547 0.364,0.996 0.84,1.2 0.658,0.019 1.293,0.013 1.8,-0.12 2.183,0.977 5.9,0.941 7.44,-0.479 0.186,-1.175 0.849,-1.871 0.96,-3.12 0.983,0.099 1.32,-1.557 2.28,-1.44 0.123,1.612 -0.769,2.82 -0.48,4.2 1.258,-0.462 2.918,-0.89 4.32,-0.84 1.038,-1.882 1.648,-4.191 3.36,-5.4 0.188,0.052 0.103,0.378 0.48,0.24 2.441,-1.311 5.868,-1.08 8.28,-1.92 1.641,0.861 3.77,1.596 5.28,2.399 0.702,0.374 1.431,0.855 2.16,1.2 0.142,0.067 0.446,-0.068 0.6,0 1.429,0.64 2.277,2.659 4.439,2.28 0.814,-0.869 2.634,-0.601 3,-1.68 0.223,-0.654 0.011,-2.456 -0.24,-3.24 -0.176,-0.549 -0.797,-0.922 -0.96,-1.439 -0.495,-1.578 -0.003,-3.019 -0.12,-4.561 1.264,0.056 1.752,0.888 2.52,1.439 -0.042,-1.801 0.379,-3.082 0.84,-4.079 -0.166,-0.247 -0.57,0.275 -0.479,-0.36 0.095,-0.317 0.564,0.269 0.6,-0.24 0,-0.479 0,-0.96 0,-1.439 0.902,-0.057 0.473,-1.476 1.32,-1.92 0.081,-0.602 -0.111,-0.93 -0.12,-1.44 0.582,-0.001 0.287,0.42 0.48,0.601 1.612,-0.829 1.168,-3.712 2.4,-4.921 0.079,-0.438 -0.26,-0.46 -0.24,-0.84 1.021,-0.3 1.271,-1.369 1.561,-2.399 0.827,-0.413 1.348,-1.133 1.68,-2.04 -0.006,0.206 0.092,0.308 0.24,0.359 0.597,-1.042 1.735,-1.544 1.92,-3 0.602,-0.238 0.979,-0.701 1.08,-1.439 0.257,-0.144 0.67,-0.13 0.84,-0.36 1.901,-3.039 4.118,-5.918 6.12,-8.52 0.377,0.057 0.469,-0.171 0.72,-0.24 1.936,-2.304 3.241,-5.239 5.16,-7.561 1.12,-1 2.367,-1.872 3.12,-3.239 0.018,0.298 0.406,0.035 0.48,0 1.537,-1.843 2.833,-4.113 4.68,-6 0.587,-0.6 1.359,-1.016 1.92,-1.681 0.651,-0.772 1.231,-1.771 1.8,-2.64 0.83,-1.27 1.528,-2.067 2.4,-3.12 0.328,-0.396 0.475,-1.081 0.84,-1.56 0.384,-0.504 0.911,-0.732 1.2,-1.2 1.915,-3.097 0.719,-8.014 1.08,-12.12 0.476,-1.055 0.341,-2.76 1.08,-3.96 0.725,-1.177 2.038,-2.261 2.16,-3.36 0.107,-0.967 -0.716,-1.632 -0.48,-2.88 0.96,-0.314 1.385,0.592 2.28,0.48 -0.162,-1.128 -1.472,-1.713 -1.32,-2.76 0.614,-0.405 1.713,0.527 2.28,0.36 -0.283,-0.772 -0.712,-0.833 -0.6,-1.92 0.375,-0.312 0.8,0.167 1.2,-0.12 0.193,-0.483 0.281,-1.025 0.72,-0.96 0.405,-1.638 0.471,-2.944 0.96,-4.56 2.62,0.834 4.697,1.471 7.32,2.28 0.348,0.852 1.238,1.162 2.28,1.32 0.066,-0.174 -0.14,-0.62 0.12,-0.6 0.204,0.454 0.107,0.583 0.24,0.96 1.872,0.459 3.771,1.924 5.52,3 0.641,0.395 1.009,0.441 1.44,0.72 0.71,0.459 1.11,0.764 2.04,0.48 0.234,-0.286 0.166,-0.875 0.6,-0.96 0.888,1.003 2.357,1.119 3.24,1.8 -0.003,0.585 -0.579,1.452 -1.2,1.8 0.065,1.062 -1.238,0.849 -1.32,2.04 -1.091,-0.052 -1.062,1.019 -2.04,1.08 0,0.2 0,0.4 0,0.6 -1.907,1.573 -2.251,4.709 -3.72,6.72 -2.341,1.74 -3.295,4.659 -5.16,6.84 -0.35,0.41 -0.865,0.65 -1.2,1.08 -1.266,1.623 -2.262,3.476 -3.48,5.16 -0.467,2.194 -1.082,3.538 -1.92,5.4 -0.036,0.315 0.465,0.095 0.36,0.479 -0.303,0.395 -0.728,0.464 -0.96,0.36 -1.364,2.556 -3.152,4.688 -4.56,7.2 -2.461,1.708 -5.262,3.698 -6.12,6.96 -0.551,2.098 -0.596,3.691 -1.08,5.04 -0.298,0.382 -0.667,0.693 -0.72,1.32 -2.269,1.556 -4.052,3.516 -7.08,3.96 -1.969,0.288 -4.519,-0.002 -6.36,0.6 -0.593,-0.467 -1.666,0.107 -2.04,0.6 -0.059,0.377 0.414,0.317 0.12,0.601 -1.109,0.531 -2.18,1.101 -3,1.92 -0.12,0.721 -0.545,1.135 -0.48,2.04 -1.165,1.366 -0.932,3.377 -1.08,5.279 -0.139,1.794 -0.827,4.178 -0.84,5.641 -0.015,1.762 0.871,3.499 0.6,5.28 0.568,0.271 1.028,0.652 1.56,0.96 0.64,0.109 0.475,-1.057 0.96,-0.721 1.188,0.972 2.167,2.153 3.48,3 2.67,-0.188 2.079,-3.112 2.16,-5.399 0.752,0.395 0.953,1.622 1.92,1.92 1.03,0.316 2.301,-0.228 3.72,0 0.12,-1.279 1.2,-1.659 1.2,-2.76 0,-1.549 -1.998,-2.785 -1.92,-4.681 4.176,-0.6 7.115,-1.949 11.4,-1.92 1.163,-0.94 2.892,-0.682 4.2,-1.56 0.687,0.001 0.765,-0.132 1.2,0.12 -0.083,-0.563 0.399,-0.562 0.479,-0.96 0.28,0 0.561,0 0.84,0 1.897,-1.703 2.193,-5.007 4.44,-6.36 0.2,-0.16 0.04,-0.68 0.24,-0.84 0.499,-0.101 0.77,-0.43 0.84,-0.96 1.595,-0.452 1.872,-1.95 2.64,-3.36 0.824,-1.513 2.113,-3.06 3.12,-4.2 0.1,-0.113 0.375,-0.015 0.48,-0.12 0.098,-0.098 0.024,-0.381 0.12,-0.479 1.488,-1.527 2.785,-3.241 3.6,-5.28 2.532,-1.467 4.124,-3.876 6.84,-5.16 0.283,-0.002 0.354,0.207 0.72,0.12 2.973,-3.347 6.265,-6.374 9.48,-9.479 0.55,1.329 1.004,2.756 1.68,3.96 1.247,0.474 1.521,1.92 2.521,2.64 0.889,2.551 2.045,4.835 2.88,7.44 0.16,0 0.32,0 0.48,0 0.049,0.289 -0.219,0.261 -0.12,0.6 1.296,1.304 1.712,3.487 3,4.8 0.556,-0.044 0.752,-0.447 1.44,-0.359 0.463,1.937 1.462,3.337 2.4,4.8 0.2,0 0.4,0 0.6,0 0,0.2 0,0.399 0,0.6 0.956,0.821 2.454,1.856 3.48,3 0.674,0.751 1.192,1.917 1.92,2.88 0.357,0.473 0.858,0.847 1.2,1.32 0.369,0.51 0.609,1.147 0.96,1.561 1.068,1.256 4.062,3.874 2.88,5.52 -1.328,-0.472 -2.699,-0.9 -4.32,-1.08 -0.077,0.262 0.34,0.382 -0.12,0.36 -0.429,-0.091 -0.641,-0.399 -0.72,-0.841 -1.613,-1.187 -3.209,-2.391 -4.8,-3.6 -3.551,-1.528 -6.517,-3.644 -10.92,-4.32 -0.312,0.049 -0.362,0.358 -0.72,0.36 -0.897,-0.419 -2.239,0.255 -3.48,0.601 -1.515,2.484 -2.727,5.272 -3.96,8.039 0.77,1.631 1.227,3.574 3.12,4.08 0.417,0.408 0.098,0.868 0.48,1.2 2.197,0.53 4.076,-1.565 3.6,-4.439 1.298,0.039 2.717,-0.597 3.96,-0.48 1.333,0.124 1.843,0.926 2.88,1.44 1.401,0.694 3.036,1.1 3.72,2.04 -0.352,1.333 -1.592,1.554 -2.52,2.399 -0.879,0.802 -2.009,2.093 -2.04,3.12 -0.011,0.373 0.311,0.69 0.48,1.2 0.582,1.75 1.067,2.659 2.4,3.359 1.587,-0.213 2.45,0.575 4.32,0.36 1.602,-0.592 3.874,-1.139 5.76,-1.8 0.948,0.39 2.366,0.127 3.48,0 2.339,1.901 7.862,1.184 10.68,0.48 0.409,0.315 -0.599,0.555 0,0.72 0.555,0.114 0.1,-0.78 0.601,-0.72 1.691,-0.283 3.753,0.549 5.279,0 0.687,-0.247 1.491,-0.678 2.04,-1.08 2.376,-0.465 3.077,-2.604 4.32,-4.2 0.358,-0.082 0.734,-0.146 0.84,-0.48 -1.315,-2.644 -2.033,-5.886 -3.6,-8.28 0.158,-0.384 0.053,-0.976 -0.12,-1.439 -0.608,-1.631 -1.925,-3.58 -2.64,-5.16 0,-0.24 0,-0.479 0,-0.72 -0.084,-0.316 -0.547,-0.254 -0.601,-0.601 0.215,-1.388 0.394,-2.757 0.36,-4.319 -0.03,-1.388 -0.514,-1.681 -0.84,-2.521 -0.056,-0.144 0.156,-0.451 0.12,-0.6 -0.167,-0.669 -0.631,-1.121 -0.721,-1.8 -0.063,-0.485 0.086,-0.974 0,-1.44 -0.246,-1.337 -1.887,-2.459 -1.08,-3.72 -0.175,-0.665 -0.38,-1.301 -0.6,-1.92 -0.214,-0.106 -0.305,-0.335 -0.72,-0.24 -0.478,-1.562 -2.467,-1.613 -2.28,-3.84 -0.613,-0.867 -0.704,-2.256 -1.08,-3.36 0.94,-0.333 2.333,0.701 3.12,-0.479 -0.185,-0.456 -0.382,-0.898 -0.36,-1.561 0.924,0.1 2.79,0.574 4.2,0.601 0.207,-0.99 0.764,-1.744 0.36,-3 0.18,-0.232 0.505,0.209 0.6,-0.24 0.531,-0.171 0.314,0.406 0.72,0.36 0.454,-0.339 0.583,0.317 0.96,0 0.978,1.214 3.288,1.136 4.2,1.8 1.484,-1.347 3.648,-0.191 5.16,-0.84 -0.539,-0.788 -1.221,-1.637 -1.32,-2.521 1.13,-0.421 2.41,0.58 3.601,0.84 0.523,-0.396 0.405,-1.434 0.72,-2.04 1.181,-0.083 2.081,0.341 3,-0.48 -0.168,-0.917 -0.264,-1.678 -0.12,-2.64 1.104,0.236 1.562,0.377 2.521,0.72 0.38,-0.1 0.609,-0.35 0.84,-0.6 0.425,-0.025 0.237,0.563 0.72,0.48 0.593,-0.514 1.036,-0.481 1.681,-0.84 0.18,0.26 0.133,0.747 0.479,0.84 -0.421,0.979 -0.637,2.163 -0.84,3.36 0.021,0.14 0.189,0.13 0.36,0.12 -1.557,4.475 -2.773,9.405 -2.881,15 0.112,0.128 0.443,0.038 0.36,0.36 -0.45,1.067 -0.266,2.108 -0.479,3.48 -0.048,0.287 0.546,-0.067 0.359,0.359 -0.909,2.232 -0.383,5.647 -0.48,8.16 -0.142,3.695 -1.577,7.543 -1.439,11.16 0.106,2.793 1.143,5.209 1.439,7.68 0.988,0.492 1.388,1.573 1.921,2.521 1.232,0.567 1.435,2.165 2.88,2.52 0.388,1.109 1.562,1.335 2.279,2.04 0.261,0.256 0.334,0.594 0.601,0.84 0.986,0.912 2.256,1.641 3.24,2.641 0.179,0.182 0.191,0.525 0.359,0.72 0.588,0.679 1.51,1.145 2.04,1.8 0.772,0.955 1.388,2.255 2.16,3.36 1.646,2.354 3.157,5.118 5.4,6.72 -0.063,0.468 0.578,0.615 0.72,1.2 0.383,0.071 0.371,-0.226 0.6,0 0.343,1.013 0.929,2.532 2.16,1.92 0,0.24 0,0.479 0,0.72 1.345,0.455 2.026,1.573 3.24,2.16 0.883,-0.405 1.252,1.03 2.28,0.48 -0.05,0.683 0.47,0.611 0.96,0.479 0.062,0.833 1.105,1.136 1.8,0.96 0.061,1.229 1.471,2.014 1.92,3.24 -0.202,0.678 -0.97,0.79 -1.08,1.56 -4.038,2.402 -7.588,5.292 -11.76,7.561 -0.057,0.863 -1.092,0.748 -1.08,1.68 -1.478,0.603 -2.418,1.742 -3.84,2.4 -0.148,0.388 0.388,0.091 0.24,0.479 -0.611,0.322 -1.682,0.646 -1.44,1.44 -0.729,-0.097 -1,0.682 -1.56,1.08 0.063,0.247 0.567,0.028 0.239,0.359 -0.745,0.735 -1.939,1.021 -2.52,1.92 0.255,-0.072 0.764,-0.505 0.96,-0.239 -1.249,1.751 -3.463,2.537 -4.32,4.68 -0.722,0.52 -1.792,1.326 -1.92,2.04 0.275,-0.324 0.669,-0.531 1.08,-0.72 -0.082,0.678 -0.564,0.955 -0.84,1.439 -0.719,-0.358 -0.918,0.734 -1.561,0.48 0.002,0.336 0.328,-0.286 0.24,0.24 -1.285,0.924 -1.645,2.466 -2.64,3.72 -0.948,1.193 -2.271,2.148 -2.64,3.12 -0.024,0.062 0.06,0.504 0,0.6 -0.319,0.509 -1.298,0.771 -1.08,1.68 -0.016,0.216 0.119,0.281 0.359,0.24 -0.979,0.701 -1.04,2.32 -2.04,3 0.055,-0.545 0.653,-1.052 0.48,-1.439 -1.424,1.536 -2.137,3.783 -3.601,5.279 0.052,0.188 0.378,0.103 0.24,0.48 -0.339,0.099 -0.311,-0.17 -0.6,-0.12 -0.915,1.164 -1.434,2.189 -1.801,3.72 -0.377,0.138 -0.291,-0.188 -0.479,-0.24 -0.324,0.683 -0.962,1.535 -0.72,2.4 -0.919,0.513 -0.243,1.466 -0.36,2.16 -0.316,0.367 -0.254,-0.518 -0.6,-0.12 -0.378,4.149 -2.283,7.792 -2.641,12.36 -0.048,0.312 -0.357,0.361 -0.359,0.72 0.173,1.365 -0.353,3.381 0.6,4.2 0.026,0.386 -0.212,0.508 -0.12,0.96 0.271,0.793 1.995,0.812 2.16,-0.12 0.504,0.272 0.873,-0.115 1.32,-0.24 0.232,-1.087 0.988,-1.651 0.96,-3 0.738,-1.83 2.092,-3.656 2.159,-5.76 0.353,0.137 0.446,0.07 0.601,-0.24 0.125,-1.155 0.952,-1.607 0.96,-2.88 0.425,-0.256 0.709,-0.651 0.6,-1.44 0.688,0.075 0.725,-1.182 0.84,-2.039 1.347,-1.895 2.474,-4.008 3.36,-6.36 0.32,-0.168 0.396,-0.493 0.601,-0.48 0.413,-1.246 1.665,-2.228 1.68,-3.479 1.261,-0.859 1.815,-2.425 2.52,-3.84 2.274,-2.566 4.609,-5.071 6.48,-8.04 0.315,-0.312 0.095,0.193 0.48,0.12 0.898,-1.501 2.519,-2.281 3.119,-4.08 1.691,-0.589 2.718,-1.843 3.601,-3.24 0.338,-0.103 0.492,-0.388 0.96,-0.36 -0.138,-0.497 0.252,-0.468 0.24,-0.84 1.159,0.521 1.614,-1.312 2.399,-1.92 0.019,0.142 -0.021,0.341 0.12,0.36 1.163,-1.157 2.582,-2.058 3.6,-3.36 2.37,-1.19 4.374,-2.746 6.12,-4.56 0.367,0.086 0.438,-0.123 0.72,-0.12 1.121,-1.48 3.162,-2.039 3.961,-3.841 0.96,-0.036 2.048,-0.885 2.76,-1.56 1.5,-0.38 2.216,-1.544 3.6,-2.04 0.495,-0.095 0.226,0.574 0.721,0.48 0.191,-0.089 -0.027,-0.588 0.359,-0.48 0.232,1.848 1.576,2.584 2.76,3.48 0.112,0.909 0.105,1.693 -0.239,2.399 -1.174,-0.031 -1.695,0.446 -2.761,0.24 -1.071,1.008 -2.557,1.604 -3.359,2.88 -2.033,1.247 -3.173,3.388 -5.4,4.44 -0.76,1.2 -2.234,1.686 -2.4,3.479 -0.152,0.167 -0.587,0.053 -0.6,0.36 0.755,1.806 -0.42,4.339 -0.479,6.479 -0.549,1.022 -1.996,2.867 -1.8,4.801 0.036,0.363 0.571,0.913 0.72,1.56 0.144,0.63 -0.032,1.208 0.12,1.56 0.487,1.131 1.997,1.526 3.119,0.721 0.635,0.806 1.176,1.704 1.92,2.399 1.446,-0.434 2.6,-1.161 3.48,-2.159 0.211,-1.03 0.1,-2.381 0.36,-3.36 0.726,0.152 1.4,1.097 2.52,1.2 1.424,0.131 2.571,-0.767 3.36,-1.561 0.225,-0.975 0.229,-2.171 0.96,-2.64 -0.157,-0.645 -0.028,-1.071 0.24,-1.681 0.396,-0.162 0.771,-0.349 1.2,-0.479 0.547,-0.471 1.413,-1.476 2.039,-1.68 3.254,-1.061 6.693,-2.709 9.48,-4.44 0.534,-0.619 1.035,-0.93 1.8,-1.08 0.802,-1.139 2.296,-1.652 3.36,-2.64 0.378,-0.351 0.553,-0.887 0.96,-1.2 1.003,-0.771 2.305,-1.294 3.12,-2.28 1.465,-1.771 3.197,-5.255 3.72,-7.56 -0.273,-0.883 -0.729,-2.1 -0.36,-3.24 -0.778,-0.033 -0.697,-1.111 -1.56,-0.72 0.177,-0.537 -0.352,-0.369 -0.24,-0.84 -1.279,-0.28 -1.569,-1.551 -3,-1.681 -0.696,-0.903 -1.52,-1.68 -2.88,-1.92 -0.242,-0.878 -0.925,-1.314 -1.68,-1.68 -0.28,-0.601 -0.626,-1.134 -1.32,-1.32 -0.303,-1.537 -2.145,-1.535 -2.4,-3.12 2.011,-1.59 3.976,-3.225 6.721,-4.079 0.185,-0.256 0.345,-0.535 0.479,-0.841 3.028,-2.021 5.882,-3.812 8.521,-6 1.615,-0.371 3.314,-1.626 4.319,-3 0.029,0.211 0.207,0.273 0.48,0.24 1.301,-1.722 3.525,-1.972 4.68,-3.96 0.806,-0.31 2.247,-0.816 1.44,-1.68 1.075,-0.038 1.332,-0.71 1.92,-0.96 -0.416,0.104 -0.412,-0.185 -0.24,-0.36 0.56,-0.188 1.734,-0.473 0.96,-1.32 0.44,0.128 0.795,-0.144 1.2,-0.119 0.062,-0.537 0.803,-0.627 0.48,-1.2 0.463,-0.058 0.616,-0.423 0.959,-0.601 0.745,-1.815 2.682,-2.438 3.48,-4.199 0.33,-0.07 0.501,-0.299 0.84,-0.36 0.904,-1.736 2.556,-2.725 3.36,-4.561 0.929,-0.292 1.43,-1.306 1.56,-2.04 0.33,-0.069 0.502,-0.299 0.84,-0.359 0.47,-1.494 2.032,-2.387 2.28,-3.721 2.642,-2.278 4.031,-5.809 6,-8.76 0.55,-0.267 0.549,-0.236 0.96,-0.24 0.343,-1.644 0.413,-2.84 1.2,-3.96 -0.001,0.636 -0.523,1.268 -0.36,1.681 0.87,-1.504 2.333,-2.265 2.4,-4.8 0.951,-1.249 1.264,-3.138 2.04,-4.561 -0.368,-0.423 -0.261,-1.721 -0.24,-2.16 0.67,-0.029 0.124,1.156 0.48,1.44 0.696,-2.844 2.6,-5.02 3.239,-8.521 -0.141,-0.296 -0.498,0.292 -0.479,-0.239 -0.007,-0.487 0.743,-0.217 0.72,-0.721 0.138,-3.942 1.705,-6.455 1.44,-10.8 -0.033,-0.473 0.513,-0.367 0.479,-0.84 -0.04,-0.4 -0.348,-0.532 -0.24,-1.08 0.583,-3.498 0.354,-7.366 0.12,-10.92 -0.146,-0.414 -0.485,-0.634 -0.72,-0.96 0.502,-1.057 -0.33,-2.313 0,-3.36 -0.464,-0.349 -0.474,0.428 -0.84,0.12 -0.164,-0.966 -0.843,-1.475 -0.24,-2.28 -0.779,-2.091 -0.953,-3.426 -1.08,-6 -1.055,-0.272 -1.706,-1.859 -2.399,-2.88 0.141,-0.019 0.341,0.021 0.359,-0.12 -0.502,-0.418 -0.823,-1.016 -1.439,-1.32 0.433,-0.417 -0.026,-0.885 -0.48,-1.08 -0.156,-0.474 0.44,-0.291 0.12,-0.6 -0.331,-0.829 -1.234,-1.086 -1.56,-1.92 0.222,-0.231 0.22,-0.095 0.12,-0.48 -1.139,-1.214 -1.604,-2.452 -2.641,-3.84 -2.18,-0.58 -2.509,-3.011 -4.68,-3.6 -0.23,-0.809 -0.785,-1.295 -1.68,-1.439 -0.122,-1.159 -1.349,-1.212 -2.041,-1.8 -0.155,-0.297 0.269,-0.583 0,-0.6 -0.575,-0.024 -0.953,-0.475 -0.959,-0.72 -0.196,0.534 -0.827,0.02 -1.2,0 -0.207,-0.475 0.054,-0.872 -0.12,-1.2 -1.66,-0.247 -3.153,-0.577 -4.2,-1.68 0.704,0.096 1.123,0.477 1.92,0.479 -0.915,-0.836 -2.06,-1.057 -3.96,-1.08 0.003,-0.438 0.308,-0.573 0.48,-0.84 -0.254,-0.267 -0.435,-0.606 -0.84,-0.72 0.062,0.61 -0.454,0.773 -0.841,0.6 -0.427,-0.255 0.53,-0.447 0.12,-0.72 -0.851,-0.851 -1.804,-0.37 -2.64,-0.96 -0.833,-0.073 -1.298,0.223 -1.92,0.36 -0.194,-0.634 0.646,-0.233 0.6,-0.72 -0.443,-0.228 -1.051,0.269 -1.68,0.24 -0.323,-0.969 -1.378,-1.391 -2.64,-1.08 -0.148,-0.388 0.388,-0.092 0.239,-0.48 -0.777,0.162 -0.813,0.026 -1.2,-0.36 -0.471,0.372 -1.129,0.674 -1.8,0.24 0.127,-0.672 0.783,0.382 0.96,-0.24 -1.284,-0.833 -2.842,-0.938 -5.279,-0.6 0.033,-0.314 -0.044,-0.516 -0.36,-0.48 -0.601,-0.081 -0.929,0.111 -1.44,0.12 -0.292,-0.121 0.235,-0.531 -0.359,-0.48 -1.139,0.579 -2.17,-0.417 -3.24,-0.48 -1.056,-0.062 -1.832,0.718 -3,0.72 -0.36,-0.039 -0.141,-0.659 -0.48,-0.72 -3.742,-0.069 -5.896,0.032 -9.359,1.08 -0.169,-0.344 0.372,-0.655 -0.12,-0.6 -0.881,-0.055 -0.168,0.797 -0.96,0.72 -0.839,-1.096 -2.74,0.083 -3.721,0.36 -0.114,-0.224 0.36,-0.401 0,-0.48 -1.113,0.471 -2.248,1.651 -3.239,1.2 -0.309,0.763 -1.681,0.673 -2.16,1.56 -1.463,-0.187 -2.814,0.601 -3.96,-0.12 -0.354,0.327 -0.456,0.904 -1.2,0.84 -0.436,-0.077 0.278,-0.561 -0.12,-0.6 -0.676,0.084 -1.181,0.339 -1.8,0.48 -0.156,-0.298 0.353,-0.498 0,-0.6 -0.197,0.312 -0.986,0.323 -0.84,-0.36 -0.85,1.096 -1.542,-0.514 -2.28,0.12 -1.363,-1.077 -2.454,-2.426 -3.84,-3.48 -0.383,-0.071 -0.371,0.225 -0.6,0 -1.018,-0.824 -1.803,-1.877 -3.36,-2.16 -1.461,-1.179 -2.625,-2.655 -4.68,-3.24 -0.167,-0.153 -0.073,-0.566 -0.24,-0.72 -0.747,-0.293 -1.035,-1.045 -2.04,-1.08 -0.304,-0.896 -1.549,-0.852 -1.92,-1.68 -1.162,-0.171 -1.603,-1.523 -2.641,-1.44 -0.02,-0.18 0.043,-0.443 -0.119,-0.48 -1.19,-0.73 -2.445,-1.395 -3.36,-2.4 -2.624,-1.256 -4.239,-3.521 -7.08,-4.56 -0.167,-0.153 -0.073,-0.566 -0.24,-0.72 -1.739,-0.82 -2.755,-2.365 -4.8,-2.88 -1.516,-1.084 -2.608,-2.591 -4.56,-3.24 -0.238,-1.649 -2.958,-1.728 -3.601,-3.36 -1.398,-0.281 -1.686,-1.674 -3.359,-1.68 -0.021,-1.496 -2.232,-0.743 -2.881,-1.56 -0.173,-0.454 0.33,-0.23 0.24,-0.6 -0.445,0.085 -0.515,-0.205 -0.96,-0.12 -0.284,-0.246 0.165,-0.475 -0.12,-0.72 -0.648,0.285 -0.511,-0.395 -1.08,-0.48 -0.889,0.009 -1.271,-0.489 -2.159,-0.48 -0.036,-0.268 -0.656,-1.081 -1.32,-0.72 -0.304,-0.767 -1.02,-0.737 -2.16,-0.84 -0.638,-0.442 -1.166,-0.994 -2.28,-0.96 -0.906,-0.888 -1.693,-1.322 -3.12,-1.8 0.012,-0.449 0.135,-0.342 0,-0.72 -0.927,-0.073 -0.898,-1.101 -1.92,-1.08 -0.038,-1.06 -1.914,-0.736 -2.64,-1.44 -0.493,-0.276 0.428,-0.115 0.24,-0.48 -1.1,-0.341 -2.176,-0.705 -2.88,-1.44 -0.538,-0.084 -0.934,-0.042 -1.681,-0.12 -0.149,-0.51 0.399,-0.321 0.48,-0.6 -1.25,-0.565 -2.229,-0.96 -4.08,-1.08 -0.332,0.052 -0.113,-0.447 -0.36,-0.48 -1.576,-0.189 -2.844,-1.317 -4.56,-0.96 -0.422,-0.271 0.386,-0.527 0,-0.72 -0.319,0.081 -0.571,0.229 -0.84,0.36 -0.343,-0.187 0.25,-0.56 -0.12,-0.72 -1.165,0.244 -2.181,-0.999 -3.24,-0.48 -0.73,-0.982 -1.923,-1.164 -3.24,-1.32 -0.27,-0.05 0.018,-0.658 -0.36,-0.6 -0.4,0 -0.8,0 -1.2,0 -0.014,-0.723 -1.241,-0.965 -1.92,-0.48 -0.027,-0.358 0.443,-0.408 0.12,-0.72 -1.639,0.065 -2.483,-0.984 -2.4,-2.28 -1.357,0.285 -2.608,0.99 -3.36,-0.36 0.418,-0.27 0.232,-1.546 0,-2.28 -1.182,0.202 -2.27,0.646 -3.72,1.08 -0.469,-0.531 -0.869,-1.13 -1.32,-1.68 0.056,0.86 -0.387,0.052 -0.96,0.36 0.069,-0.39 -0.082,-0.558 -0.12,-0.84 0.408,-0.363 1.64,-0.735 1.08,-1.32 -0.266,0.214 -0.499,0.461 -0.96,0.48 -0.642,-1.127 -1.739,-0.633 -2.64,-1.56 -0.018,-0.354 0.349,-0.847 -0.12,-0.96 0.21,0.673 -0.476,0.877 -0.12,1.32 -0.653,0.093 -0.134,-0.986 -0.6,-1.08 -0.321,0.119 0.159,1.039 -0.36,0.96 -0.883,-0.156 -0.912,-1.168 -1.56,-1.56 -0.128,0.112 -0.038,0.443 -0.36,0.36 -0.071,-1.115 -1.376,-0.292 -1.68,-1.08 -0.38,-0.02 -0.401,0.319 -0.84,0.24 -0.011,-0.348 0.506,-0.69 0,-0.84 -0.46,0.379 -0.687,0.993 -1.32,1.2 -0.447,-1.051 0.064,-2.433 -0.84,-2.64 -0.74,-0.169 -0.893,0.678 -1.44,1.08 -0.185,0.136 -0.438,-0.09 -0.6,0 -0.629,0.351 -0.406,1.074 -0.84,1.44 -0.211,-0.96 0.332,-2.028 -0.36,-2.88 -0.256,0.749 -1.128,0.654 -1.92,1.08 -0.318,-0.407 0.065,-1.128 -0.12,-1.44 -0.811,0.171 -0.617,-0.663 -1.2,-0.72 -0.496,0.424 -1.306,0.534 -2.04,0.72 -0.317,-0.804 0.005,-1.424 0,-2.16 -0.003,-0.481 -0.307,-0.994 -0.36,-1.56 -0.276,-2.94 0.792,-6.265 -0.24,-8.521 -0.891,-0.128 -1.375,-0.123 -1.8,-0.84 -1.171,-0.266 -3.935,0.132 -4.68,-0.12 -0.394,0.85 -1.522,0.407 -1.8,1.2 -0.28,0 -0.56,0 -0.84,0 -1.175,0.745 -2.212,1.628 -3.6,2.16 -0.375,-0.431 -0.615,-0.98 -0.24,-1.56 -0.654,-1.262 -2.238,-1.763 -2.28,-3 C 93.488,9.432 93.21,9.19 92.88,9 92.851,8.629 92.758,8.322 92.64,8.04 92.381,7.779 92.017,7.623 91.56,7.56 90.563,6.037 90.06,4.019 88.2,3.36 88.208,2.912 88.007,2.673 87.72,2.52 86.82,2.412 86.012,1.873 85.08,2.16 84.834,1.965 85.085,1.274 84.84,1.08 84.111,1.641 83.867,0.711 83.16,1.32 83.002,0.656 82.335,0.34 81.84,0.24 79.198,-0.293 76.687,1.304 74.64,1.56 74.175,1.505 74.21,0.95 73.92,0.72 73.493,0.933 73.573,1.654 72.96,1.68 71.352,-0.171 70.543,2.26 69.6,3.36 69.448,1.793 68.076,1.444 67.08,0.72 66.699,0.939 66.346,1.186 66,1.44 65.386,1.375 65.312,0.768 64.44,0.96 64.358,1.382 64.057,1.584 63.6,1.32 63.576,1.737 63.642,2.242 63.24,2.28 62.812,1.988 62.528,1.552 61.68,1.68 61.305,1.746 61.609,2.489 61.08,2.4 59.84,2.174 58.219,2.138 57.84,3.12 57.651,3.109 57.746,2.814 57.48,2.88 57.304,3.864 55.782,3.502 55.44,4.32 54.195,4.265 53.102,5.01 52.32,4.56 52.088,4.768 52.423,5.543 51.96,5.52 51.558,5.482 51.839,4.761 51.48,4.68 51.497,5.057 51.172,5.092 50.88,5.16 50.456,5.153 50.441,4.34 50.04,4.68 c 0.374,1.017 0.082,1.74 -0.24,2.64 -0.819,0.221 -1.806,0.274 -2.28,0.84 0,0.32 0,0.64 0,0.96 -1.454,1.33 -3.497,2.631 -3.48,5.04 -0.756,0.03 -0.678,1.447 -0.72,1.8 0.129,-0.351 0.538,-0.421 1.08,-0.36 0.183,0.743 -0.338,0.782 -0.24,1.44 0.555,0.513 1.075,1.045 0.72,2.16 -1.27,0.042 -2.061,-0.891 -3.12,-0.36 -0.41,0.011 -0.069,-0.73 -0.479,-0.72 -0.487,-0.228 -1.059,0.204 -1.32,-0.36 0.015,0.618 -0.647,0.295 -0.72,0 -0.119,0.361 -0.425,0.536 -0.36,1.08 -0.64,0.16 -0.32,-0.64 -0.96,-0.48 -1.046,1.234 -2.099,2.461 -1.92,4.92 1.201,1.199 0.335,4.464 1.44,5.76 0.179,2.781 0.993,4.927 1.8,7.08 0.876,0.324 1.39,1.01 1.68,1.92 1.055,0.345 1.656,1.144 2.28,1.92 0.299,0.101 0.643,0.157 1.08,0.12 0.177,0.263 0.234,0.646 0.479,0.84 0.179,-1.053 1.054,0.42 1.92,-0.12 0.02,1.101 0.724,1.517 1.32,2.04 0.072,0.688 0.234,1.286 0.6,1.68 0.086,0.326 -0.566,-0.086 -0.48,0.24 -0.042,1.79 0.085,3.333 -0.12,5.04 0.188,0.012 0.416,-0.016 0.36,0.24 0.038,2.244 -0.771,4.997 0,7.32 0.397,-0.243 0.768,-0.512 1.32,-0.6 0.038,0.482 0.457,0.583 0.6,0.96 -0.23,0.689 -0.743,2.105 -0.36,2.64 0.411,0.011 0.069,-0.73 0.48,-0.72 0.087,0.272 -0.216,0.936 0.24,0.84 0.317,-0.042 0.108,-0.611 0.36,-0.72 0.265,0.176 -0.07,0.951 0.36,0.96 0.2,-0.44 0.026,-1.254 0.48,-1.439 0.089,0.568 -0.135,0.825 -0.12,1.32 0.212,0.027 0.601,-0.121 0.48,0.24 -0.053,0.413 0.047,0.673 0.12,0.96 1.043,0.997 1.712,2.368 2.64,3.48 0.363,-0.357 0.993,-0.447 0.84,-1.32 0.473,-0.071 0.322,0.843 0.84,0.36 -0.107,1.027 0.425,1.416 0.24,2.52 0.319,0.161 0.87,0.09 0.96,0.48 0.11,-0.21 0.042,-0.599 0.24,-0.72 -0.004,0.524 -0.044,1.084 0.24,1.32 0.244,0.241 0.319,0.031 0.479,-0.12 0.46,1.481 1.554,1.586 2.04,3 0.163,-0.038 0.229,-0.171 0.48,-0.12 -0.409,1.046 0.807,1.459 0.96,2.28 0.246,1.323 -0.54,2.78 0,4.08 0.124,-0.204 0.09,-1.179 0.36,-0.84 -0.163,1.162 -0.708,1.99 0,2.88 -0.457,0.823 -1.159,1.401 -1.32,2.52 0.914,2.211 -1.29,4.752 -0.36,6.96 0.191,-0.089 -0.027,-0.587 0.36,-0.48 -0.414,1.785 0.819,2.848 0,4.44 0.285,0.1 0.559,-0.594 0.6,0 -0.249,0.725 -1.458,0.809 -0.96,1.92 -0.794,-0.376 -0.573,0.752 -0.84,1.44 -0.346,0.891 -1.103,1.499 -0.6,2.4 0.18,0.448 0.688,-0.128 0.72,0.36 -0.152,0.449 -0.305,1.825 -0.12,2.52 0.309,-0.491 0.177,-1.423 0.72,-1.68 -0.207,0.568 0.017,0.585 0.12,1.08 -0.765,0.515 -0.997,1.563 -1.2,2.64 -0.035,0.321 0.466,-0.319 0.36,0.24 -0.958,1.644 -0.265,2.734 -0.72,4.8 0.188,-0.052 0.103,-0.378 0.48,-0.24 -1.219,2.122 -0.395,4.873 -1.08,7.08 0.615,0.783 0.225,2.518 0.48,3.36 0.779,-0.161 0.955,0.016 1.68,-0.36 -0.29,1.15 -1.028,1.852 -1.32,3 0.113,-0.072 0.618,-0.534 0.6,0 0.521,1.384 -1.402,2.341 -1.68,3.72 -0.148,0.389 0.388,0.092 0.24,0.48 -0.859,1.545 -1.479,3.302 -2.16,5.28 0.051,0.336 -0.447,-0.301 -0.48,0.12 -0.828,1.892 -2.093,3.347 -2.4,5.76 -0.763,0.597 -1.004,1.715 -1.32,2.76 0.049,0.405 0.465,-0.319 0.36,0.24 -0.147,0.932 -0.639,1.521 -1.32,1.92 -1.02,3.502 -4.08,5.042 -4.56,8.76 -0.503,0.617 -0.988,1.251 -0.96,2.399 -0.58,0.924 -1.615,1.953 -1.44,3.24 -0.213,0.467 -0.627,0.732 -0.72,1.32 0.011,0.189 0.306,0.094 0.24,0.36 -0.595,1.54 -0.636,3.838 -1.68,5.399 -0.211,3.419 -2.732,5.634 -2.52,9.601 -0.53,0.977 -1.173,2.755 -0.84,3.84 -0.258,0.342 -0.572,0.628 -0.72,1.08 -0.254,2.857 -1.884,5.385 -2.88,8.159 -1.76,1.761 -3.009,4.031 -4.44,6.12 0.011,0.189 0.306,0.095 0.24,0.36 -0.425,0.296 -0.909,0.531 -1.2,0.96 -0.036,0.315 0.466,0.095 0.36,0.479 -0.756,0.604 -1.341,1.38 -1.92,2.16 -0.215,-0.784 -0.832,0.1 -1.2,0.24 -0.518,0.157 -0.149,-0.571 -0.6,-0.479 -1.103,0.317 -2.794,-0.463 -3.84,-0.96 -0.547,0.052 -0.387,0.812 -0.96,0.84 -0.586,-0.098 0.602,-0.809 0.12,-1.2 -0.831,1.218 -3.224,0.446 -3.36,2.521 -0.557,0.116 -0.163,-0.718 -0.72,-0.601 -3.187,1.319 -6.684,1.602 -9.6,3.12 -0.394,1.206 -1.313,1.887 -2.28,2.52 -0.638,1.195 -1.911,2.081 -0.84,3.721 -2.3,1.82 -4.233,4.007 -5.16,7.199 C 0,212.92 0,213.32 0,213.72 z m 260.521,-6.96 c 0,0.12 0,0.24 0,0.36 -1.278,0.481 -2.192,1.328 -3.721,1.56 -3.619,2.821 -7.274,5.605 -11.279,8.04 -0.846,-0.194 -1.404,-0.676 -2.041,-1.08 0.045,-1.235 0.868,-1.691 1.32,-2.52 -0.85,-0.551 -1.383,-1.417 -2.279,-1.92 -0.05,-0.289 0.219,-0.261 0.119,-0.601 -0.677,-0.362 -1.235,-0.844 -1.68,-1.439 0.471,-0.031 0.446,0.434 0.96,0.359 -0.237,-1.242 -1.526,-1.434 -2.52,-1.92 0.194,-0.565 0.641,-0.879 0.6,-1.68 -0.887,-0.474 -1.554,-1.167 -2.76,-1.32 0.438,-1.122 1.155,-1.965 1.68,-3 -0.472,-0.052 -0.836,-0.283 -0.72,-0.6 -0.425,0.055 -0.693,0.267 -1.2,0.24 -0.254,-0.654 0.451,-0.349 0.601,-0.601 -0.61,-0.39 -1.287,-0.713 -2.041,-0.96 -0.085,-0.565 0.246,-0.714 0.36,-1.08 0.004,-0.363 -0.604,-0.116 -0.6,-0.479 0.524,0.044 0.238,-0.722 0.72,-0.72 -0.069,-0.211 0.145,-0.705 -0.12,-0.721 -0.294,0.17 -0.606,0.746 -1.08,0.36 -0.148,-0.389 0.389,-0.092 0.24,-0.479 -0.937,-1.374 -3.458,-1.274 -4.44,-2.881 -0.369,0.084 -0.23,0.084 -0.6,0 -0.142,-0.618 -0.591,-0.929 -0.6,-1.68 0.299,-0.182 0.788,-0.172 0.84,-0.6 -1.338,-0.468 -2.421,-2.216 -4.44,-2.4 0.16,-0.36 0.122,-0.918 0.12,-1.439 -0.283,0.036 -0.223,0.416 -0.6,0.359 0.436,-0.847 1.184,-1.955 0.72,-3 0.274,-0.449 0.847,-0.956 0.6,-1.56 0.296,0.016 0.578,0.018 0.721,-0.12 -0.097,-0.416 0.179,-0.462 0.12,-0.84 -0.3,-0.061 -0.401,-0.319 -0.721,-0.36 0.191,-1.528 0.974,-2.467 1.32,-3.84 -0.16,0 -0.32,0 -0.48,0 0.27,-0.61 1.012,-0.749 0.84,-1.8 0.279,0.038 0.461,-0.02 0.601,-0.12 0.854,-1.986 1.927,-3.754 3.12,-5.4 -0.3,-0.53 0.116,-0.871 0.359,-1.2 2.18,0.036 2.775,-2.073 3,-3.6 0.014,-0.227 0.397,-0.083 0.36,-0.36 -0.425,-1.73 0.521,-2.717 -0.12,-4.2 0.657,-1.259 1.462,-2.343 1.32,-3.84 0.729,0.054 0.12,-0.448 0.12,-0.72 0.839,-0.52 0.552,-1.61 0.72,-2.4 0.582,-2.729 2.102,-5.179 3.12,-7.439 -0.002,-0.238 -0.327,-0.153 -0.24,-0.48 0.708,-0.452 1.264,-1.057 1.92,-1.56 -0.013,-1.533 1.641,-1.4 1.681,-2.88 0.279,-0.04 0.517,-0.123 0.6,-0.36 0.69,-1.858 0.604,-3.429 0.84,-5.76 0.968,-0.352 1.113,-1.527 1.68,-2.28 -0.106,-0.253 -0.365,-0.354 -0.359,-0.72 0.623,-0.433 0.248,-2.635 -0.48,-2.88 0.007,-0.394 0.342,-0.459 0.24,-0.96 0.175,-0.066 0.62,0.14 0.6,-0.12 0,-0.121 0.098,-0.143 0.12,-0.24 -0.212,-0.308 -0.554,-0.486 -0.6,-0.96 -0.1,-0.339 0.169,-0.311 0.12,-0.6 -0.819,-0.614 -0.748,-1.934 -1.44,-2.4 0.078,-0.89 -0.276,-1.532 0,-2.28 -0.214,-0.386 -0.789,-0.411 -0.84,-0.96 0.273,0.033 0.451,-0.029 0.48,-0.24 -0.513,-1.63 -1.7,-2.773 -1.2,-4.8 0.741,0.338 1.062,1.098 1.68,1.56 1.801,0.566 0.679,-1.751 1.2,-2.16 0.825,0.535 1.551,1.169 2.64,1.44 -0.269,-1.38 -0.313,-2.647 0.84,-3 0.168,0.78 0.582,-0.437 0.841,0.36 0.327,-0.415 -0.119,-0.858 0,-1.44 0.691,-0.014 -0.008,1.454 0.96,1.44 -0.086,-0.695 0.541,-0.213 0.6,0 0.315,0.036 0.095,-0.465 0.48,-0.36 -0.034,0.314 0.043,0.516 0.359,0.48 0.452,-0.398 -0.341,-1.633 0.36,-1.56 0.55,0.066 -0.331,1.119 0.6,0.96 -0.005,-0.365 -0.069,-0.79 0.36,-0.72 0.206,0.154 0.148,0.571 0.48,0.6 0.165,-0.155 0.118,-0.521 0.119,-0.84 0.553,-0.072 0.339,0.622 0.721,0.72 0.105,-0.51 0.688,0.154 0.96,-0.24 -0.066,-0.213 -0.062,-0.498 -0.24,-0.6 0.021,0.262 -0.099,0.381 -0.36,0.36 -0.027,-1.095 -0.342,-1.431 0,-2.4 0.608,0.235 0.33,-0.169 0.84,-0.24 0.207,0.537 0.08,0.744 0.36,1.08 0.162,-0.038 0.229,-0.171 0.479,-0.12 0.344,0.777 0.743,1.497 1.561,1.8 0.069,-0.389 -0.082,-0.558 -0.12,-0.84 0.465,-0.104 0.196,0.524 0.72,0.36 -0.128,-0.569 0.603,-0.278 0.601,-0.72 0.269,-1.155 -0.549,-2.434 0.12,-2.88 0.602,1.264 -0.452,3.457 0.84,3.96 -0.055,0.574 0.087,0.953 0.359,1.2 0.516,-0.524 0.313,-1.767 0.36,-2.76 0.301,-0.159 0.376,0.475 0.48,0.12 0.226,-0.495 0.239,-1.201 0.6,-1.56 1.402,0.546 3.187,1.345 4.32,1.44 0.091,-0.988 0.874,-1.286 1.08,-2.16 0.433,0.086 0.431,0.609 0.479,1.08 0.846,-0.206 0.619,0.661 1.2,0.72 0.223,-0.697 0.008,-1.832 0.479,-2.28 0.232,0.39 0.492,0.394 0.841,0.12 0.118,0.282 0.21,0.589 0.239,0.96 0.486,-0.166 0.38,0.26 0.721,0.24 -0.055,-1.341 -0.642,-2.27 0,-3.479 0.227,0.292 0.258,0.782 0.24,1.32 0.943,0.269 1.279,0.434 2.159,0.84 0.03,-0.43 -0.36,-0.439 -0.359,-0.84 0.799,0.201 0.872,1.127 1.56,1.44 0.178,-0.388 0.62,0.05 0.6,-0.36 0.578,-0.018 0.464,0.656 0.841,0.84 0.704,-0.559 1.074,0.301 1.56,0.12 -0.394,-1.127 -0.796,-2.121 -0.6,-3.24 1.185,0.724 0.328,3 1.439,3.6 0.191,-0.089 -0.027,-0.587 0.36,-0.48 0.032,0.488 0.559,0.481 0.84,0.72 -0.024,-0.759 -0.367,-1.346 -0.12,-2.04 0.923,0.186 -0.074,2.007 0.84,2.4 0,-0.4 0,-0.8 0,-1.2 0.843,-0.002 0.142,1.539 0.721,1.8 0.139,-0.101 0.321,-0.158 0.6,-0.12 -0.068,0.789 0.955,0.485 0.72,1.44 0.621,-0.215 0.455,0.739 0.841,1.08 0.506,-0.734 1.47,-1.01 1.56,-2.16 0.366,0.087 0.438,-0.123 0.72,-0.12 0.184,1.359 1.394,1.026 1.92,1.92 0.282,-0.038 0.071,-0.569 0.48,-0.48 -0.07,0.39 0.082,0.559 0.12,0.84 -0.164,0.088 -0.619,0.485 -0.24,0.72 0.247,-0.033 0.028,-0.531 0.36,-0.48 0.308,0.652 0.318,1.601 0.72,2.16 0.341,0.021 -0.146,-0.785 0.36,-0.6 0.525,2.994 2.069,4.97 3.239,7.32 0.059,-0.142 0.128,-0.272 0.24,-0.36 0.144,0.657 0.325,1.275 0.6,1.8 -0.006,-0.207 0.093,-0.308 0.24,-0.36 0.177,0.577 0.12,1.495 0.72,1.32 0.155,1.165 0.741,1.899 1.32,2.64 -0.135,4.821 0.812,9.934 0.48,14.76 0.289,0.049 0.261,-0.219 0.6,-0.12 0.036,1.485 -1.86,2.289 -1.08,3.72 -0.409,1.172 -0.71,2.179 -0.6,3.36 0.43,-0.05 0.262,-0.697 0.72,-0.72 -0.375,1.754 -1.743,3.351 -1.56,4.92 0.366,-0.113 0.376,-0.584 0.84,-0.6 -0.231,1.26 -1.952,2.506 -1.08,3.72 -0.295,0.626 -0.599,1.241 -0.84,1.92 0.188,0.012 0.416,-0.016 0.359,0.24 -0.861,0.898 -1.514,2.646 -1.8,3.72 0.846,-0.594 1.028,-1.852 2.04,-2.279 -0.051,0.731 -0.765,0.948 -0.48,1.68 -0.957,0.723 -2.096,1.264 -2.52,2.52 0.021,0.141 0.189,0.131 0.36,0.12 -0.573,1.494 -2.044,2.232 -1.44,3.721 -0.498,1.102 -1.848,1.353 -1.92,2.88 0.021,0.14 0.189,0.13 0.36,0.12 -0.125,0.576 -0.435,0.978 -1.08,0.72 -0.029,0.691 -0.586,0.854 -0.841,1.32 0.002,0.238 0.328,0.152 0.24,0.479 -0.229,0.451 -0.718,0.643 -0.84,1.2 0.12,0 0.24,0 0.36,0 -0.042,0.397 -0.359,0.521 -0.601,0.72 -0.019,-0.142 0.021,-0.341 -0.119,-0.36 -0.181,0.261 -0.601,0.28 -0.601,0.721 0.12,0 0.24,0 0.36,0 -0.124,0.566 -0.748,0.964 -1.08,0.96 0.093,0.9 -1.304,1.019 -0.6,1.8 -1.125,0.514 -1.821,2.176 -2.641,3.36 0.094,0.026 0.236,0.003 0.24,0.12 -0.259,0.375 -0.631,0.451 -0.96,0.479 -1.267,2.534 -3.138,4.463 -5.28,6.12 0.245,0.066 0.235,0.361 0.48,0.12 -0.429,1.052 -2.115,0.845 -2.28,2.16 -0.24,0 -0.48,0 -0.72,0 0,0.239 0,0.479 0,0.72 -1.029,0.011 -1.203,0.877 -1.92,1.2 -0.048,0.874 -1.617,1.263 -1.92,2.28 1.096,-0.504 1.607,-1.592 2.879,-1.921 -0.556,0.991 -2.744,2.771 -3.84,2.641 -0.215,0.704 -1.147,0.692 -1.08,1.68 -1.706,0.573 -2.219,2.341 -3.72,3.12 0.14,0.178 0.14,0.303 0,0.48 -2.062,0.617 -2.781,2.578 -4.439,3.6 0.006,0.153 0.153,0.166 0.12,0.359 -0.282,0.479 -1.463,0.059 -1.44,0.841 0.612,-0.071 0.929,-0.434 1.443,-0.601 z"
   id="path12"
   style="fill-rule:evenodd" />
		<path
   d="m 259.08,207.36 c -0.022,-0.782 1.158,-0.362 1.44,-0.841 0.033,-0.193 -0.114,-0.206 -0.12,-0.359 1.658,-1.021 2.378,-2.982 4.439,-3.6 0.14,-0.178 0.14,-0.303 0,-0.48 1.501,-0.779 2.014,-2.547 3.72,-3.12 -0.067,-0.987 0.865,-0.976 1.08,-1.68 1.096,0.131 3.284,-1.649 3.84,-2.641 -1.271,0.329 -1.783,1.417 -2.879,1.921 0.303,-1.018 1.872,-1.406 1.92,-2.28 0.717,-0.323 0.891,-1.189 1.92,-1.2 0,-0.24 0,-0.48 0,-0.72 0.239,0 0.479,0 0.72,0 0.165,-1.315 1.852,-1.108 2.28,-2.16 -0.245,0.241 -0.235,-0.054 -0.48,-0.12 2.143,-1.657 4.014,-3.586 5.28,-6.12 0.329,-0.028 0.701,-0.104 0.96,-0.479 -0.004,-0.117 -0.146,-0.094 -0.24,-0.12 0.819,-1.185 1.516,-2.847 2.641,-3.36 -0.704,-0.781 0.692,-0.899 0.6,-1.8 0.332,0.004 0.956,-0.394 1.08,-0.96 -0.12,0 -0.24,0 -0.36,0 0,-0.44 0.42,-0.46 0.601,-0.721 0.141,0.02 0.101,0.219 0.119,0.36 0.241,-0.199 0.559,-0.322 0.601,-0.72 -0.12,0 -0.24,0 -0.36,0 0.122,-0.558 0.611,-0.749 0.84,-1.2 0.088,-0.327 -0.238,-0.241 -0.24,-0.479 0.255,-0.467 0.812,-0.629 0.841,-1.32 0.646,0.258 0.955,-0.144 1.08,-0.72 -0.171,0.01 -0.34,0.02 -0.36,-0.12 0.072,-1.527 1.422,-1.778 1.92,-2.88 -0.604,-1.488 0.867,-2.227 1.44,-3.721 -0.171,0.011 -0.34,0.021 -0.36,-0.12 0.424,-1.256 1.562,-1.797 2.52,-2.52 -0.284,-0.731 0.43,-0.948 0.48,-1.68 -1.012,0.428 -1.194,1.686 -2.04,2.279 0.286,-1.074 0.938,-2.821 1.8,-3.72 0.057,-0.256 -0.171,-0.229 -0.359,-0.24 0.241,-0.679 0.545,-1.294 0.84,-1.92 -0.872,-1.214 0.849,-2.46 1.08,-3.72 -0.464,0.016 -0.474,0.486 -0.84,0.6 -0.184,-1.569 1.185,-3.166 1.56,-4.92 -0.458,0.023 -0.29,0.67 -0.72,0.72 -0.11,-1.181 0.19,-2.188 0.6,-3.36 -0.78,-1.431 1.116,-2.235 1.08,-3.72 -0.339,-0.099 -0.311,0.169 -0.6,0.12 0.332,-4.827 -0.615,-9.939 -0.48,-14.76 -0.579,-0.741 -1.165,-1.475 -1.32,-2.64 -0.6,0.175 -0.543,-0.743 -0.72,-1.32 -0.147,0.053 -0.246,0.154 -0.24,0.36 -0.274,-0.525 -0.456,-1.144 -0.6,-1.8 -0.112,0.088 -0.182,0.218 -0.24,0.36 -1.17,-2.35 -2.714,-4.326 -3.239,-7.32 -0.506,-0.185 -0.02,0.621 -0.36,0.6 -0.401,-0.559 -0.412,-1.508 -0.72,-2.16 -0.332,-0.051 -0.113,0.447 -0.36,0.48 -0.379,-0.234 0.076,-0.632 0.24,-0.72 -0.038,-0.282 -0.19,-0.451 -0.12,-0.84 -0.409,-0.088 -0.198,0.442 -0.48,0.48 -0.526,-0.895 -1.736,-0.562 -1.92,-1.92 -0.282,-0.002 -0.354,0.207 -0.72,0.12 -0.09,1.15 -1.054,1.426 -1.56,2.16 -0.386,-0.341 -0.22,-1.295 -0.841,-1.08 0.235,-0.955 -0.788,-0.651 -0.72,-1.44 -0.278,-0.038 -0.461,0.019 -0.6,0.12 -0.579,-0.262 0.122,-1.803 -0.721,-1.8 0,0.4 0,0.8 0,1.2 -0.914,-0.393 0.083,-2.214 -0.84,-2.4 -0.247,0.694 0.096,1.281 0.12,2.04 -0.281,-0.239 -0.808,-0.232 -0.84,-0.72 -0.388,-0.107 -0.169,0.391 -0.36,0.48 -1.111,-0.601 -0.255,-2.876 -1.439,-3.6 -0.196,1.12 0.206,2.113 0.6,3.24 -0.485,0.181 -0.855,-0.679 -1.56,-0.12 -0.377,-0.184 -0.263,-0.857 -0.841,-0.84 0.021,0.41 -0.422,-0.028 -0.6,0.36 -0.688,-0.312 -0.761,-1.239 -1.56,-1.44 -0.001,0.4 0.39,0.41 0.359,0.84 -0.88,-0.406 -1.216,-0.571 -2.159,-0.84 0.018,-0.538 -0.014,-1.027 -0.24,-1.32 -0.642,1.209 -0.055,2.139 0,3.479 -0.341,0.021 -0.234,-0.406 -0.721,-0.24 -0.029,-0.371 -0.121,-0.678 -0.239,-0.96 -0.349,0.274 -0.608,0.27 -0.841,-0.12 -0.472,0.448 -0.257,1.583 -0.479,2.28 -0.581,-0.059 -0.354,-0.925 -1.2,-0.72 -0.049,-0.471 -0.047,-0.994 -0.479,-1.08 -0.206,0.875 -0.989,1.172 -1.08,2.16 -1.134,-0.095 -2.918,-0.894 -4.32,-1.44 -0.36,0.359 -0.374,1.065 -0.6,1.56 -0.104,0.354 -0.18,-0.279 -0.48,-0.12 -0.047,0.993 0.155,2.235 -0.36,2.76 -0.272,-0.247 -0.414,-0.625 -0.359,-1.2 -1.292,-0.503 -0.238,-2.696 -0.84,-3.96 -0.669,0.446 0.148,1.725 -0.12,2.88 0.002,0.442 -0.729,0.151 -0.601,0.72 -0.523,0.164 -0.255,-0.465 -0.72,-0.36 0.038,0.282 0.189,0.451 0.12,0.84 -0.817,-0.303 -1.217,-1.022 -1.561,-1.8 -0.25,-0.051 -0.317,0.082 -0.479,0.12 -0.28,-0.336 -0.153,-0.543 -0.36,-1.08 -0.51,0.071 -0.231,0.476 -0.84,0.24 -0.342,0.969 -0.027,1.305 0,2.4 0.262,0.021 0.382,-0.098 0.36,-0.36 0.179,0.102 0.174,0.386 0.24,0.6 -0.271,0.395 -0.854,-0.27 -0.96,0.24 -0.382,-0.099 -0.168,-0.792 -0.721,-0.72 -0.001,0.319 0.046,0.686 -0.119,0.84 -0.332,-0.029 -0.274,-0.446 -0.48,-0.6 -0.43,-0.07 -0.365,0.355 -0.36,0.72 -0.931,0.159 -0.05,-0.894 -0.6,-0.96 -0.701,-0.073 0.092,1.162 -0.36,1.56 -0.316,0.036 -0.394,-0.166 -0.359,-0.48 -0.386,-0.105 -0.165,0.396 -0.48,0.36 -0.059,-0.213 -0.686,-0.695 -0.6,0 -0.968,0.014 -0.269,-1.454 -0.96,-1.44 -0.119,0.582 0.327,1.025 0,1.44 -0.259,-0.796 -0.673,0.42 -0.841,-0.36 -1.153,0.353 -1.108,1.62 -0.84,3 -1.089,-0.271 -1.814,-0.905 -2.64,-1.44 -0.521,0.409 0.601,2.727 -1.2,2.16 -0.617,-0.462 -0.938,-1.222 -1.68,-1.56 -0.5,2.026 0.688,3.169 1.2,4.8 -0.029,0.211 -0.207,0.273 -0.48,0.24 0.051,0.549 0.626,0.574 0.84,0.96 -0.276,0.748 0.078,1.39 0,2.28 0.692,0.466 0.621,1.786 1.44,2.4 0.049,0.29 -0.22,0.261 -0.12,0.6 0.046,0.474 0.388,0.652 0.6,0.96 -0.022,0.097 -0.12,0.12 -0.12,0.24 0.021,0.26 -0.425,0.054 -0.6,0.12 0.102,0.501 -0.233,0.566 -0.24,0.96 0.729,0.245 1.104,2.447 0.48,2.88 -0.006,0.365 0.253,0.467 0.359,0.72 -0.566,0.753 -0.712,1.928 -1.68,2.28 -0.236,2.331 -0.149,3.901 -0.84,5.76 -0.083,0.237 -0.32,0.32 -0.6,0.36 -0.04,1.48 -1.693,1.347 -1.681,2.88 -0.656,0.503 -1.212,1.108 -1.92,1.56 -0.087,0.327 0.238,0.242 0.24,0.48 -1.019,2.261 -2.538,4.71 -3.12,7.439 -0.168,0.79 0.119,1.881 -0.72,2.4 0,0.271 0.608,0.773 -0.12,0.72 0.142,1.497 -0.663,2.581 -1.32,3.84 0.641,1.483 -0.305,2.47 0.12,4.2 0.037,0.277 -0.347,0.134 -0.36,0.36 -0.225,1.526 -0.82,3.636 -3,3.6 -0.243,0.329 -0.659,0.67 -0.359,1.2 -1.193,1.646 -2.267,3.414 -3.12,5.4 -0.14,0.101 -0.321,0.158 -0.601,0.12 0.172,1.051 -0.57,1.189 -0.84,1.8 0.16,0 0.32,0 0.48,0 -0.347,1.373 -1.129,2.312 -1.32,3.84 0.319,0.041 0.421,0.3 0.721,0.36 0.059,0.378 -0.217,0.424 -0.12,0.84 -0.143,0.138 -0.425,0.136 -0.721,0.12 0.247,0.604 -0.325,1.11 -0.6,1.56 0.464,1.045 -0.284,2.153 -0.72,3 0.377,0.057 0.316,-0.323 0.6,-0.359 0.002,0.521 0.04,1.079 -0.12,1.439 2.02,0.185 3.103,1.933 4.44,2.4 -0.052,0.428 -0.541,0.418 -0.84,0.6 0.009,0.751 0.458,1.062 0.6,1.68 0.369,0.084 0.23,0.084 0.6,0 0.982,1.606 3.504,1.507 4.44,2.881 0.148,0.388 -0.389,0.091 -0.24,0.479 0.474,0.386 0.786,-0.19 1.08,-0.36 0.265,0.016 0.051,0.51 0.12,0.721 -0.481,-0.002 -0.195,0.764 -0.72,0.72 -0.004,0.363 0.604,0.116 0.6,0.479 -0.114,0.366 -0.445,0.515 -0.36,1.08 0.754,0.247 1.431,0.57 2.041,0.96 -0.149,0.252 -0.854,-0.054 -0.601,0.601 0.507,0.026 0.775,-0.186 1.2,-0.24 -0.116,0.316 0.248,0.548 0.72,0.6 -0.524,1.035 -1.242,1.878 -1.68,3 1.206,0.153 1.873,0.847 2.76,1.32 0.041,0.801 -0.405,1.114 -0.6,1.68 0.993,0.486 2.282,0.678 2.52,1.92 -0.514,0.074 -0.489,-0.391 -0.96,-0.359 0.444,0.596 1.003,1.077 1.68,1.439 0.1,0.34 -0.169,0.312 -0.119,0.601 0.896,0.503 1.43,1.369 2.279,1.92 -0.452,0.828 -1.275,1.284 -1.32,2.52 0.637,0.404 1.195,0.886 2.041,1.08 4.005,-2.435 7.66,-5.219 11.279,-8.04 1.528,-0.231 2.442,-1.078 3.721,-1.56 0,-0.12 0,-0.24 0,-0.36 -0.516,0.168 -0.833,0.531 -1.443,0.601 z"
   id="path14"
   style="fill:#ffffff;fill-rule:evenodd" />
	</g>
</g>
</svg>