<?xml version="1.0" encoding="UTF-8" standalone="no"?>
<!-- Created with Inkscape (http://www.inkscape.org/) -->

<svg
   xmlns:svg="http://www.w3.org/2000/svg"
   xmlns="http://www.w3.org/2000/svg"
   version="1.0"
   width="947pt"
   height="1046pt"
   viewBox="0 0 947 1046"
   id="svg2">
  <defs
     id="defs12" />
  <g
     transform="matrix(0.1,0,0,-0.1,0,1046)"
     id="g6"
     style="fill:#000000;stroke:none">
    <path
       d="m 5160,10233 c 0,-4 18,-21 40,-38 35,-25 38,-30 23,-38 -12,-8 -21,-5 -33,11 -10,12 -20,18 -24,15 -3,-4 3,-17 15,-29 24,-26 8,-45 -19,-22 -16,14 -67,38 -79,38 -3,0 0,-7 7,-15 16,-19 1,-19 -39,1 -46,23 -50,9 -4,-15 49,-26 32,-26 -40,-2 -33,12 -57,16 -57,10 0,-7 -12,-8 -31,-4 -45,10 -28,-11 19,-25 46,-12 55,-13 47,0 -10,17 11,11 36,-9 21,-17 22,-20 7,-26 -9,-4 -33,-2 -54,4 -50,14 -55,7 -10,-14 40,-19 48,-36 14,-28 -19,4 -20,3 -8,-7 12,-9 8,-10 -20,-5 -19,4 -57,8 -85,10 l -50,4 55,-14 55,-14 -90,4 c -69,3 -81,2 -50,-5 22,-5 55,-9 73,-9 17,-1 32,-5 32,-11 0,-6 -35,-11 -82,-12 l -83,-2 80,-6 c 75,-6 77,-7 25,-9 -104,-6 -110,-19 -10,-20 107,-1 108,-18 1,-20 -75,-1 -168,-18 -176,-32 -8,-12 7,-12 39,1 38,14 149,21 166,11 11,-8 9,-12 -13,-20 -16,-6 -38,-11 -50,-11 -57,-1 -257,-63 -244,-76 4,-4 22,1 40,10 19,9 51,17 71,18 20,2 36,6 36,9 0,12 75,18 110,10 l 35,-9 -45,-1 c -25,-1 -56,-9 -70,-17 l -25,-15 25,5 c 14,3 36,8 50,11 15,4 5,-5 -22,-20 -54,-29 -61,-38 -20,-29 22,4 24,3 12,-6 -12,-9 -10,-11 10,-6 14,3 36,8 50,11 14,3 -10,-12 -53,-33 -73,-36 -111,-62 -93,-62 5,0 26,10 47,22 30,17 42,19 51,10 9,-9 7,-15 -8,-27 -25,-19 -15,-19 31,1 57,24 65,11 9,-16 -31,-16 -43,-26 -32,-28 9,-2 30,4 47,12 37,20 38,20 38,1 0,-8 -9,-17 -19,-21 -11,-3 -17,-11 -15,-18 3,-7 -25,-31 -64,-55 -38,-23 -69,-46 -69,-51 0,-5 21,4 47,20 57,37 79,39 38,4 -28,-23 -28,-24 -6,-18 16,4 21,3 17,-5 -10,-16 6,-14 32,5 19,13 22,13 22,0 0,-17 -37,-48 -80,-66 -16,-7 -30,-18 -30,-26 0,-9 11,-6 36,11 44,30 54,31 54,8 0,-10 -16,-28 -35,-41 -19,-12 -35,-27 -35,-32 0,-15 8,-12 44,15 41,31 67,34 40,4 -19,-21 -19,-22 1,-15 16,4 25,-1 38,-23 9,-16 17,-32 17,-35 0,-3 -33,-6 -72,-6 -40,-1 -92,-5 -115,-9 -24,-5 -43,-4 -43,0 0,5 -7,9 -16,9 -9,0 -12,-5 -8,-12 5,-8 -9,-10 -52,-5 -56,5 -58,5 -29,-8 17,-8 26,-14 20,-14 -15,-1 -124,17 -146,24 -10,4 -19,2 -19,-4 0,-5 8,-12 18,-14 9,-3 -5,-6 -33,-8 -70,-4 -83,-4 -144,5 -38,6 -52,5 -47,-3 4,-6 22,-11 39,-12 18,0 41,-5 52,-10 13,-6 2,-7 -35,-2 -30,3 -62,6 -70,6 -8,-1 -69,-4 -135,-7 -102,-5 -227,-21 -187,-25 6,0 12,-6 12,-12 0,-7 -16,-8 -45,-3 -38,5 -45,4 -45,-10 0,-9 -7,-16 -15,-16 -8,0 -15,-9 -15,-20 0,-15 -7,-20 -25,-20 -14,0 -25,-4 -25,-10 0,-5 -14,-10 -31,-10 -39,0 -29,16 16,24 19,4 35,12 35,17 0,12 -42,5 -100,-17 -31,-11 -32,-13 -10,-14 22,-1 21,-2 -10,-14 -92,-36 -99,-41 -105,-66 -4,-18 -26,-39 -71,-69 -36,-24 -68,-49 -71,-57 -3,-8 -12,-14 -20,-14 -25,0 -74,-30 -67,-42 5,-7 0,-9 -14,-6 -12,3 -26,0 -32,-7 -6,-7 -30,-18 -55,-24 -44,-11 -123,-71 -95,-71 8,-1 2,-7 -15,-16 l -30,-14 31,4 c 18,3 45,8 60,11 49,11 5,-11 -52,-25 -52,-13 -114,-54 -101,-66 4,-4 12,-3 18,3 6,6 18,9 26,6 10,-4 2,-12 -24,-24 l -38,-19 40,5 c 22,3 51,8 65,11 19,5 22,4 14,-5 -6,-7 -27,-16 -45,-21 -105,-26 -143,-40 -162,-59 -21,-20 -21,-21 -2,-21 11,0 29,7 39,15 22,17 36,19 36,6 0,-5 -13,-14 -30,-21 -16,-7 -30,-16 -30,-21 0,-5 -7,-9 -15,-9 -17,0 -21,-26 -4,-32 5,-2 -10,-19 -35,-38 -27,-19 -42,-37 -35,-40 6,-4 0,-14 -15,-24 -17,-10 -26,-12 -26,-5 0,8 -4,8 -15,-1 -14,-11 -13,-14 1,-24 14,-11 14,-13 0,-25 -8,-7 -20,-10 -26,-6 -5,3 -10,0 -10,-7 0,-8 -20,-28 -45,-46 -45,-32 -60,-57 -27,-45 16,6 7,-7 -45,-65 -7,-7 -13,-19 -13,-26 0,-8 -19,-26 -42,-41 -24,-16 -37,-30 -30,-33 7,-2 19,2 27,8 32,27 15,-16 -20,-50 -19,-19 -35,-38 -35,-43 0,-5 -9,-22 -21,-38 -11,-16 -15,-29 -9,-29 6,0 0,-14 -12,-31 -19,-25 -20,-31 -8,-39 10,-6 20,-4 31,6 23,21 35,17 15,-5 -10,-11 -15,-24 -12,-29 7,-11 -18,-35 -27,-25 -10,10 -46,-40 -47,-65 0,-13 4,-21 10,-17 5,3 7,11 5,18 -3,7 6,17 20,24 14,6 25,8 25,5 -1,-12 -55,-79 -65,-81 -5,0 -10,-7 -11,-14 -1,-6 -13,-38 -29,-71 -19,-40 -24,-60 -16,-65 8,-5 7,-13 -4,-27 -11,-15 -15,-16 -15,-4 -2,23 -22,-31 -25,-65 -1,-16 2,-35 7,-42 6,-7 1,-32 -12,-70 -25,-68 -31,-105 -18,-114 6,-4 6,-14 -1,-25 -19,-34 -71,-166 -71,-180 0,-8 -7,-26 -16,-39 -14,-21 -21,-41 -23,-67 -1,-5 -6,-8 -11,-8 -14,0 -70,-51 -70,-64 0,-5 -14,-24 -31,-42 -17,-17 -36,-49 -44,-70 -14,-41 -35,-57 -35,-27 0,14 -2,15 -9,4 -5,-8 -8,-23 -6,-33 4,-18 -6,-22 -55,-20 -14,1 -19,-1 -12,-4 10,-5 9,-9 -5,-20 -14,-11 -15,-13 -3,-14 22,0 -37,-29 -87,-42 -55,-13 -66,-28 -16,-22 36,5 37,5 18,-11 -11,-9 -39,-21 -62,-27 -24,-5 -53,-21 -66,-34 -13,-13 -42,-26 -65,-30 -23,-4 -54,-18 -69,-31 -23,-20 -24,-24 -8,-19 28,7 125,17 101,10 -14,-4 -15,-8 -6,-14 7,-5 -6,-12 -37,-19 -75,-18 -88,-32 -23,-26 51,4 52,4 20,-6 -77,-24 -92,-32 -78,-40 10,-7 10,-9 -2,-10 -25,-3 -33,-6 -78,-24 -23,-10 -42,-22 -42,-27 0,-11 2,-10 43,7 43,18 47,18 47,6 0,-6 -34,-27 -75,-47 -41,-20 -75,-41 -75,-45 0,-5 16,-1 35,8 34,16 53,14 41,-6 -3,-5 -28,-17 -54,-25 -64,-22 -99,-46 -81,-57 11,-6 10,-11 -6,-23 -13,-10 -15,-15 -6,-16 10,0 11,-3 2,-13 -6,-8 -8,-16 -5,-19 3,-3 -11,-18 -31,-34 -23,-17 -32,-30 -25,-34 12,-8 -13,-40 -31,-40 -16,0 -122,-74 -111,-78 6,-2 36,11 68,27 67,36 61,35 61,16 0,-13 -4,-16 -22,-15 -3,1 -13,-6 -21,-15 -9,-8 -21,-15 -28,-15 -8,0 -19,-7 -26,-15 -18,-22 3,-19 42,5 18,11 42,20 53,19 17,-1 17,-2 -5,-12 -42,-20 -151,-90 -146,-94 2,-3 22,5 44,16 23,12 43,16 48,11 6,-6 15,-5 24,0 12,8 13,12 2,19 -11,6 -10,10 3,15 23,9 27,8 19,-6 -4,-6 0,-16 9,-23 13,-10 8,-14 -34,-29 -27,-10 -49,-24 -49,-32 0,-8 -4,-14 -9,-14 -15,0 -161,-99 -161,-110 0,-6 23,5 51,25 54,37 90,48 52,16 -22,-19 -32,-38 -14,-27 5,4 16,3 25,0 12,-5 5,-15 -31,-42 -27,-19 -62,-48 -80,-65 -20,-18 -38,-27 -48,-23 -19,7 -32,-21 -16,-37 8,-8 19,-3 41,18 16,16 30,23 30,16 0,-7 5,-9 10,-6 29,18 2,-15 -65,-78 -41,-40 -75,-78 -75,-86 0,-11 4,-11 18,2 29,26 38,20 12,-8 -30,-32 -16,-32 27,1 18,14 33,21 33,15 0,-5 -5,-13 -10,-16 -6,-4 -8,-11 -4,-16 7,-13 -32,-42 -58,-44 -19,-2 -88,-62 -88,-77 0,-5 10,-2 23,7 13,8 27,12 30,8 4,-3 18,4 31,16 13,12 26,18 29,13 4,-4 -14,-26 -39,-46 -25,-21 -43,-40 -40,-43 3,-3 12,0 21,7 9,7 18,11 20,8 3,-3 -18,-24 -46,-47 -53,-46 -61,-68 -11,-32 35,25 46,27 39,7 -3,-8 -2,-16 3,-18 6,-2 -19,-39 -55,-83 -86,-105 -86,-114 -1,-53 22,15 41,26 44,23 11,-10 -20,-51 -56,-75 -20,-14 -39,-27 -42,-30 -3,-3 -23,-15 -45,-27 -22,-12 -42,-30 -44,-39 -3,-17 -2,-17 14,-1 9,10 31,25 48,34 18,9 51,29 75,45 23,16 42,25 42,20 0,-10 -44,-51 -88,-81 -18,-13 -31,-26 -27,-29 3,-3 25,9 50,26 25,17 45,30 45,27 0,-13 -37,-60 -49,-63 -18,-4 -111,-83 -111,-94 0,-5 16,3 35,18 40,30 47,19 10,-16 -28,-26 -33,-42 -10,-34 24,10 18,-6 -20,-47 -19,-22 -35,-50 -35,-62 0,-13 -11,-34 -25,-47 -14,-13 -25,-30 -25,-39 0,-10 12,-3 35,19 46,44 46,23 0,-26 -19,-20 -35,-44 -35,-53 1,-13 3,-13 15,3 13,17 15,17 15,3 0,-10 5,-14 15,-11 11,5 13,2 9,-10 -3,-9 -11,-16 -18,-16 -6,-1 -24,-21 -39,-45 -16,-25 -35,-45 -43,-45 -8,0 -14,-4 -14,-10 0,-9 14,-14 33,-11 12,2 8,-16 -8,-29 -9,-7 -13,-21 -10,-31 3,-9 1,-20 -5,-24 -15,-9 -12,-25 4,-25 29,0 22,-60 -10,-100 -7,-8 -18,-28 -23,-44 -10,-24 -9,-27 4,-22 19,7 19,-3 2,-29 -8,-11 -19,-35 -25,-52 -9,-27 -8,-33 4,-33 8,0 17,13 21,30 3,17 9,30 14,30 5,0 9,6 9,13 0,18 27,54 34,46 3,-3 -5,-27 -19,-54 -14,-26 -24,-53 -21,-59 3,-7 5,-7 5,2 1,15 21,16 21,2 0,-6 -9,-30 -20,-52 -22,-46 -19,-63 6,-32 17,21 17,19 -11,-64 -16,-52 -14,-82 5,-52 14,22 12,-2 -4,-47 -7,-21 -16,-57 -19,-78 -3,-22 -13,-54 -22,-72 -9,-17 -13,-44 -11,-60 3,-16 -1,-41 -9,-57 -8,-15 -12,-32 -9,-37 9,-16 24,1 24,27 0,15 6,24 15,24 20,0 19,-13 -5,-57 -22,-41 -25,-63 -10,-63 6,0 10,6 10,13 0,16 23,67 30,67 8,0 8,-84 0,-90 -4,-3 -13,-30 -22,-60 -8,-30 -21,-54 -27,-52 -17,3 -13,-15 5,-22 11,-4 18,3 26,25 17,49 21,25 4,-30 -10,-33 -11,-51 -4,-51 6,0 8,-9 5,-20 -3,-13 0,-20 9,-20 23,0 37,-40 30,-84 -12,-70 -13,-96 -5,-96 4,0 10,8 12,18 3,9 3,-16 1,-55 -2,-56 0,-73 10,-73 9,0 13,14 11,48 -2,54 9,92 26,92 7,0 9,-9 4,-27 -11,-46 -14,-93 -4,-93 5,0 9,10 10,23 1,21 1,21 8,-3 5,-14 6,-44 4,-67 -5,-47 3,-56 17,-20 7,17 9,9 9,-35 1,-49 3,-56 19,-51 16,4 18,-4 19,-66 1,-91 9,-125 28,-117 18,6 30,-32 22,-69 -2,-14 0,-28 4,-31 5,-3 9,10 9,28 0,18 4,39 9,46 14,23 22,-13 16,-76 -3,-42 -2,-49 4,-27 5,17 9,45 10,63 0,17 5,32 11,32 5,0 9,-18 8,-40 -1,-22 2,-43 5,-47 4,-3 7,5 7,18 0,13 5,31 11,39 8,11 9,6 5,-20 -3,-19 -9,-71 -12,-115 -4,-44 -12,-83 -18,-87 -7,-5 -5,-8 5,-8 13,0 18,14 24,57 13,103 22,99 19,-7 -2,-68 0,-95 5,-75 8,27 9,26 10,-18 1,-59 21,-54 22,6 1,48 6,40 12,-18 2,-22 9,-39 15,-38 6,2 13,-22 17,-55 13,-111 23,-112 24,-3 1,57 3,102 5,100 2,-2 6,-56 9,-119 6,-115 21,-185 38,-174 5,3 4,14 -2,26 -7,12 -14,43 -16,70 -4,37 -1,48 10,48 10,0 17,-18 23,-62 7,-62 8,-62 14,-23 6,44 3,50 34,-65 11,-42 15,-48 15,-26 1,41 15,23 36,-47 22,-71 35,-81 29,-25 -4,39 -2,37 21,-27 43,-120 77,-188 111,-224 19,-19 34,-31 34,-28 0,4 -13,35 -29,70 -30,65 -71,188 -71,213 0,34 17,8 41,-64 85,-250 110,-302 141,-302 7,0 2,10 -9,22 -24,27 -43,62 -43,80 0,7 14,-9 31,-35 34,-52 50,-57 25,-8 -9,16 -12,32 -7,35 5,3 19,-19 31,-49 24,-59 50,-90 50,-61 0,10 4,14 10,11 14,-9 12,0 -8,37 -13,22 -16,40 -11,53 5,13 8,15 8,5 1,-18 71,-124 77,-117 2,2 -7,24 -21,48 -25,44 -31,69 -17,69 4,0 23,-28 42,-62 35,-63 148,-193 158,-183 3,3 -9,20 -26,38 -40,41 -43,61 -4,24 16,-15 31,-25 35,-21 3,3 11,3 17,-1 9,-6 9,-9 1,-14 -8,-5 -5,-14 9,-26 16,-14 23,-16 29,-7 5,8 17,5 43,-13 21,-14 41,-25 46,-25 5,0 15,-7 22,-15 9,-10 9,-15 1,-15 -6,0 -11,-4 -11,-10 0,-5 7,-10 15,-10 8,0 15,5 15,11 0,20 24,3 30,-22 4,-17 14,-25 34,-27 16,-2 32,1 35,7 5,7 30,0 71,-20 35,-16 69,-28 76,-25 8,3 39,-4 70,-14 64,-22 100,-27 74,-10 -10,7 -1,8 30,4 25,-3 68,-7 95,-9 28,-2 50,-4 50,-5 0,0 25,-3 55,-5 46,-3 51,-2 27,7 -15,5 -25,14 -22,19 4,5 22,2 43,-7 24,-10 38,-11 40,-4 2,5 10,10 18,10 9,0 12,4 9,10 -3,5 3,10 15,10 12,0 19,3 17,8 -3,4 27,7 66,7 50,0 71,4 70,12 -3,13 32,27 46,18 5,-3 12,-1 16,5 3,5 19,10 36,10 16,0 29,5 29,10 0,6 12,10 28,10 15,0 34,5 42,10 12,7 8,10 -15,11 -20,0 -9,6 35,16 36,8 77,24 91,34 14,10 38,21 53,25 17,4 25,11 22,20 -5,13 0,15 46,18 22,1 36,16 15,16 -9,0 -17,5 -17,11 0,8 12,10 34,6 24,-4 39,-1 47,9 9,12 6,14 -17,15 -26,1 -26,2 7,8 40,8 107,61 76,61 -9,0 -17,5 -17,10 0,6 10,8 23,5 19,-5 29,1 51,30 16,20 30,34 33,31 17,-16 107,133 96,160 -3,8 2,16 11,19 9,3 23,7 32,10 9,3 12,10 7,17 -4,7 -8,18 -8,23 -1,6 -6,9 -13,7 -7,-1 -12,2 -12,8 0,21 -19,9 -41,-27 -13,-20 -24,-32 -26,-26 -6,17 50,92 67,90 9,-1 15,6 15,20 0,11 3,25 7,29 13,13 9,24 -7,18 -8,-4 -15,-1 -15,5 0,7 6,14 14,17 10,4 14,21 13,60 -1,30 -6,54 -10,54 -5,0 -7,6 -4,14 3,8 -3,22 -14,32 -10,9 -19,13 -19,8 -1,-5 -7,2 -14,15 l -14,25 -21,-41 c -20,-40 -41,-63 -41,-46 0,5 9,25 20,45 19,36 11,66 -9,31 -8,-14 -11,-11 -17,22 -5,22 -8,43 -9,47 -1,15 -14,18 -39,9 -21,-9 -26,-8 -26,5 0,8 6,17 14,20 11,4 5,15 -22,43 -23,23 -40,33 -44,27 -5,-7 -8,-7 -8,1 0,7 -7,10 -17,6 -10,-4 -14,-2 -10,4 4,6 4,19 1,28 -6,14 -12,11 -40,-16 -36,-35 -47,-22 -18,19 23,34 8,40 -24,10 -15,-14 -44,-38 -65,-53 l -38,-28 6,26 c 8,32 -8,36 -37,10 -30,-27 -33,-6 -3,32 15,20 25,38 22,41 -7,7 -67,-65 -67,-81 0,-10 -10,-15 -31,-15 -26,0 -31,-3 -26,-20 4,-15 -1,-22 -18,-26 -12,-3 -27,-15 -33,-27 -6,-12 -11,-16 -11,-8 -1,11 -4,11 -17,0 -15,-12 -16,-11 -10,9 4,12 3,22 -2,22 -13,0 -24,-29 -16,-42 3,-5 -2,-18 -12,-29 -19,-21 -43,-27 -26,-6 6,7 9,23 5,35 l -5,22 -24,-25 c -12,-14 -29,-22 -37,-19 -8,2 -20,-2 -27,-11 -7,-8 -19,-15 -27,-15 -11,0 -8,6 8,19 22,18 22,18 -42,18 -35,0 -73,-5 -84,-12 -32,-20 -82,-26 -82,-10 0,7 17,16 40,19 28,5 37,10 30,17 -7,7 -22,7 -49,0 -39,-11 -91,-14 -66,-4 6,2 9,9 6,14 -3,6 10,9 32,7 20,-2 39,2 41,7 5,15 -46,35 -91,36 -30,0 -36,2 -22,8 18,7 18,8 -5,14 -13,4 -34,7 -46,7 -13,0 -23,5 -23,11 0,6 11,8 29,4 16,-3 41,-3 55,1 l 27,7 -27,28 c -15,16 -45,33 -68,38 -38,8 -38,9 -11,11 26,1 27,3 10,10 -11,5 -16,9 -11,9 23,2 -20,31 -48,32 -30,2 -30,2 -3,6 46,7 30,19 -41,31 -64,10 -64,10 -14,8 29,-2 55,0 57,4 5,9 -44,20 -84,20 -15,0 -31,4 -36,9 -6,5 -19,11 -30,14 -13,3 -9,5 12,6 17,0 35,-3 38,-9 8,-13 86,-8 82,5 -2,6 -25,11 -51,13 -49,3 -60,22 -16,29 40,6 33,9 -42,23 -40,7 -84,21 -97,31 -13,11 -32,19 -43,19 -10,0 -21,7 -25,15 -8,23 0,26 29,11 31,-16 158,-33 143,-19 -5,6 -37,16 -70,23 -76,16 -107,33 -47,26 27,-4 41,-2 37,4 -3,6 4,10 17,10 16,0 8,7 -28,24 -52,24 -52,24 -47,65 4,30 1,41 -9,42 -7,0 -3,4 10,10 30,12 20,27 -23,35 -19,3 -35,11 -35,16 0,6 6,8 13,5 6,-2 21,-1 31,3 18,6 16,9 -14,23 -18,9 -39,17 -47,17 -7,0 -13,4 -13,9 0,5 -10,11 -22,15 -36,10 -1,27 39,20 46,-9 42,12 -6,33 -31,13 -37,20 -29,30 6,7 17,13 24,13 8,0 14,5 14,10 0,6 -6,10 -12,10 -7,0 -22,10 -34,23 -23,24 -37,67 -23,67 18,0 9,25 -21,60 -23,27 -27,36 -15,38 20,5 19,18 -5,42 -19,19 -19,22 -5,50 17,32 13,50 -9,50 -8,0 -16,12 -19,26 -4,21 -1,25 14,21 22,-6 23,1 8,63 -14,63 -16,119 -4,123 6,2 5,10 -3,19 -10,13 -10,17 0,21 10,4 11,7 1,18 -18,18 -16,30 2,23 29,-12 15,25 -20,52 -40,30 -40,39 -1,25 40,-16 34,-6 -47,81 -19,20 -40,68 -33,75 2,3 23,-14 46,-36 23,-23 46,-41 51,-41 18,0 8,22 -22,52 -23,24 -27,33 -17,39 7,5 21,6 30,3 14,-4 13,2 -7,38 -25,46 -25,88 1,88 15,0 12,25 -7,78 -12,30 -11,35 2,26 13,-7 32,18 20,26 -5,3 -11,22 -15,43 -6,34 -5,37 17,37 27,0 37,28 37,102 0,21 4,37 9,34 5,-4 12,8 16,26 4,18 9,41 12,52 3,11 1,16 -5,12 -11,-6 -22,16 -21,42 0,13 3,12 11,-5 15,-31 38,-37 39,-10 4,66 3,84 -8,109 -15,31 -8,59 13,51 12,-4 14,1 9,23 -3,16 -2,23 1,17 4,-10 11,-10 26,-2 19,10 20,18 15,83 -3,42 -2,63 3,51 5,-11 9,-46 9,-78 1,-36 5,-56 11,-52 6,3 10,29 10,56 0,28 4,48 9,45 5,-4 12,8 16,26 4,18 9,41 12,52 3,11 1,16 -5,12 -11,-6 -22,16 -21,42 0,13 3,12 11,-5 15,-31 38,-37 39,-10 4,66 3,84 -8,109 -15,31 -8,59 13,51 12,-4 14,1 9,23 -4,17 -3,24 2,17 5,-7 14,-9 22,-3 11,6 12,16 2,53 -16,64 -14,104 3,52 15,-47 35,-86 36,-67 0,6 7,12 15,12 8,0 15,2 15,4 0,2 -7,20 -15,39 -18,42 -19,57 -5,57 6,0 10,-7 10,-15 0,-17 20,-57 35,-67 5,-4 10,-27 11,-51 1,-25 5,-50 8,-56 4,-6 5,-11 1,-11 -3,0 -1,-10 6,-22 6,-11 11,-39 10,-62 0,-40 9,-75 33,-125 8,-18 8,-25 0,-28 -7,-2 -4,-12 9,-27 11,-12 28,-43 38,-67 10,-24 18,-37 18,-29 1,10 6,7 17,-8 8,-12 12,-27 9,-33 -9,-13 44,-92 121,-183 72,-83 79,-96 94,-166 15,-69 32,-85 71,-65 24,13 30,13 43,-1 9,-8 16,-30 16,-48 0,-43 15,-57 49,-45 23,9 29,6 54,-25 16,-20 37,-36 47,-36 23,0 128,113 136,146 5,20 2,117 -8,229 -1,11 -10,26 -20,33 -21,15 -24,48 -5,55 16,6 92,-17 124,-38 23,-15 27,-15 41,-2 13,14 12,20 -12,62 -49,83 -83,114 -145,131 -144,39 -204,78 -216,140 -3,20 -19,60 -35,88 -21,38 -29,67 -32,116 -3,64 -2,65 27,80 17,8 46,25 66,38 20,12 52,22 70,22 20,0 50,10 71,25 20,14 42,25 48,25 6,0 33,11 60,25 30,15 66,25 93,25 56,0 137,24 171,51 18,14 35,19 50,15 19,-5 30,1 49,24 16,19 35,30 51,30 13,0 37,10 53,23 43,35 74,53 118,67 67,22 151,70 215,124 57,48 95,92 195,231 22,30 59,80 82,110 23,31 49,77 58,103 31,87 34,92 50,86 8,-3 15,-12 15,-20 0,-8 4,-14 9,-14 5,0 12,-19 17,-42 l 8,-43 6,55 c 6,50 9,55 14,25 5,-36 49,-115 69,-123 4,-2 7,-10 7,-18 0,-8 7,-25 15,-38 8,-12 18,-51 21,-87 4,-35 13,-76 20,-91 11,-21 12,-43 4,-105 -15,-110 -4,-264 22,-338 24,-64 56,-125 67,-125 3,0 28,-18 55,-40 27,-23 52,-37 55,-32 3,5 20,1 36,-9 130,-78 232,-120 288,-120 9,0 17,-4 17,-8 0,-16 86,-30 170,-28 l 85,2 90,-53 c 115,-66 161,-69 190,-11 34,64 12,115 -65,154 -50,25 -70,49 -70,82 0,27 75,83 130,98 28,7 72,27 100,44 28,17 55,31 60,31 14,0 31,37 24,54 -3,9 -17,16 -30,16 -14,0 -42,9 -64,20 -53,27 -72,26 -181,-15 -52,-19 -99,-35 -106,-35 -7,0 -34,-7 -59,-16 -40,-14 -54,-14 -88,-3 -64,19 -176,80 -187,101 -22,40 25,378 52,378 6,0 17,17 26,38 8,20 32,73 53,117 20,44 40,90 44,102 4,11 13,27 21,33 8,7 15,29 15,50 0,20 4,50 9,66 5,16 16,65 25,109 10,44 24,108 32,142 8,34 14,70 14,82 0,31 16,34 76,12 30,-12 69,-21 85,-21 40,0 84,-26 99,-58 6,-14 10,-64 9,-112 -1,-57 3,-93 12,-107 11,-19 9,-26 -15,-57 -30,-40 -66,-47 -104,-20 -31,22 -36,14 -17,-32 15,-39 84,-94 117,-94 7,0 19,-5 24,-10 20,-20 108,-24 142,-6 17,9 42,16 55,16 13,0 50,20 84,45 68,51 86,83 106,196 12,66 12,82 0,115 -20,53 -40,136 -51,214 -14,90 -32,134 -76,179 -20,20 -34,40 -30,43 6,7 -10,27 -60,79 -15,16 -24,29 -20,29 5,0 1,5 -8,11 -10,5 -18,16 -18,23 0,14 -38,52 -49,49 -12,-3 -36,16 -29,22 4,4 -2,15 -13,24 -11,9 -21,27 -24,40 -2,13 -12,32 -21,42 -16,18 -16,19 4,19 11,0 23,-6 25,-12 4,-9 12,-5 26,12 l 21,25 0,-28 c 0,-16 -4,-36 -9,-46 -8,-15 2,-54 11,-41 2,3 10,19 19,35 11,21 22,30 39,29 14,-1 31,6 39,14 10,10 16,11 19,3 2,-7 10,-6 25,4 49,34 107,-2 107,-66 0,-47 59,-213 93,-264 15,-22 48,-69 72,-105 25,-36 57,-83 71,-105 38,-58 75,-95 96,-95 9,0 32,-13 50,-29 18,-15 39,-26 46,-24 7,3 11,-1 10,-8 -2,-7 40,-39 94,-71 61,-37 111,-76 137,-107 55,-66 175,-146 212,-143 22,3 31,-3 43,-26 20,-39 62,-72 92,-72 12,0 37,-12 54,-27 32,-26 32,-26 188,-25 207,3 290,11 332,33 19,11 40,19 46,19 6,0 29,16 51,35 44,38 64,41 124,24 59,-18 189,11 189,42 0,5 -6,9 -14,9 -7,0 -16,8 -18,18 -4,16 -48,43 -90,56 -10,3 -18,15 -18,27 0,21 1,21 20,4 13,-12 30,-16 57,-13 43,5 131,27 152,37 20,10 23,44 5,58 -22,16 -10,31 34,39 20,4 44,12 52,19 8,6 23,15 32,18 25,9 36,38 27,72 -11,40 -115,95 -181,95 -24,0 -48,3 -52,7 -4,4 -22,6 -41,4 -19,-1 -58,5 -89,15 l -55,17 -89,-39 c -82,-36 -93,-44 -152,-115 -53,-65 -69,-78 -98,-81 -21,-3 -42,2 -56,12 -11,9 -46,31 -76,48 -74,42 -179,152 -224,236 -20,37 -47,77 -61,88 -14,11 -25,28 -25,40 0,11 -18,37 -40,59 -22,22 -40,49 -40,61 0,12 -14,37 -32,55 -18,18 -39,52 -48,76 -11,30 -26,48 -53,63 -20,11 -34,24 -30,27 3,4 1,7 -5,7 -7,0 -12,12 -13,28 0,15 -4,36 -8,47 -11,26 -3,45 15,38 9,-3 14,2 14,16 0,12 -4,21 -9,21 -11,0 -21,38 -14,56 7,18 22,8 33,-22 5,-13 14,-24 19,-24 12,0 8,13 -26,82 -25,53 -31,90 -7,45 9,-16 18,-26 22,-22 3,3 -2,22 -13,41 -12,22 -15,38 -9,42 6,4 11,26 13,50 2,41 11,77 26,115 5,12 2,17 -11,17 -15,0 -16,2 -5,9 9,6 10,11 2,15 -6,4 -11,16 -11,28 0,16 3,18 13,9 17,-13 28,-5 20,15 -4,10 0,12 11,8 20,-8 21,9 1,26 -17,14 -21,45 -4,34 8,-4 9,1 4,16 -5,15 -4,20 4,16 14,-9 14,0 -1,24 -16,26 -2,39 17,14 13,-18 14,-16 13,20 -1,24 4,43 14,50 8,6 13,17 10,24 -2,7 4,19 14,26 16,12 16,15 1,37 -21,30 -21,40 -1,32 14,-5 15,-3 5,15 -16,29 -14,42 6,35 13,-5 15,-3 9,13 -19,46 -19,55 0,48 17,-7 17,-5 -2,17 -18,20 -44,113 -27,95 3,-3 12,2 19,11 10,15 7,27 -17,75 -16,32 -26,58 -22,58 5,0 4,4 -2,8 -17,12 -43,66 -38,80 3,6 11,12 19,12 7,0 16,11 20,25 3,14 10,22 16,19 5,-3 9,0 7,7 -1,8 -1,21 0,29 1,12 4,11 16,-4 13,-17 14,-16 24,15 5,19 10,26 10,17 1,-19 31,-26 31,-8 0,6 -4,10 -10,10 -5,0 -10,7 -10,15 0,8 7,15 15,15 8,0 17,11 21,25 6,24 24,35 24,15 0,-5 5,-10 11,-10 6,0 8,9 4,20 -4,11 -1,34 7,50 10,23 17,28 35,24 23,-6 32,9 13,21 -5,3 -10,13 -10,22 0,14 3,13 22,-3 21,-19 21,-19 14,1 -21,52 -20,58 3,46 24,-13 29,0 6,19 -21,17 -19,37 5,45 16,5 18,10 10,25 -7,13 -7,21 1,25 7,5 5,15 -5,31 -21,31 -20,37 5,24 28,-16 33,-7 9,15 -11,10 -20,25 -20,33 0,12 5,10 21,-7 26,-28 36,-21 16,11 -8,12 -18,36 -22,53 -6,28 -6,29 13,12 10,-9 21,-17 24,-17 11,0 2,68 -12,85 -14,17 -13,18 13,11 15,-3 27,-2 27,3 0,15 41,21 46,6 7,-18 84,-68 92,-59 4,4 1,9 -7,12 -8,3 -30,21 -50,40 l -35,35 38,-6 c 32,-5 36,-4 26,8 -18,21 2,19 49,-5 33,-16 40,-17 45,-5 3,8 -6,23 -20,34 -33,26 -25,38 25,35 25,-1 42,3 45,11 5,14 -18,38 -44,48 -11,4 -9,7 7,12 13,4 20,11 17,16 -8,13 3,11 37,-7 36,-18 51,-12 20,8 -31,19 -26,31 10,23 22,-5 29,-4 25,4 -9,14 5,14 38,1 29,-11 34,-3 10,15 -14,9 -14,16 -5,33 14,26 33,28 67,6 36,-24 41,-10 5,17 -37,27 -42,48 -5,25 14,-10 31,-15 37,-13 7,2 -5,15 -25,28 -42,27 -52,55 -15,45 64,-17 73,-17 40,0 -32,17 -50,50 -30,57 6,2 -18,16 -54,31 -67,28 -51,29 41,1 87,-26 98,-27 50,-4 -58,28 -135,49 -159,42 -11,-3 -21,2 -24,11 -4,9 -1,16 6,16 14,0 110,-16 152,-25 25,-5 27,-4 12,5 -9,6 -54,19 -100,30 -55,12 -71,19 -48,19 18,1 60,-6 93,-15 94,-24 116,-12 28,16 -41,13 -83,23 -93,22 -9,0 -15,3 -12,9 4,5 14,10 23,10 9,1 4,5 -13,10 -20,5 0,7 58,4 103,-6 116,8 25,27 -61,12 -62,13 -28,19 l 35,6 -37,2 c -21,0 -38,-3 -38,-9 0,-5 -9,-10 -20,-10 -11,0 -20,4 -20,10 0,6 -22,7 -55,4 -31,-3 -55,-1 -55,4 0,5 41,10 92,11 51,1 95,4 97,7 12,12 -28,24 -84,25 -33,1 -48,4 -32,6 15,2 27,9 27,14 0,5 8,9 18,10 14,0 14,2 -3,8 -11,5 -46,6 -77,3 -34,-3 -58,-1 -58,5 0,5 -15,8 -32,6 -26,-4 -30,-2 -18,6 11,9 4,10 -30,6 -50,-6 -39,2 30,21 39,11 41,12 15,13 -25,0 -169,-44 -239,-74 -12,-5 -17,-5 -13,1 5,9 90,53 197,103 24,11 24,11 -7,6 -18,-2 -54,-14 -79,-25 -74,-34 -62,-15 18,29 40,22 66,41 56,41 -22,0 -129,-62 -184,-106 -24,-20 -48,-34 -52,-30 -4,4 0,13 9,19 14,11 23,47 11,47 -2,0 -20,-13 -38,-30 -20,-17 -40,-27 -49,-24 -12,5 -9,14 16,45 17,21 26,39 20,39 -5,0 -29,-25 -53,-55 -24,-30 -44,-51 -46,-46 -2,6 -9,8 -17,5 -18,-7 -38,31 -30,57 6,18 4,20 -14,14 -15,-4 -21,-2 -21,8 0,8 -7,17 -15,21 -8,3 -15,12 -15,21 0,8 -5,15 -10,15 -19,0 -80,45 -80,59 0,11 -4,10 -13,-4 -17,-23 -37,-12 -37,20 0,17 -4,23 -14,19 -17,-6 -76,22 -76,36 0,6 -11,8 -25,6 -17,-3 -25,0 -25,10 0,17 -16,19 -26,3 -4,-8 -9,-7 -15,2 -10,17 -31,19 -41,4 -5,-6 -11,-5 -18,5 -8,12 -10,12 -10,1 0,-12 -3,-11 -17,1 -10,9 -24,13 -30,11 -7,-3 -13,3 -14,14 0,16 -1,16 -9,-2 -7,-17 -9,-17 -9,-2 -1,9 -5,17 -10,17 -5,0 -7,-9 -4,-20 9,-34 -33,-16 -51,22 -5,10 -7,10 -12,0 -5,-10 -10,-9 -21,5 -14,17 -14,17 -10,-4 3,-13 1,-25 -3,-28 -5,-3 -12,10 -16,30 -6,35 -24,49 -24,19 0,-14 -3,-14 -15,-4 -10,8 -15,9 -15,2 0,-6 -7,-9 -16,-5 -13,5 -15,2 -10,-15 6,-17 4,-21 -8,-16 -10,4 -19,-1 -24,-16 -8,-21 -8,-21 -22,4 -15,29 -40,35 -40,10 0,-9 5,-12 12,-8 8,5 9,2 5,-10 -4,-10 -7,-21 -7,-24 -1,-4 -7,4 -15,18 -11,20 -14,21 -15,7 0,-26 -20,-10 -20,16 -1,20 -2,21 -14,5 -7,-10 -16,-15 -19,-11 -4,3 -7,-1 -7,-9 0,-17 -62,-32 -68,-17 -2,5 -8,9 -13,9 -5,0 -4,-11 1,-26 12,-32 12,-34 0,-34 -6,0 -15,11 -20,25 -5,14 -16,25 -25,25 -20,0 -19,-6 6,-31 30,-30 14,-37 -18,-8 l -26,24 6,-22 c 3,-13 1,-23 -4,-23 -5,0 -9,7 -9,15 0,9 -9,15 -22,15 -20,0 -20,-1 -5,-18 21,-23 22,-39 2,-22 -12,10 -15,10 -15,0 0,-7 -7,-10 -15,-6 -8,3 -15,1 -15,-4 0,-5 -8,-6 -17,-3 -12,5 -15,2 -10,-9 3,-10 0,-19 -9,-22 -23,-9 -36,-7 -30,3 8,12 -19,63 -28,54 -3,-4 -13,3 -21,14 -8,11 -39,37 -68,56 -29,20 -59,43 -66,51 -8,9 -18,16 -24,16 -6,0 2,-13 18,-30 26,-27 27,-30 9,-30 -11,0 -37,16 -57,35 -37,35 -57,44 -57,25 0,-7 -6,-7 -20,0 -11,6 -20,7 -20,3 z"
       id="path8" />
  </g>
</svg>
